<svg width="130" height="130" fill="none" xmlns="http://www.w3.org/2000/svg"><path d="M30.62 14.182a12.28 12.28 0 01-10.364 5.353 12.256 12.256 0 01-10.352-5.353 9.786 9.786 0 00-1.631 5.353v96.496H32.24V19.535a9.774 9.774 0 00-1.62-5.353v0z" stroke="#0B7578" stroke-width="2.57" stroke-linecap="round" stroke-linejoin="round"/><path d="M26.248 26.154H14.264v65.91h11.984v-65.91zm0 71.901H14.264v11.984h11.984V98.055zm28.34-83.873a12.28 12.28 0 01-10.364 5.353 12.244 12.244 0 01-10.353-5.353 9.785 9.785 0 00-1.631 5.353v96.496h23.967V19.535a9.774 9.774 0 00-1.619-5.353v0z" stroke="#0B7578" stroke-width="2.57" stroke-linecap="round" stroke-linejoin="round"/><path d="M50.215 26.154H38.233v65.91h11.983v-65.91zm0 71.901H38.233v11.984h11.983V98.055zm28.34-83.873a12.278 12.278 0 01-10.34 5.353 12.28 12.28 0 01-10.365-5.353 9.869 9.869 0 00-1.62 5.353v96.496h23.944V19.535a9.773 9.773 0 00-1.619-5.353v0z" stroke="#0B7578" stroke-width="2.57" stroke-linecap="round" stroke-linejoin="round"/><path d="M74.183 26.154H62.199v65.91h11.984v-65.91zm0 71.901H62.199v11.984h11.984V98.055z" stroke="#0B7578" stroke-width="2.57" stroke-linecap="round" stroke-linejoin="round"/><path d="M100.124 25.125a11.08 11.08 0 01-7.703 6.64 11.074 11.074 0 01-9.871-2.444 8.626 8.626 0 00-.296 4.869l9.774 40.926 7.6 31.827 2.174 9.088 20.327-4.857-2.174-9.089-7.611-31.826-9.774-40.926a8.469 8.469 0 00-2.446-4.207v0z" stroke="#0B7578" stroke-width="2.71" stroke-linecap="round" stroke-linejoin="round"/><path d="M98.838 36.165l-10.161 2.427 13.348 55.9 10.162-2.427-13.349-55.9zM113.4 97.153l-10.161 2.427 2.426 10.162 10.162-2.427-2.427-10.162z" stroke="#0B7578" stroke-width="2.71" stroke-linecap="round" stroke-linejoin="round"/></svg>