<svg width="72" height="72" fill="none" xmlns="http://www.w3.org/2000/svg"><path d="M70.43 26.328H1.583a.583.583 0 01-.543-.765.572.572 0 01.217-.285L35.668 1.105a.56.56 0 01.653 0l34.342 24.127a.549.549 0 01.338.513.57.57 0 01-.571.583zM3.39 25.162h65.198L35.948 2.26 3.39 25.162zM16.282 59.66h-8.16a.571.571 0 01-.57-.572V31.415a.583.583 0 01.57-.584h8.16a.583.583 0 01.572.584v27.673a.572.572 0 01-.572.572zm-7.588-1.167h6.994V31.986H8.694v26.507zm31.357 1.167h-8.16a.57.57 0 01-.57-.572V31.415a.584.584 0 01.57-.584h8.16a.583.583 0 01.572.584v27.673a.572.572 0 01-.572.572zm-7.577-1.167h6.995V31.986h-6.995v26.507zm31.393 1.167h-8.16a.571.571 0 01-.571-.572V31.415a.584.584 0 01.57-.584h8.16a.583.583 0 01.572.584v27.673a.572.572 0 01-.571.572zm-7.577-1.167h6.994V31.986H56.29v26.507z" fill="#0B7578" stroke="#0B7578" stroke-miterlimit="10"/><path d="M41.672 31.917H30.318a.57.57 0 01-.572-.572v-5.6a.572.572 0 01.572-.572h11.354a.571.571 0 01.571.572v5.542a.572.572 0 01-.571.63zM30.9 30.75h10.188v-4.422H30.9v4.422zm34.529 1.167H54.04a.57.57 0 01-.583-.572v-5.6a.573.573 0 01.583-.572h11.342a.571.571 0 01.572.572v5.542a.572.572 0 01-.525.63zM54.658 30.75h10.2v-4.422h-10.2v4.422zm-36.755 1.167H6.526a.57.57 0 01-.572-.572v-5.6a.572.572 0 01.572-.572h11.377a.571.571 0 01.571.572v5.542a.572.572 0 01-.571.63zM7.108 30.75h10.189v-4.422H7.108v4.422zm34.564 34.44H30.318a.571.571 0 01-.572-.572v-5.53a.584.584 0 01.572-.583h11.354a.583.583 0 01.571.583v5.495a.575.575 0 01-.344.56.57.57 0 01-.227.047zM30.9 64.023h10.188V59.66H30.9v4.363zm34.529 1.167H54.04a.57.57 0 01-.583-.572v-5.53a.583.583 0 01.583-.583h11.342a.583.583 0 01.572.583v5.495a.572.572 0 01-.525.607zm-10.771-1.167h10.2V59.66h-10.2v4.363zM17.903 65.19H6.526a.57.57 0 01-.572-.607v-5.495a.584.584 0 01.572-.583h11.377a.583.583 0 01.571.583v5.495a.571.571 0 01-.571.607zM7.132 64.023H17.32V59.66H7.108l.024 4.363z" fill="#0B7578" stroke="#0B7578" stroke-miterlimit="10"/><path d="M70.127 71H1.863a.572.572 0 01-.572-.583v-5.834a.572.572 0 01.572-.571h68.264a.571.571 0 01.571.571v5.834a.573.573 0 01-.571.583zM2.446 69.833h67.098v-4.666H2.445v4.666zm33.549-49.151a5.254 5.254 0 01-3.764-1.363 5.263 5.263 0 01-1.715-3.619 5.263 5.263 0 015.479-4.993 5.244 5.244 0 015.467 4.993 5.252 5.252 0 01-1.708 3.619 5.243 5.243 0 01-3.76 1.363zm0-8.832a4.1 4.1 0 00-4.325 3.85 4.108 4.108 0 004.325 3.827A4.101 4.101 0 0040.32 15.7a4.12 4.12 0 00-4.325-3.85z" fill="#0B7578" stroke="#0B7578" stroke-miterlimit="10"/></svg>