<svg width="130" height="130" fill="none" xmlns="http://www.w3.org/2000/svg"><path d="M39.886 43.172a5.602 5.602 0 010-7.918L63.747 11.51a5.661 5.661 0 017.954 0v0a5.602 5.602 0 010 7.918l-23.86 23.743a5.661 5.661 0 01-7.955 0v0z" stroke="#0B7578" stroke-width="2.71" stroke-linecap="round" stroke-linejoin="round"/><path d="M36.14 34.166l-.46-.46a3.415 3.415 0 010-4.81l21.673-21.57a3.44 3.44 0 014.857 0l.46.461a3.392 3.392 0 010 4.81L40.939 34.166a3.45 3.45 0 01-4.798 0v0zm40.855 45.949a5.661 5.661 0 007.954 0l23.861-23.754a5.593 5.593 0 000-7.906v0a5.636 5.636 0 00-7.954 0l-23.86 23.742a5.602 5.602 0 000 7.918v0zm9.053 3.723l.461.461a3.44 3.44 0 004.834 0l21.686-21.568a3.415 3.415 0 000-4.822l-.461-.46a3.452 3.452 0 00-4.845 0l-21.675 21.58a3.39 3.39 0 000 4.81v0zM78.32 70.874L49.163 41.848l21.213-21.107 29.156 29.025-21.214 21.108z" stroke="#0B7578" stroke-width="2.71" stroke-linecap="round" stroke-linejoin="round"/><path d="M61.762 54.387l3.97 3.96-13.247 13.188-3.983-3.959 13.26-13.189zM44.2 68.57l7.28 7.255-37.11 36.944-7.28-7.256L44.2 68.569z" stroke="#0B7578" stroke-width="2.71" stroke-linecap="round" stroke-linejoin="round"/><path d="M45.193 64.28l10.636 10.553a1.869 1.869 0 010 2.647v0a1.89 1.89 0 01-2.647 0L42.545 66.914a1.879 1.879 0 010-2.635v0a1.903 1.903 0 012.648 0zm73.024 59.125a5.27 5.27 0 100-10.541H86.391a5.27 5.27 0 100 10.541h31.826zm1.749-13.744v-.626a3.202 3.202 0 00-3.202-3.203H87.868a3.203 3.203 0 00-3.203 3.203v.626a3.203 3.203 0 003.203 3.203h28.896a3.202 3.202 0 003.202-3.203z" stroke="#0B7578" stroke-width="2.71" stroke-linecap="round" stroke-linejoin="round"/></svg>