<svg width="80" height="80" fill="none" xmlns="http://www.w3.org/2000/svg"><path d="M47.487 63.882h-34.85a3.728 3.728 0 01-2.632-1.102 3.776 3.776 0 01-1.095-2.65V4.407a3.776 3.776 0 011.095-2.649A3.729 3.729 0 0112.637.656h45.798A3.707 3.707 0 0161.08 1.75a3.753 3.753 0 011.096 2.657v36.078a.657.657 0 01-.638.656H49.312c-.3 0-.59.12-.802.334a1.145 1.145 0 00-.332.807v20.984a.646.646 0 01-.436.585.635.635 0 01-.255.031zM12.637 1.954a2.443 2.443 0 00-1.71.727 2.474 2.474 0 00-.714 1.726V60.13c0 .654.258 1.281.718 1.744.46.462 1.083.722 1.732.722H46.85V42.282a2.439 2.439 0 01.72-1.743 2.41 2.41 0 011.743-.696h11.612V4.433a2.479 2.479 0 00-.726-1.766 2.449 2.449 0 00-1.763-.713H12.637z" fill="#0B7578" stroke="#0B7578" stroke-miterlimit="10"/><path d="M20.522 63.882a.637.637 0 01-.638-.643V1.312a.658.658 0 01.651-.656.658.658 0 01.652.656v61.927a.648.648 0 01-.412.602.636.636 0 01-.253.041zm-6.49-51.62H6.303a.65.65 0 01-.651-.655.658.658 0 01.651-.656h7.729a.65.65 0 01.651.655.658.658 0 01-.651.656zm0 13.771H6.303a.65.65 0 01-.651-.656.658.658 0 01.651-.656h7.729a.65.65 0 01.651.656.658.658 0 01-.651.656zm0 13.757H6.303a.65.65 0 01-.651-.655.65.65 0 01.652-.656h7.728a.65.65 0 01.651.656.65.65 0 01-.652.656zm0 13.77H6.303a.65.65 0 01-.651-.655.65.65 0 01.652-.656h7.728a.65.65 0 01.651.656.65.65 0 01-.652.656zm57.892 25.784H49.312a2.399 2.399 0 01-1.71-.715 2.427 2.427 0 01-.701-1.724V42.282a2.44 2.44 0 01.701-1.724 2.408 2.408 0 011.71-.715h22.612c.643 0 1.26.257 1.714.714.455.458.71 1.078.71 1.725v34.623c0 .647-.255 1.267-.71 1.725a2.416 2.416 0 01-1.714.714zM49.312 41.141c-.3 0-.59.12-.802.334a1.145 1.145 0 00-.332.807v34.623c0 .303.12.593.332.807.213.214.501.334.802.334h22.612a1.128 1.128 0 001.06-.701c.057-.14.087-.29.087-.44V42.282a1.148 1.148 0 00-.709-1.058 1.128 1.128 0 00-.438-.083H49.312z" fill="#0B7578" stroke="#0B7578" stroke-miterlimit="10"/><path d="M69.435 53.521H51.762a.634.634 0 01-.602-.393.647.647 0 01-.05-.25V44.59a.658.658 0 01.652-.656h17.673a.636.636 0 01.594.406.65.65 0 01.044.25v8.236a.647.647 0 01-.381.642.635.635 0 01-.257.053zM52.4 52.21h16.46v-6.951H52.4v6.95zm2.555 7.279h-2.867a.637.637 0 01-.639-.643v-3.043a.647.647 0 01.392-.605.636.636 0 01.247-.05h2.867a.65.65 0 01.652.655v3.043a.658.658 0 01-.652.643zm-2.228-1.312h1.59v-1.783h-1.59v1.783zm9.305 1.312h-2.867a.636.636 0 01-.602-.394.646.646 0 01-.05-.25v-3.042a.65.65 0 01.652-.656h2.867a.65.65 0 01.652.656v3.043a.658.658 0 01-.652.643zm-2.228-1.312h1.59v-1.783h-1.59v1.783zm9.306 1.312h-2.855a.636.636 0 01-.602-.394.646.646 0 01-.05-.25v-3.042a.65.65 0 01.652-.656h2.867a.65.65 0 01.652.656v3.043a.648.648 0 01-.412.601.636.636 0 01-.253.042zm-2.23-1.312h1.59v-1.783h-1.59v1.783zm-11.925 9.167h-2.867a.637.637 0 01-.639-.642v-3.056a.637.637 0 01.639-.643h2.867a.65.65 0 01.652.643v3.056a.658.658 0 01-.652.642zm-2.228-1.311h1.59v-1.77h-1.59v1.77zm9.305 1.311h-2.867a.636.636 0 01-.602-.393.647.647 0 01-.05-.25v-3.055a.647.647 0 01.404-.598.636.636 0 01.248-.045h2.867a.65.65 0 01.652.643v3.056a.657.657 0 01-.652.642zm-2.228-1.311h1.59v-1.77h-1.59v1.77zm9.306 1.311h-2.855a.636.636 0 01-.652-.642v-3.056a.647.647 0 01.39-.646.634.634 0 01.262-.05h2.867a.635.635 0 01.602.394c.033.08.05.164.05.25v3.055a.646.646 0 01-.4.65.635.635 0 01-.265.045zm-2.23-1.311h1.59v-1.77h-1.59v1.77zM54.955 75.2h-2.867a.636.636 0 01-.594-.406.647.647 0 01-.045-.25v-3.042a.645.645 0 01.639-.643h2.867a.65.65 0 01.652.643v3.042a.658.658 0 01-.652.656zm-2.228-1.312h1.59v-1.757h-1.59v1.757zm9.305 1.312h-2.867a.658.658 0 01-.652-.656v-3.042a.646.646 0 01.404-.598.636.636 0 01.248-.045h2.867a.65.65 0 01.652.643v3.042a.658.658 0 01-.652.656zm-2.228-1.312h1.59v-1.757h-1.59v1.757zM69.11 75.2h-2.855a.658.658 0 01-.652-.656v-3.042a.646.646 0 01.394-.634.635.635 0 01.258-.048h2.867a.636.636 0 01.652.642v3.043a.659.659 0 01-.402.646.65.65 0 01-.263.05zm-2.23-1.311h1.59V72.13h-1.59v1.758zM49.312 16.721H29.515a.65.65 0 01-.639-.655.645.645 0 01.639-.643h19.797a.634.634 0 01.602.394.658.658 0 01-.141.713.65.65 0 01-.461.191zm0 13.784H29.515a.637.637 0 01-.639-.643.658.658 0 01.639-.655h19.797a.65.65 0 01.652.655.647.647 0 01-.404.598.634.634 0 01-.248.045zm-9.879 13.783h-9.918a.65.65 0 01-.652-.655c0-.174.069-.34.191-.464a.65.65 0 01.461-.192h9.918a.65.65 0 01.46.192.658.658 0 01-.46 1.12z" fill="#0B7578" stroke="#0B7578" stroke-miterlimit="10"/></svg>