<svg width="130" height="130" fill="none" xmlns="http://www.w3.org/2000/svg"><path d="M109.368 67.66L55.1 13.392a8.91 8.91 0 00-12.602 0L21.665 34.225a8.91 8.91 0 000 12.602l54.268 54.269a8.91 8.91 0 0012.602 0l20.833-20.834a8.91 8.91 0 000-12.602z" stroke="#0B7578" stroke-width="2.71" stroke-linecap="round" stroke-linejoin="round"/><path d="M110.965 77.738a9.292 9.292 0 01-1.985 2.967l-20.091 20.091a9.458 9.458 0 01-13.367 0L22.045 47.212a9.704 9.704 0 01-1.182-1.442 9.455 9.455 0 001.997 10.412l53.501 53.465a9.454 9.454 0 0013.367 0l20.091-20.09a9.454 9.454 0 001.146-11.819z" stroke="#0B7578" stroke-width="2.71" stroke-linecap="round" stroke-linejoin="round"/><path d="M111.78 86.65a9.445 9.445 0 01-1.997 2.966l-20.09 20.091a9.458 9.458 0 01-13.379 0L22.861 56.182a9.018 9.018 0 01-1.182-1.442 9.455 9.455 0 001.997 10.412l53.489 53.489a9.442 9.442 0 006.69 2.773 9.45 9.45 0 006.688-2.773l20.091-20.09a9.454 9.454 0 001.146-11.902v0z" stroke="#0B7578" stroke-width="2.71" stroke-linecap="round" stroke-linejoin="round"/><path d="M64.815 69.761c6.527 0 11.818-5.291 11.818-11.818 0-6.527-5.291-11.818-11.818-11.818-6.527 0-11.818 5.29-11.818 11.818 0 6.527 5.291 11.818 11.818 11.818z" stroke="#0B7578" stroke-width="2.71" stroke-linecap="round" stroke-linejoin="round"/><path d="M59.721 63.675l-.697-.697a1.3 1.3 0 010-1.82l.307-.308a5.212 5.212 0 01-.756-1.832 1.276 1.276 0 01.733-1.37l.992-.473a1.313 1.313 0 011.182 0 1.3 1.3 0 01.686.898 2.8 2.8 0 00.756 1.395c.142.153.426.342.544.224.118-.118 0-.768-.213-1.123-.425-.98-1.442-3.309.366-5.117a3.675 3.675 0 014.101-.792l.426-.425a1.288 1.288 0 011.832 0l.661.685a1.288 1.288 0 010 1.832l-.26.26c.256.428.451.89.58 1.37a1.276 1.276 0 01-.721 1.502l-.993.449a1.3 1.3 0 01-1.785-.84 2.459 2.459 0 00-.673-1.181.768.768 0 00-.308-.213s0 .284.426 1.182c.567 1.371 1.182 3.392-.591 5.117a3.853 3.853 0 01-4.278.816l-.461.46a1.275 1.275 0 01-1.856 0z" fill="#0B7578"/><path d="M100.388 67.102L55.715 22.429a7.883 7.883 0 01-10.4-.65L31.381 35.654a7.895 7.895 0 010 11.144c-.234.233-.482.45-.744.65l44.732 44.673c.2-.262.417-.51.65-.744a7.87 7.87 0 0111.144 0l13.875-13.934a7.858 7.858 0 01-.65-10.341z" stroke="#0B7578" stroke-width="2.71" stroke-linecap="round" stroke-linejoin="round"/></svg>