<svg width="80" height="80" fill="none" xmlns="http://www.w3.org/2000/svg"><g clip-path="url(#clip0)" fill="#0B7578" stroke="#0B7578" stroke-miterlimit="10"><path d="M78.987 66.332H28.115a.587.587 0 01-.246-.054.642.642 0 01-.209-.155.726.726 0 01-.139-.231.783.783 0 01-.049-.273V16.82a.785.785 0 01.045-.277.727.727 0 01.139-.237.644.644 0 01.21-.158.588.588 0 01.249-.056h5.797a.58.58 0 01.248.056c.08.037.15.09.21.158s.108.148.14.237a.785.785 0 01.044.277v7.47h3.24v-7.47a.785.785 0 01.045-.277.727.727 0 01.138-.237.644.644 0 01.21-.158.587.587 0 01.25-.056h30.229c.174 0 .34.077.463.213a.77.77 0 01.192.515v7.47h3.24v-7.47a.785.785 0 01.045-.277.725.725 0 01.138-.237.642.642 0 01.21-.158.588.588 0 01.25-.056h5.783c.086 0 .17.019.249.056.079.037.15.09.21.158s.107.148.139.237a.785.785 0 01.045.277v48.798a.783.783 0 01-.05.274.726.726 0 01-.139.231.642.642 0 01-.208.155.587.587 0 01-.246.054zm-50.23-1.456h49.574V17.534h-4.485v7.412a.76.76 0 01-.188.505.612.612 0 01-.455.209h-4.537a.589.589 0 01-.246-.055.642.642 0 01-.209-.154.721.721 0 01-.139-.232.783.783 0 01-.049-.273v-7.412H39.092v7.412a.78.78 0 01-.05.276.722.722 0 01-.143.234.64.64 0 01-.213.153.587.587 0 01-.25.05h-4.524a.612.612 0 01-.455-.208.755.755 0 01-.188-.505v-7.412H28.77l-.014 47.342z"/><path d="M78.987 28.47H28.115a.624.624 0 01-.464-.213.77.77 0 01-.192-.515.77.77 0 01.192-.515.624.624 0 01.464-.213h50.872c.174 0 .34.076.464.213a.77.77 0 01.192.515c0 .193-.07.378-.192.515a.624.624 0 01-.464.213zM36.102 38.605h-4.328a.59.59 0 01-.25-.055.644.644 0 01-.21-.159.727.727 0 01-.138-.236.785.785 0 01-.045-.278v-4.281a.785.785 0 01.045-.278.726.726 0 01.139-.236.642.642 0 01.21-.159.588.588 0 01.249-.055h4.328a.602.602 0 01.459.214c.06.068.107.148.138.236a.78.78 0 01.045.278v4.281a.78.78 0 01-.045.278.725.725 0 01-.138.236.645.645 0 01-.21.159.59.59 0 01-.25.055zM32.43 37.15h3.016v-2.912H32.43v2.912zm16.747 1.455H44.89a.625.625 0 01-.464-.213.771.771 0 01-.192-.515v-4.281a.77.77 0 01.192-.515.624.624 0 01.464-.213h4.314a.606.606 0 01.46.214c.06.068.106.148.138.236a.785.785 0 01.045.278v4.281a.783.783 0 01-.047.285.721.721 0 01-.146.24.64.64 0 01-.219.156.585.585 0 01-.257.047zm-3.672-1.456h3.03v-2.912h-3.03v2.912zm16.748 1.456h-4.25a.59.59 0 01-.249-.055.645.645 0 01-.21-.159.725.725 0 01-.138-.236.78.78 0 01-.045-.278v-4.281a.78.78 0 01.045-.278.724.724 0 01.138-.236.643.643 0 01.21-.159.588.588 0 01.25-.055h4.314c.174 0 .34.076.464.213a.77.77 0 01.192.515v4.281a.799.799 0 01-.055.297.731.731 0 01-.16.246.645.645 0 01-.235.152.595.595 0 01-.271.033zM58.58 37.15h3.03v-2.912h-3.03v2.912zm16.761 1.455h-4.328a.59.59 0 01-.249-.055.646.646 0 01-.21-.159.727.727 0 01-.138-.236.785.785 0 01-.045-.278v-4.281a.785.785 0 01.045-.278.726.726 0 01.138-.236.644.644 0 01.21-.159.588.588 0 01.25-.055h4.327a.606.606 0 01.46.214c.06.068.106.148.138.236a.783.783 0 01.045.278v4.281a.783.783 0 01-.045.278.725.725 0 01-.139.236.645.645 0 01-.21.159.59.59 0 01-.249.055zm-3.685-1.456h3.03v-2.912h-3.03v2.912zM36.102 49.542h-4.328a.612.612 0 01-.454-.21.755.755 0 01-.189-.504v-4.281a.785.785 0 01.045-.278.727.727 0 01.139-.236.643.643 0 01.21-.159.588.588 0 01.249-.055h4.328a.602.602 0 01.459.214c.06.068.107.148.138.236a.78.78 0 01.045.278v4.281c0 .19-.067.37-.188.505a.612.612 0 01-.454.209zm-3.672-1.456h3.016v-2.913H32.43v2.913zm16.747 1.456H44.89a.585.585 0 01-.25-.05.639.639 0 01-.213-.154.72.72 0 01-.143-.233.782.782 0 01-.05-.277v-4.281a.77.77 0 01.192-.515.624.624 0 01.464-.213h4.314a.606.606 0 01.46.214c.06.068.106.148.138.236a.785.785 0 01.045.278v4.281a.781.781 0 01-.051.28.718.718 0 01-.146.235.638.638 0 01-.218.153.584.584 0 01-.254.046zm-3.672-1.456h3.03v-2.913h-3.03v2.913zm16.748 1.456h-4.25a.612.612 0 01-.454-.21.755.755 0 01-.188-.504v-4.281a.78.78 0 01.045-.278.725.725 0 01.138-.236.644.644 0 01.21-.159.588.588 0 01.25-.055h4.314c.174 0 .34.076.464.213a.77.77 0 01.192.515v4.281a.781.781 0 01-.055.295.716.716 0 01-.16.243.63.63 0 01-.236.149.582.582 0 01-.27.027zm-3.673-1.456h3.03v-2.913h-3.03v2.913zm16.761 1.456h-4.328a.612.612 0 01-.454-.21.755.755 0 01-.188-.504v-4.281a.785.785 0 01.045-.278.727.727 0 01.138-.236.645.645 0 01.21-.159.588.588 0 01.25-.055h4.327a.606.606 0 01.46.214c.06.068.106.148.138.236a.783.783 0 01.045.278v4.281a.76.76 0 01-.188.505.612.612 0 01-.455.209zm-3.685-1.456h3.03v-2.913h-3.03v2.913zM36.102 60.492h-4.328a.612.612 0 01-.454-.209.755.755 0 01-.189-.504v-4.296c0-.19.068-.37.189-.505a.612.612 0 01.454-.209h4.328c.17 0 .334.076.454.21.12.133.188.315.188.504v4.296a.75.75 0 01-.188.504.612.612 0 01-.454.21zm-3.672-1.456h3.016v-2.912H32.43v2.912zm16.747 1.457H44.89a.587.587 0 01-.25-.05.64.64 0 01-.213-.154.72.72 0 01-.143-.233.782.782 0 01-.05-.277v-4.296a.78.78 0 01.05-.276.72.72 0 01.143-.234.64.64 0 01.213-.153.587.587 0 01.25-.05h4.314c.17 0 .334.075.455.209.12.133.188.315.188.504v4.296a.781.781 0 01-.051.28.72.72 0 01-.146.235.638.638 0 01-.218.153.585.585 0 01-.254.046zm-3.672-1.457h3.03v-2.912h-3.03v2.912zm16.748 1.457h-4.25a.612.612 0 01-.454-.21.755.755 0 01-.188-.504v-4.296c0-.19.068-.37.188-.504a.612.612 0 01.454-.21h4.315a.587.587 0 01.25.05c.08.036.152.088.213.154a.72.72 0 01.143.234.78.78 0 01.05.276v4.296a.781.781 0 01-.055.295.714.714 0 01-.16.243.628.628 0 01-.236.149.583.583 0 01-.27.027zm-3.673-1.457h3.03v-2.912h-3.03v2.912zm16.761 1.456h-4.328a.612.612 0 01-.454-.209.755.755 0 01-.188-.504v-4.296c0-.19.067-.37.188-.505a.612.612 0 01.454-.209h4.328c.17 0 .334.076.455.21.12.133.188.315.188.504v4.296c0 .19-.068.37-.188.504a.612.612 0 01-.455.21zm-3.685-1.456h3.03v-2.912h-3.03v2.912zM38.436 25.66h-4.524a.612.612 0 01-.455-.21.755.755 0 01-.188-.504V9.728a.785.785 0 01.045-.277.725.725 0 01.139-.237.643.643 0 01.21-.158.588.588 0 01.249-.056h4.524a.587.587 0 01.25.05.64.64 0 01.213.154c.061.066.11.146.143.233a.78.78 0 01.05.277v15.232a.781.781 0 01-.05.276.723.723 0 01-.143.234.642.642 0 01-.213.153.585.585 0 01-.25.05zm-3.934-1.457h3.24V10.442h-3.188l-.052 13.761zm38.701 1.457h-4.537a.587.587 0 01-.246-.055.644.644 0 01-.209-.155.724.724 0 01-.14-.231.782.782 0 01-.048-.273V9.728a.785.785 0 01.045-.277.726.726 0 01.139-.237.644.644 0 01.21-.158.587.587 0 01.249-.056h4.537c.17 0 .334.075.455.21.12.133.188.314.188.504v15.232c0 .19-.068.37-.188.504a.612.612 0 01-.455.21zm-3.934-1.457h3.292V10.442h-3.24l-.052 13.761zM24.05 70.322a.642.642 0 01-.434-.175l-7.108-6.902a.754.754 0 01-.17-.248L2.305 27.51a.803.803 0 01-.004-.55.7.7 0 01.345-.397l7.475-3.64a.596.596 0 01.499 0 .679.679 0 01.354.378l.774 1.98 13.246 33.494a.66.66 0 010 .32l-.355 10.53a.784.784 0 01-.113.383.677.677 0 01-.28.257.7.7 0 01-.197.058zm-6.558-8.053l5.993 5.825.289-8.883-13.718-34.687-6.308 3.072L17.492 62.27z"/><path d="M16.928 63.42a.603.603 0 01-.41-.157.729.729 0 01-.227-.408.784.784 0 01.058-.477.674.674 0 01.317-.327l7.475-3.64a.587.587 0 01.494-.015.68.68 0 01.359.378.79.79 0 01.012.549.691.691 0 01-.34.398l-7.476 3.64a.576.576 0 01-.262.059zM2.921 27.931a.597.597 0 01-.351-.114.698.698 0 01-.239-.308l-1.154-2.913a2.68 2.68 0 010-1.922c.106-.307.267-.587.471-.825.205-.238.45-.427.723-.558l4.485-2.243a2.096 2.096 0 011.723-.017c.555.242 1.004.712 1.254 1.313L11 23.257a.803.803 0 010 .553.686.686 0 01-.34.393l-7.49 3.64a.55.55 0 01-.249.088zm4.814-7.645c-.131 0-.26.03-.38.087L2.83 22.587a.92.92 0 00-.31.232 1.204 1.204 0 00-.201 1.18l.904 2.272 6.256-3.058-.853-2.286a1.069 1.069 0 00-.361-.466.914.914 0 00-.53-.175zM4.666 32.81a.603.603 0 01-.41-.157.729.729 0 01-.227-.408.784.784 0 01.058-.477.675.675 0 01.316-.327l7.489-3.655a.596.596 0 01.468.031.697.697 0 01.329.37c.065.164.073.35.023.52a.717.717 0 01-.296.404l-7.488 3.64a.576.576 0 01-.262.059z"/></g><defs><clipPath id="clip0"><path fill="#fff" d="M0 0h80v80H0z"/></clipPath></defs></svg>