<svg width="80" height="80" fill="none" xmlns="http://www.w3.org/2000/svg"><path d="M76.383 59.51H3.618a.562.562 0 01-.428-.21.782.782 0 01-.177-.503V9.475a.827.827 0 01.043-.277.736.736 0 01.13-.236.61.61 0 01.197-.158.526.526 0 01.235-.056h72.765a.524.524 0 01.238.052.62.62 0 01.202.157.734.734 0 01.133.238.85.85 0 01.044.28v49.322a.823.823 0 01-.047.276.73.73 0 01-.135.233.606.606 0 01-.2.153.524.524 0 01-.235.05zM4.21 58.054h71.532V10.188H4.21v47.867z" fill="#0B7578" stroke="#0B7578" stroke-miterlimit="10"/><path d="M73.633 51.643H6.368a.527.527 0 01-.234-.056.61.61 0 01-.198-.158.736.736 0 01-.13-.236.826.826 0 01-.043-.277V12.82a.826.826 0 01.043-.277.735.735 0 01.13-.236.61.61 0 01.198-.159.527.527 0 01.234-.055h67.265c.08 0 .16.019.234.055a.61.61 0 01.198.159.73.73 0 01.13.236c.03.088.044.182.042.277V50.9a.829.829 0 01-.039.282.737.737 0 01-.129.241.613.613 0 01-.199.162.527.527 0 01-.237.057zm-66.6-1.454h65.995V13.532H6.972l.062 36.657zm39.319 15.514H33.649a.527.527 0 01-.234-.055.611.611 0 01-.198-.158.734.734 0 01-.13-.236.826.826 0 01-.043-.278v-6.18c0-.093.016-.185.046-.272a.733.733 0 01.131-.231.609.609 0 01.197-.154.526.526 0 01.23-.055h12.704c.08 0 .158.019.231.054.074.036.14.089.196.155a.73.73 0 01.131.231c.03.087.046.18.046.273v6.18a.826.826 0 01-.042.276.736.736 0 01-.13.237.611.611 0 01-.198.158.527.527 0 01-.234.055zM34.265 64.25h11.47v-4.74h-11.47v4.74z" fill="#0B7578" stroke="#0B7578" stroke-miterlimit="10"/><path d="M66.517 72h-.16l-20.091-6.238h-12.53l-20.129 6.15a.533.533 0 01-.417-.112.719.719 0 01-.25-.41.83.83 0 01.044-.503.656.656 0 01.315-.342l20.202-6.18H46.5l20.202 6.18c.156.049.29.167.373.33a.84.84 0 01.07.543.755.755 0 01-.223.427.557.557 0 01-.405.154zm1.751-15.123a1.539 1.539 0 01-.949-.347 1.991 1.991 0 01-.626-.91 2.361 2.361 0 01-.093-1.167 2.15 2.15 0 01.473-1.03 1.65 1.65 0 01.877-.55c.333-.077.677-.036.99.117.312.154.579.413.767.745.187.332.288.722.288 1.121.001.267-.042.532-.129.78a2.063 2.063 0 01-.374.659c-.16.188-.352.337-.562.437-.21.1-.435.15-.662.145zm0-2.602a.459.459 0 00-.349.17.638.638 0 00-.144.411.64.64 0 00.144.411c.093.11.218.17.349.17.13 0 .256-.06.349-.17a.638.638 0 00.144-.41.638.638 0 00-.144-.412.459.459 0 00-.349-.17zm-33.004 1.294h-2.812a.573.573 0 01-.436-.213.798.798 0 01-.18-.514.8.8 0 01.18-.514.573.573 0 01.437-.213h2.811c.164 0 .32.076.436.213.116.136.181.32.181.514a.798.798 0 01-.18.514.573.573 0 01-.437.213zm6.142 0h-2.812a.573.573 0 01-.436-.213.797.797 0 01-.18-.514.8.8 0 01.18-.514.573.573 0 01.436-.213h2.812c.164 0 .32.076.436.213.116.136.18.32.18.514a.797.797 0 01-.18.514.573.573 0 01-.436.213zm6.142 0h-2.812a.573.573 0 01-.436-.213.798.798 0 01-.18-.514.8.8 0 01.18-.514.573.573 0 01.436-.213h2.812c.164 0 .32.076.436.213.116.136.18.32.18.514a.798.798 0 01-.18.514.573.573 0 01-.436.213zm11.223-8.216H21.23c-1.161 0-2.275-.544-3.096-1.511-.82-.968-1.282-2.282-1.282-3.65V21.528c0-1.369.461-2.681 1.282-3.65.821-.968 1.935-1.511 3.096-1.511h37.542c1.162 0 2.275.544 3.096 1.512.821.968 1.283 2.28 1.283 3.65V42.19c0 1.37-.462 2.682-1.283 3.65-.82.968-1.934 1.512-3.096 1.512zM21.23 17.793c-.838.004-1.641.399-2.233 1.1-.592.7-.924 1.648-.924 2.636v20.662c0 .99.332 1.937.924 2.638.592.7 1.395 1.096 2.233 1.1h37.542c.839-.004 1.642-.4 2.234-1.1.591-.7.924-1.649.924-2.638V21.53c0-.988-.333-1.936-.924-2.637-.592-.7-1.395-1.095-2.234-1.1H21.23z" fill="#0B7578" stroke="#0B7578" stroke-miterlimit="10"/><path d="M62.545 29.163h-45.09a.526.526 0 01-.231-.054.609.609 0 01-.196-.154.73.73 0 01-.131-.232.823.823 0 01-.046-.272v-6.922a.83.83 0 01.046-.272.73.73 0 01.131-.231.607.607 0 01.196-.155.525.525 0 01.231-.054h45.09c.16 0 .314.075.428.209a.782.782 0 01.177.503v6.922c0 .189-.064.37-.177.504a.562.562 0 01-.428.208zM18.072 27.71h43.857v-5.467H18.072v5.467zm32.781 8.215H29.147a.574.574 0 01-.436-.213.798.798 0 01-.18-.515c0-.192.065-.377.18-.514a.574.574 0 01.436-.212h21.706c.164 0 .32.076.437.212.115.137.18.322.18.514a.798.798 0 01-.18.515.574.574 0 01-.437.212zm7.66 6.485H46.475a.573.573 0 01-.436-.213.798.798 0 01-.18-.514.8.8 0 01.18-.514.573.573 0 01.436-.213h12.038c.163 0 .32.076.436.212.115.137.18.322.18.515a.798.798 0 01-.18.514.573.573 0 01-.436.213z" fill="#0B7578" stroke="#0B7578" stroke-miterlimit="10"/></svg>