<svg width="80" height="80" fill="none" xmlns="http://www.w3.org/2000/svg"><path d="M73.833 71h-69.8a.599.599 0 01-.61-.56V17.53a.595.595 0 01.61-.62h69.8a.61.61 0 01.61.607v21.146a.595.595 0 01-.61.596h-16.52a4.711 4.711 0 00-3.328 1.375 4.691 4.691 0 000 6.642 4.711 4.711 0 003.328 1.375h16.52a.61.61 0 01.61.608V70.44a.596.596 0 01-.61.56zM4.63 69.783h68.606V49.855H57.312a5.92 5.92 0 01-4.18-1.729 5.894 5.894 0 010-8.344 5.92 5.92 0 014.18-1.729h15.924V18.125H4.63v51.658z" fill="#0B7578" stroke="#0B7578" stroke-miterlimit="10"/><path d="M73.833 18.307h-69.8a.61.61 0 01-.597-.608v-4.051a4.655 4.655 0 011.367-3.283A4.675 4.675 0 018.093 9h61.68a4.68 4.68 0 013.298 1.36 4.654 4.654 0 011.372 3.288v4.051a.607.607 0 01-.61.608zM4.63 17.091h68.606v-3.443a3.452 3.452 0 00-1.019-2.436 3.466 3.466 0 00-2.444-1.008H8.093c-.916 0-1.795.363-2.444 1.008a3.452 3.452 0 00-1.019 2.436v3.443zm71.337 32.764H57.313a5.92 5.92 0 01-4.182-1.728 5.894 5.894 0 010-8.345 5.92 5.92 0 014.181-1.729h18.655a.597.597 0 01.597.609v10.597a.595.595 0 01-.597.596zM57.313 39.258a4.711 4.711 0 00-3.328 1.375 4.691 4.691 0 000 6.642 4.711 4.711 0 003.328 1.375h18.056v-9.392H57.313z" fill="#0B7578" stroke="#0B7578" stroke-miterlimit="10"/><path d="M58.69 46.241a2.296 2.296 0 01-2.119-1.414 2.282 2.282 0 01.503-2.495 2.294 2.294 0 013.734 2.508 2.277 2.277 0 01-2.118 1.401zm0-3.358a1.086 1.086 0 00-1.064 1.294 1.082 1.082 0 001.48.79 1.086 1.086 0 00.001-2.005 1.076 1.076 0 00-.417-.079zM24.418 24.208H12.75a.61.61 0 01-.555-.84.597.597 0 01.555-.377h11.668a.598.598 0 01.61.596.607.607 0 01-.61.621zm20.349 0H33.099a.61.61 0 01-.598-.608.596.596 0 01.598-.597h11.668a.61.61 0 01.61.597.62.62 0 01-.61.608zm20.348 0H53.447a.61.61 0 01-.563-.84.596.596 0 01.563-.364h11.668a.598.598 0 01.424 1.022.61.61 0 01-.424.182zM24.418 66.523H12.75a.598.598 0 01-.423-1.022.61.61 0 01.423-.183h11.668a.61.61 0 01.563.84.597.597 0 01-.563.365zm20.349 0H33.099a.598.598 0 01-.423-1.022.61.61 0 01.423-.183h11.668a.623.623 0 01.61.609.608.608 0 01-.61.596zm20.348 0H53.447a.6.6 0 01-.43-1.027.61.61 0 01.43-.178h11.668a.61.61 0 01.598.609.596.596 0 01-.598.596zm6.682-52.279H6.057a.598.598 0 01-.424-1.022.61.61 0 01.424-.183h65.74a.61.61 0 01.61.609.593.593 0 01-.378.554.598.598 0 01-.232.042z" fill="#0B7578" stroke="#0B7578" stroke-miterlimit="10"/></svg>