<svg width="80" height="80" fill="none" xmlns="http://www.w3.org/2000/svg"><path d="M70.82 8.023c3.728-.276 7.6 1.984 7.6 6.832H64.547v-.696a6.622 6.622 0 011.968-4.306 6.393 6.393 0 014.303-1.83v0zm-12.44 64.28s-47.393.197-51.509 0S1 66.626 1 66.626l12.632.105 39.69.42s0 4.271 5.059 5.152z" stroke="#0B7578" stroke-width="2" stroke-linecap="round" stroke-linejoin="round"/><path d="M53.323 67.152l-39.69-.355V13.278a5.624 5.624 0 011.822-3.845 5.424 5.424 0 013.958-1.41h51.406a6.393 6.393 0 00-4.295 1.82 6.62 6.62 0 00-1.975 4.29 6.27 6.27 0 000 .696V66.35c0 4.35-.426 5.953-6.168 5.953-5.058-.88-5.058-5.151-5.058-5.151z" stroke="#0B7578" stroke-width="2" stroke-linecap="round" stroke-linejoin="round"/><path d="M70.82 8.023c3.728-.276 7.6 1.984 7.6 6.832H64.51a6.32 6.32 0 010-.696 6.621 6.621 0 011.981-4.32 6.392 6.392 0 014.328-1.816v0z" stroke="#0B7578" stroke-width="2" stroke-linecap="round" stroke-linejoin="round"/><path d="M13.632 66.337V13.278a5.624 5.624 0 011.823-3.845 5.424 5.424 0 013.958-1.41h51.445" stroke="#0B7578" stroke-width="2" stroke-linecap="round" stroke-linejoin="round"/><path d="M58.38 72.302c-5.057-.88-5.057-5.255-5.057-5.255l-39.69-.355L1 66.626s1.768 5.48 5.871 5.676c4.103.198 51.51 0 51.51 0zm0 0c5.743 0 6.168-1.603 6.168-5.952V14.04M47.09 55.878H23.335M41.58 44.775H23.336M47.09 33.672H23.335m14.013-11.104H23.335m21.381 0h2.942m4.09 11.104h2.93m-7.42 11.103h2.93m2.851 11.103h2.954" stroke="#0B7578" stroke-width="2" stroke-linecap="round" stroke-linejoin="round"/></svg>