<svg width="80" height="80" fill="none" xmlns="http://www.w3.org/2000/svg"><path d="M71.19 67.493H8.81a.607.607 0 01-.57-.37.601.601 0 01-.047-.233V25.123a.601.601 0 01.617-.602h14.689a.617.617 0 01.617.615.614.614 0 01-.617.615H9.413v40.598h61.174V25.75H56.502a.617.617 0 01-.617-.615.615.615 0 01.617-.615H71.19a.605.605 0 01.604.602V66.89a.6.6 0 01-.604.603z" fill="#0B7578" stroke="#0B7578" stroke-miterlimit="10"/><path d="M72.535 75.182H7.465a4.473 4.473 0 01-3.157-1.304A4.448 4.448 0 013 70.728v-2.755a1.682 1.682 0 011.052-1.56c.206-.085.427-.127.65-.126h70.596a1.695 1.695 0 011.572 1.038c.086.205.13.425.13.648v2.756c0 1.18-.47 2.314-1.308 3.149a4.47 4.47 0 01-3.157 1.304zM4.702 67.493a.47.47 0 00-.481.48v2.756a3.231 3.231 0 002.002 2.989 3.25 3.25 0 001.242.246h65.07a3.244 3.244 0 003.244-3.235v-2.756a.479.479 0 00-.481-.48H4.702z" fill="#0B7578" stroke="#0B7578" stroke-miterlimit="10"/><path d="M40 73.509a2.83 2.83 0 01-2.618-1.73 2.81 2.81 0 01.604-3.075 2.827 2.827 0 014.826 1.988 2.826 2.826 0 01-.826 1.984 2.84 2.84 0 01-1.986.833zm0-4.404a1.606 1.606 0 00-1.482.99 1.596 1.596 0 001.177 2.179 1.607 1.607 0 001.644-.69c.175-.265.267-.576.264-.892A1.597 1.597 0 0040 69.142v-.037zm20.35-49.628h-40.7a.592.592 0 01-.58-.431.602.602 0 01.223-.677L39.654 4.111a.593.593 0 01.69 0l20.301 14.21a.603.603 0 01-.247 1.156h-.049zm-38.85-1.23h36.95L39.95 5.328 21.5 18.246zm6.783 20.901h-4.785a.605.605 0 01-.604-.603v-16.35a.602.602 0 01.604-.602h4.785a.606.606 0 01.605.602v16.35a.602.602 0 01-.605.603zm-4.218-1.23h3.614V22.811h-3.577l-.037 15.107zm18.352 1.23h-4.834a.605.605 0 01-.605-.603v-16.35a.602.602 0 01.605-.602h4.834a.605.605 0 01.605.602v16.35a.602.602 0 01-.605.603zm-4.23-1.23h3.663V22.811h-3.7l.037 15.107zm18.315 1.23h-4.785a.606.606 0 01-.617-.603v-16.35a.603.603 0 01.617-.602h4.822a.606.606 0 01.604.602v16.35a.601.601 0 01-.64.603zm-4.218-1.23h3.614V22.811h-3.614v15.107z" fill="#0B7578" stroke="#0B7578" stroke-miterlimit="10"/><path d="M43.355 22.737h-6.71a.617.617 0 01-.616-.603v-3.26a.615.615 0 01.616-.615h6.71a.618.618 0 01.616.615v3.26a.601.601 0 01-.616.603zm-6.105-1.23h5.5v-2.03h-5.5v2.03zm20.177 1.23h-6.722a.605.605 0 01-.604-.603v-3.26a.6.6 0 01.37-.568.606.606 0 01.234-.047h6.722a.605.605 0 01.604.615v3.26a.602.602 0 01-.604.603zm-6.167-1.23h5.501v-2.03h-5.439l-.062 2.03zm-21.99 1.23h-6.722a.605.605 0 01-.604-.603v-3.26a.603.603 0 01.604-.615h6.722a.605.605 0 01.604.615v3.26a.602.602 0 01-.604.603zm-6.105-1.23h5.5v-2.03h-5.5v2.03zm20.19 20.901h-6.71a.618.618 0 01-.616-.602v-3.26a.614.614 0 01.616-.616h6.71a.617.617 0 01.616.615v3.26a.6.6 0 01-.616.603zm-6.105-1.23h5.5v-2.03h-5.5v2.03zm20.177 1.23h-6.722a.605.605 0 01-.604-.602v-3.26a.6.6 0 01.37-.569.608.608 0 01.234-.047h6.722a.607.607 0 01.604.615v3.26a.6.6 0 01-.604.603zm-6.167-1.23h5.501v-2.03h-5.439l-.062 2.03zm-21.99 1.23h-6.722a.605.605 0 01-.604-.602v-3.26a.603.603 0 01.604-.616h6.722a.607.607 0 01.604.615v3.26a.6.6 0 01-.604.603zm-6.105-1.23h5.5v-2.03h-5.5v2.03z" fill="#0B7578" stroke="#0B7578" stroke-miterlimit="10"/><path d="M60.202 45.84H19.798a.617.617 0 01-.617-.614v-3.42a.603.603 0 01.617-.603h40.404a.604.604 0 01.617.603v3.407a.613.613 0 01-.617.628zm-39.8-1.23h39.196v-2.214H20.402v2.215zM40 16.143a3.385 3.385 0 01-2.422-.882 3.367 3.367 0 01-1.093-2.33 3.502 3.502 0 011.098-2.343 3.52 3.52 0 014.822 0 3.503 3.503 0 011.098 2.344 3.355 3.355 0 01-1.086 2.328 3.372 3.372 0 01-2.417.883zm0-5.216a2.162 2.162 0 00-1.563.529c-.43.376-.693.907-.731 1.476.08.549.357 1.05.778 1.414a2.322 2.322 0 003.81-1.414 2.151 2.151 0 00-.731-1.476 2.162 2.162 0 00-1.563-.53z" fill="#0B7578" stroke="#0B7578" stroke-miterlimit="10"/></svg>