<svg width="80" height="80" fill="none" xmlns="http://www.w3.org/2000/svg"><path d="M67.706 43.204H65.42v2.4h2.285v-2.4zm-5.609 0h-2.285v2.4h2.285v-2.4zm-5.61 0h-2.284v2.4h2.284v-2.4zm0 6.204h-2.284v2.4h2.284v-2.4zm5.61 0h-2.285v2.4h2.285v-2.4zm5.609 0H65.42v2.4h2.285v-2.4zm0 6.216H65.42v2.4h2.285v-2.4zm-5.609 0h-2.285v2.4h2.285v-2.4zm-5.61 0h-2.284v2.4h2.284v-2.4zm11.47-21.24H53.952V40.9h14.005v-6.516z" stroke="#0B7578" stroke-width="2" stroke-linecap="round" stroke-linejoin="round"/><path d="M56.487 45.616v-2.4h-2.284v2.4h2.284zm0 6.204v-2.4h-2.284v2.4h2.284zm0 6.18v-2.4h-2.284V58h2.284zm5.61-12.396v-2.4h-2.285v2.4h2.285zm0 6.204v-2.4h-2.285v2.4h2.285zm0 6.192v-2.4h-2.285V58h2.285zm5.609-12.396v-2.4h-2.284v2.4h2.284zm0 6.204v-2.4h-2.284v2.4h2.284zm0 6.192v-2.4h-2.284V58h2.284zM53.952 40.888h14.017v-6.504H53.952v6.504zm17.402-8.4v27.408a1.43 1.43 0 01-.425.994 1.42 1.42 0 01-.998.41H51.99a1.421 1.421 0 01-1.412-1.404V32.524a1.421 1.421 0 011.411-1.416h17.94a1.423 1.423 0 011.423 1.416v-.036zM34.337 8.116c-.705 0-1.38.28-1.878.78a2.669 2.669 0 000 3.768c.498.5 1.173.78 1.878.78v4.8H21.06v-9.6h4.222V4h9.054v4.116zM47.6 14.584v3.696H34.338v-4.8c.704 0 1.38-.28 1.877-.78a2.669 2.669 0 000-3.768 2.65 2.65 0 00-1.877-.78V4h8.994v4.728h4.222v5.856h.048z" stroke="#0B7578" stroke-width="2" stroke-linecap="round" stroke-linejoin="round"/><path d="M60.016 9.928v21.18h-4.63V14.572h-7.785V9.928h12.415zM26.933 54.736H20.99v5.508h5.944v-5.508zm0-11.748H20.99v5.508h5.944v-5.508zm0-11.736H20.99v5.52h5.944v-5.52z" stroke="#0B7578" stroke-width="2" stroke-linecap="round" stroke-linejoin="round"/><path d="M26.933 60.244v-5.508h-5.98v5.508h5.98zm0-11.748v-5.508h-5.98v5.508h5.98zm0-11.724v-5.52h-5.98v5.52h5.98zm25.045-5.664a1.422 1.422 0 00-1.411 1.416v27.372a1.42 1.42 0 001.411 1.404h3.409v10.044H13.275v-56.76h7.786v3.696H47.6v-3.696h7.786v16.524h-3.409z" stroke="#0B7578" stroke-width="2" stroke-linecap="round" stroke-linejoin="round"/><path d="M55.387 71.344V61.3h4.629V76H8.646V9.928h12.415v4.644h-7.786v56.772h42.112zM47.6 9.928h12.416v21.18" stroke="#0B7578" stroke-width="2" stroke-linecap="round" stroke-linejoin="round"/><path d="M60.016 61.3V76H8.646V9.928h12.415" stroke="#0B7578" stroke-width="2" stroke-linecap="round" stroke-linejoin="round"/><path d="M55.387 61.3v10.044H13.275V14.572h7.786m26.539 0h7.787v16.536" stroke="#0B7578" stroke-width="2" stroke-linecap="round" stroke-linejoin="round"/><path d="M21.06 9.928v-1.2h4.223V4h18.096v4.728H47.6v9.552H21.06V9.928z" stroke="#0B7578" stroke-width="2" stroke-linecap="round" stroke-linejoin="round"/><path d="M34.337 8.116a2.65 2.65 0 012.453 1.645 2.672 2.672 0 01-.576 2.903 2.652 2.652 0 01-4.532-1.884 2.663 2.663 0 01.774-1.887 2.643 2.643 0 011.88-.777v0zm1.793 24.36h11.543M36.13 45.748h11.543M36.13 59.02h11.543m-20.74-27.768H20.99v5.52h5.944v-5.52zm0 11.736H20.99v5.508h5.944v-5.508zm0 11.748H20.99v5.508h5.944v-5.508zM55.387 61.3h-3.409a1.42 1.42 0 01-.99-.414 1.43 1.43 0 01-.421-.99V32.524a1.422 1.422 0 011.411-1.416h17.94a1.423 1.423 0 011.423 1.416v27.372A1.43 1.43 0 0169.92 61.3H55.387z" stroke="#0B7578" stroke-width="2" stroke-linecap="round" stroke-linejoin="round"/><path d="M67.957 34.384H53.952V40.9h14.005v-6.516zm-11.47 8.82h-2.284v2.4h2.284v-2.4zm5.61 0h-2.285v2.4h2.285v-2.4zm5.609 0H65.42v2.4h2.285v-2.4zm-11.219 6.204h-2.284v2.4h2.284v-2.4zm5.61 0h-2.285v2.4h2.285v-2.4zm5.609 0H65.42v2.4h2.285v-2.4zm-11.219 6.216h-2.284v2.4h2.284v-2.4zm5.61 0h-2.285v2.4h2.285v-2.4zm5.609 0H65.42v2.4h2.285v-2.4z" stroke="#0B7578" stroke-width="2" stroke-linecap="round" stroke-linejoin="round"/></svg>