<svg width="80" height="80" fill="none" xmlns="http://www.w3.org/2000/svg"><path d="M40 80c22.091 0 40-17.909 40-40S62.091 0 40 0 0 17.909 0 40s17.909 40 40 40z" fill="#F1F1F1"/><path d="M40 30.413h-2.307v25.334L40 60.373l2.307-4.626V30.413H40z" fill="#0B7578"/><path d="M39.6 30.68l.4 22.36.4-22.36h-.8zm1.293-.333a16.88 16.88 0 00-.306-8.427h-1.174a16.88 16.88 0 00-.306 8.427h1.786z" fill="#0B7578"/><path d="M41.987 21.6a1.987 1.987 0 10-3.973 0 1.987 1.987 0 003.973 0zm7.493 8.44a1.653 1.653 0 00-1.333-1.44 1.628 1.628 0 00-1.547.573.654.654 0 01-.547.24L40 29.08l-6.013.333a.654.654 0 01-.547-.24 1.626 1.626 0 00-1.547-.573 1.654 1.654 0 00.28 3.28 1.693 1.693 0 001.334-.6.614.614 0 01.533-.24l6.013.333 6.014-.333a.614.614 0 01.533.24 1.694 1.694 0 001.333.6 1.664 1.664 0 001.547-1.84zM20 50.827a5.106 5.106 0 009.747 0H20z" fill="#0B7578"/><path d="M20.84 51.36a.173.173 0 01-.12-.227l4-13.333a.16.16 0 01.16-.133.173.173 0 01.173.133l4 13.333a.173.173 0 01-.12.227.186.186 0 01-.226-.12L24.84 38.453 20.987 51.24a.187.187 0 01-.147.12z" fill="#0B7578"/><path d="M24.867 52.853a.173.173 0 01-.174-.173V37.867a.173.173 0 01.174-.174.174.174 0 01.186.174V52.68a.173.173 0 01-.186.173z" fill="#0B7578"/><path d="M39.293 34.067a25.547 25.547 0 00-7.773 2.666 8 8 0 01-7.16.28.44.44 0 00-.592.59.42.42 0 00.139.157c3.306 2.133 7.76.827 7.76.827a13.64 13.64 0 017.626-.467v-4.053zM60 50.827a5.107 5.107 0 01-9.747 0H60z" fill="#0B7578"/><path d="M59.16 51.36a.186.186 0 01-.173-.133L55.133 38.44l-3.866 12.787a.186.186 0 01-.291.088.173.173 0 01-.056-.195l4-13.333a.173.173 0 01.173-.134.16.16 0 01.16.134l4 13.333a.174.174 0 01-.12.227l.027.013z" fill="#0B7578"/><path d="M55.133 52.853a.174.174 0 01-.186-.173V37.867a.173.173 0 01.186-.174.174.174 0 01.174.174V52.68a.174.174 0 01-.174.173z" fill="#0B7578"/><path d="M40.707 34.067a25.546 25.546 0 017.773 2.666 8 8 0 007.16.28.44.44 0 01.592.59.427.427 0 01-.139.157c-3.306 2.133-7.76.827-7.76.827a13.64 13.64 0 00-7.626-.467v-4.053z" fill="#0B7578"/></svg>