<svg width="80" height="80" fill="none" xmlns="http://www.w3.org/2000/svg"><path d="M27.248 49.484A22.237 22.237 0 0111.521 11.51a22.274 22.274 0 0131.5 31.5 22.096 22.096 0 01-15.773 6.475zm0-43.33a21.094 21.094 0 100 42.175A21.095 21.095 0 0035.32 7.75a21 21 0 00-8.072-1.597z" fill="#0B7578" stroke="#0B7578" stroke-miterlimit="10"/><path d="M27.236 46.078a18.83 18.83 0 01-13.312-32.154 18.851 18.851 0 0126.66 26.659 18.667 18.667 0 01-13.348 5.495zm0-36.53a17.71 17.71 0 1012.519 5.192 17.583 17.583 0 00-12.519-5.19zm21.899 40.158a.55.55 0 01-.408-.175l-6.569-6.557a.578.578 0 11.817-.816l6.568 6.591a.583.583 0 01-.408.992v-.035z" fill="#0B7578" stroke="#0B7578" stroke-miterlimit="10"/><path d="M71.022 75a3.92 3.92 0 01-2.811-1.167L46.324 51.946a.569.569 0 010-.816l4.76-4.807a.583.583 0 01.816 0L73.846 68.21A3.978 3.978 0 0171.022 75zM47.583 51.538l21.444 21.49a2.917 2.917 0 004.002 0 2.859 2.859 0 000-4.013L51.54 47.583l-3.956 3.955zm-31.64-17.664a.573.573 0 01-.572-.583v-4.9a.583.583 0 011.167 0v4.9a.583.583 0 01-.595.583zm5.647 0a.57.57 0 01-.572-.583V22.604a.583.583 0 111.167 0V33.29a.584.584 0 01-.595.583zm5.658 0a.583.583 0 01-.583-.583v-7.327a.583.583 0 01.583-.572.572.572 0 01.572.572v7.327a.571.571 0 01-.572.583zm5.647 0a.583.583 0 01-.583-.583v-5.04a.583.583 0 111.166 0v5.04a.573.573 0 01-.583.583zm5.646 0a.583.583 0 01-.583-.583V21.192a.583.583 0 011.167 0v12.099a.571.571 0 01-.584.583z" fill="#0B7578" stroke="#0B7578" stroke-miterlimit="10"/></svg>