<svg width="80" height="80" fill="none" xmlns="http://www.w3.org/2000/svg"><path d="M49.998 65h-18.2a.589.589 0 01-.587-.584v-1.55a2.128 2.128 0 01.646-1.528 2.148 2.148 0 011.548-.608H48.44c.569 0 1.115.225 1.517.625.402.4.629.944.629 1.51v1.55a.583.583 0 01-.588.585zm-17.612-1.193h17.025v-.966a.949.949 0 00-.6-.885.962.962 0 00-.371-.069H33.405a.962.962 0 00-.897.586.95.95 0 00-.074.368l-.048.966z" fill="#0B7578" stroke="#0B7578" stroke-miterlimit="10"/><path d="M44.627 61.91h-7.433a.627.627 0 01-.443-.19.608.608 0 01-.156-.441l3.716-45.683a.595.595 0 01.6-.596.6.6 0 01.6.596l3.704 45.6a.922.922 0 010 .19.583.583 0 01-.588.525zm-6.797-1.192h6.138l-3.07-37.822-3.068 37.822z" fill="#0B7578" stroke="#0B7578" stroke-miterlimit="10"/><path d="M66.171 19.174H16.057a.59.59 0 01-.586-.349.595.595 0 01.539-.832h50.113a.6.6 0 01.588.597.583.583 0 01-.54.584zM14.943 50.341a10.969 10.969 0 01-4.182-.833 10.924 10.924 0 01-3.542-2.362 10.861 10.861 0 01-2.363-3.532 10.817 10.817 0 01-.823-4.163v-.202a.702.702 0 01.192-.454.601.601 0 01.407-.155l10.323.25h10.298a.587.587 0 01.588.597 10.837 10.837 0 01-3.195 7.667 10.95 10.95 0 01-7.703 3.187zM5.22 39.833a9.663 9.663 0 002.961 6.51 9.76 9.76 0 006.643 2.717 9.763 9.763 0 006.708-2.553 9.666 9.666 0 003.122-6.435h-9.711l-9.723-.239z" fill="#0B7578" stroke="#0B7578" stroke-miterlimit="10"/><path d="M22.052 40.072a.601.601 0 01-.575-.43l-5.54-19.275-8.391 19.204a.588.588 0 01-.78.298.589.589 0 01-.3-.776l9.052-20.742a.585.585 0 01.576-.37.565.565 0 01.527.418l5.995 20.897a.57.57 0 01-.408.728l-.156.047zm-4.52 7.442a.589.589 0 01-.575-.525.584.584 0 01.515-.655 4.231 4.231 0 002.904-1.208 4.188 4.188 0 001.256-2.872.595.595 0 01.6-.596.6.6 0 01.6.596 5.377 5.377 0 01-1.564 3.651 5.432 5.432 0 01-3.652 1.597l-.084.012zm47.524 2.827a10.969 10.969 0 01-4.181-.833 10.924 10.924 0 01-3.542-2.362 10.86 10.86 0 01-2.363-3.532 10.819 10.819 0 01-.823-4.163v-.262a.56.56 0 01.18-.417.66.66 0 01.431-.167l10.31.25h10.299a.59.59 0 01.546.369.57.57 0 01.041.227 10.816 10.816 0 01-.822 4.16 10.86 10.86 0 01-2.36 3.53 10.926 10.926 0 01-3.538 2.364 10.97 10.97 0 01-4.177.836zm-9.723-10.508a9.663 9.663 0 002.962 6.51 9.76 9.76 0 006.642 2.717 9.763 9.763 0 006.709-2.553 9.666 9.666 0 003.121-6.435h-9.71l-9.724-.239z" fill="#0B7578" stroke="#0B7578" stroke-miterlimit="10"/><path d="M72.166 40.072a.59.59 0 01-.576-.43l-5.538-19.275-8.393 19.204a.589.589 0 01-.78.298.59.59 0 01-.299-.776l9.052-20.741a.586.586 0 01.577-.35.589.589 0 01.526.421l5.994 20.897a.582.582 0 01-.407.728l-.156.024zm-4.52 7.442a.601.601 0 01-.588-.524.595.595 0 01.528-.656 4.243 4.243 0 002.916-1.203 4.2 4.2 0 001.268-2.877.583.583 0 01.588-.584.601.601 0 01.599.584 5.378 5.378 0 01-1.568 3.655 5.433 5.433 0 01-3.66 1.593l-.083.012z" fill="#0B7578" stroke="#0B7578" stroke-miterlimit="10"/></svg>