<svg width="80" height="80" fill="none" xmlns="http://www.w3.org/2000/svg"><path d="M39.82 76.333a32.323 32.323 0 01-17.867-5.39 31.997 31.997 0 01-11.842-14.34 31.747 31.747 0 01-1.825-18.459 31.882 31.882 0 018.806-16.355 32.236 32.236 0 0116.47-8.74 32.37 32.37 0 0118.584 1.82A32.12 32.12 0 0166.58 26.636 31.794 31.794 0 0172 44.385a31.887 31.887 0 01-9.44 22.58 32.327 32.327 0 01-22.74 9.368zm0-62.71a31.122 31.122 0 00-17.206 5.184 30.809 30.809 0 00-11.407 13.806 30.568 30.568 0 00-1.763 17.773 30.697 30.697 0 008.476 15.75 31.038 31.038 0 0015.859 8.42 31.17 31.17 0 0017.894-1.751 30.928 30.928 0 0013.9-11.33 30.614 30.614 0 005.22-17.09 30.68 30.68 0 00-9.079-21.745 31.104 31.104 0 00-21.893-9.017z" fill="#0B7578" stroke="#0B7578" stroke-miterlimit="10"/><path d="M39.82 73.523a29.492 29.492 0 01-16.29-4.943 29.193 29.193 0 01-10.783-13.097 28.966 28.966 0 01-1.643-16.84 29.09 29.09 0 018.05-14.909 29.414 29.414 0 0115.032-7.958 29.536 29.536 0 0116.95 1.674 29.308 29.308 0 0113.16 10.742 29.01 29.01 0 014.936 16.193A29.088 29.088 0 0160.599 65a29.49 29.49 0 01-20.778 8.523zm0-57.09a28.28 28.28 0 00-15.62 4.734 27.993 27.993 0 00-10.344 12.554 27.775 27.775 0 00-1.582 16.146 27.894 27.894 0 007.714 14.3 28.203 28.203 0 0014.41 7.636 28.322 28.322 0 0016.254-1.599A28.103 28.103 0 0063.273 59.91a27.817 27.817 0 004.74-15.524 27.811 27.811 0 00-2.14-10.72 27.963 27.963 0 00-6.11-9.087 28.18 28.18 0 00-9.15-6.069 28.335 28.335 0 00-10.792-2.125v.049z" fill="#0B7578" stroke="#0B7578" stroke-miterlimit="10"/><path d="M39.602 23.348a.6.6 0 01-.598-.593v-5.62a.604.604 0 01.61-.605.612.612 0 01.61.605v5.62a.588.588 0 01-.386.555.6.6 0 01-.236.038zm10.913 2.786a.54.54 0 01-.293-.085.584.584 0 01-.298-.592.578.578 0 01.079-.22l2.828-4.844a.594.594 0 01.596-.292.602.602 0 01.5.435.59.59 0 01-.059.45l-2.829 4.845a.608.608 0 01-.524.303zm8.06 7.847a.613.613 0 01-.525-.302.589.589 0 01.22-.812l4.877-2.822a.612.612 0 01.965.424.6.6 0 01-.355.618l-4.878 2.81a.514.514 0 01-.304.084zm8.682 10.779h-5.658a.612.612 0 01-.61-.606.603.603 0 01.61-.605h5.658a.604.604 0 110 1.211zm-3.561 13.649a.663.663 0 01-.304-.073l-4.878-2.822a.595.595 0 01-.22-.811.598.598 0 01.818-.218l4.877 2.81a.596.596 0 01.3.601.59.59 0 01-.08.222.571.571 0 01-.513.291zm-9.962 10.052a.602.602 0 01-.525-.29l-2.828-4.845a.602.602 0 01.674-.876.587.587 0 01.362.283l2.841 4.844a.614.614 0 01-.22.823.701.701 0 01-.304.061zM40.04 72.228a.6.6 0 01-.597-.594v-5.595a.604.604 0 01.61-.606c.161 0 .316.064.43.178a.604.604 0 01.18.428v5.62a.589.589 0 01-.392.533.601.601 0 01-.23.036zm-13.742-3.537a.606.606 0 01-.524-.896l2.841-4.844a.598.598 0 01.602-.289.604.604 0 01.498.441.594.594 0 01-.064.453L26.823 68.4a.62.62 0 01-.525.291zm-10.12-9.919a.613.613 0 01-.525-.303.602.602 0 01.22-.811l4.877-2.81a.602.602 0 01.817.218.59.59 0 01-.22.812l-4.865 2.894a.575.575 0 01-.304 0zm1.84-13.576h-5.633a.612.612 0 01-.61-.606.603.603 0 01.61-.605h5.633a.603.603 0 110 1.211zm2.842-10.839a.675.675 0 01-.305-.085l-4.878-2.81a.583.583 0 01-.298-.591.578.578 0 01.079-.22.596.596 0 01.817-.218l4.877 2.81a.595.595 0 01.292.67.593.593 0 01-.584.444zm7.889-8.005a.6.6 0 01-.524-.291l-2.83-4.845a.592.592 0 01.22-.823.614.614 0 01.817.218l2.829 4.844a.578.578 0 01-.22.812.613.613 0 01-.292.085zm12.864-12.729h-3.585a.6.6 0 01-.597-.593V6.32a.592.592 0 01.597-.593h3.585a.601.601 0 01.563.363.59.59 0 01.047.23v6.71a.59.59 0 01-.377.551.601.601 0 01-.233.042zm-2.987-1.211h2.439V6.926h-2.44v5.486z" fill="#0B7578" stroke="#0B7578" stroke-miterlimit="10"/><path d="M44.722 6.926h-9.754a.612.612 0 01-.61-.606V4.273a.59.59 0 01.377-.551.601.601 0 01.233-.042h9.754a.6.6 0 01.598.593v2.06a.592.592 0 01-.598.593zm-9.194-1.211h8.597v-.848H35.59l-.062.848zM51.88 44.978H39.82a.636.636 0 01-.487-.254l-9.499-13.225a.58.58 0 01.147-.824.588.588 0 01.829.133l9.328 12.971H51.88a.604.604 0 110 1.211v-.012zm6.378-25.518a.637.637 0 01-.354-.109 32.632 32.632 0 00-3.829-2.337.584.584 0 01-.329-.533v-3.258a.589.589 0 01.369-.548.6.6 0 01.229-.045h3.914a.6.6 0 01.597.593v5.644a.6.6 0 01-.597.593zm-3.378-3.33a30.105 30.105 0 012.768 1.635v-3.936h-2.792l.024 2.3z" fill="#0B7578" stroke="#0B7578" stroke-miterlimit="10"/></svg>