<svg width="80" height="80" fill="none" xmlns="http://www.w3.org/2000/svg"><path d="M72.57 78h-.554a.601.601 0 01-.554-.342l-2.806-5.574-2.794 5.574a.631.631 0 01-.554.342h-.264a.601.601 0 01-.554-.342l-2.668-5.283-2.656 5.283a.607.607 0 01-.553.342h-.227a.601.601 0 01-.553-.342l-2.908-5.764-2.894 5.764a.607.607 0 01-.554.342h-.402a.626.626 0 01-.554-.342l-2.895-5.764-2.907 5.764a.607.607 0 01-.554.342h-.88a.601.601 0 01-.554-.342l-2.907-5.764-2.882 5.751a.606.606 0 01-.554.342.601.601 0 01-.554-.342l-2.894-5.751-2.844 5.764a.607.607 0 01-.554.342h-.151a.601.601 0 01-.554-.342l-2.894-5.764-2.908 5.764a.607.607 0 01-.553.342h-.151a.627.627 0 01-.554-.342l-3.008-5.764-2.894 5.764a.631.631 0 01-.554.342h-.327a.601.601 0 01-.554-.342l-2.894-5.764-2.895 5.764a.632.632 0 01-.554.342h-.654a.614.614 0 01-.585-.39.625.625 0 01-.044-.244V8.334A6.067 6.067 0 018.339 3.98a5.96 5.96 0 014.138-1.992H68.58a4.909 4.909 0 013.367 1.65 4.974 4.974 0 011.239 3.557v70.172a.623.623 0 01-.378.585.614.614 0 01-.239.049zm-28.946-1.267h.126l3.285-6.512a.594.594 0 01.54-.342.589.589 0 01.542.342l3.108 6.157 3.096-6.157a.631.631 0 01.554-.342.601.601 0 01.554.342l3.02 5.98 2.769-5.498a.632.632 0 01.554-.342.601.601 0 01.553.342l2.794 5.536 2.932-5.828a.631.631 0 01.554-.342.601.601 0 01.554.342l2.73 5.422V7.194a3.728 3.728 0 00-.876-2.667A3.68 3.68 0 0068.53 3.24H12.477a4.734 4.734 0 00-3.208 1.636A4.796 4.796 0 008.122 8.31v67.65l2.895-5.751a.607.607 0 01.554-.343.627.627 0 01.553.343l3.096 6.157 3.096-6.157a.631.631 0 01.453-.317.601.601 0 01.554.342l3.02 5.866 2.983-5.917a.644.644 0 01.554-.32.64.64 0 01.553.32l2.97 5.917 2.983-5.917a.606.606 0 01.554-.342.625.625 0 01.553.342l2.895 5.802 2.882-5.751a.644.644 0 01.554-.32.639.639 0 01.553.32l3.247 6.499z" fill="#0B7578" stroke="#0B7578" stroke-miterlimit="10"/><path d="M57.845 42.033a10.985 10.985 0 01-6.135-1.866 11.094 11.094 0 01-4.07-4.984 11.18 11.18 0 01-.634-6.42 11.134 11.134 0 013.018-5.692 11.014 11.014 0 015.651-3.045c2.141-.43 4.361-.21 6.379.63a11.054 11.054 0 014.955 4.093 11.163 11.163 0 011.86 6.174 11.174 11.174 0 01-3.235 7.844 11.026 11.026 0 01-7.789 3.266zm0-20.98a9.757 9.757 0 00-5.453 1.651 9.855 9.855 0 00-3.622 4.424 9.931 9.931 0 00-.568 5.704 9.89 9.89 0 002.677 5.06A9.784 9.784 0 0055.9 40.6a9.744 9.744 0 005.667-.557 9.817 9.817 0 004.404-3.635 9.916 9.916 0 001.654-5.485 9.915 9.915 0 00-2.866-6.966 9.784 9.784 0 00-6.913-2.903z" fill="#0B7578" stroke="#0B7578" stroke-miterlimit="10"/><path d="M58.437 34.9c.39-.077.74-.287.994-.595a1.62 1.62 0 00.378-1.051 1.463 1.463 0 00-.315-.95 2.023 2.023 0 00-1.057-.609v3.206zm-1.183-8.715a1.499 1.499 0 00-.755.57 1.413 1.413 0 00-.277.861c.002.29.09.572.252.81.202.267.471.473.78.596v-2.837zm0 8.576v-3.42a4.386 4.386 0 01-2.328-1.381 3.5 3.5 0 01-.73-2.243 3.243 3.243 0 01.83-2.293 3.338 3.338 0 012.228-1.038v-.824h1.183v.823a3.361 3.361 0 012.064.875c.528.531.872 1.22.982 1.963l-2.064.266a1.678 1.678 0 00-.982-1.267v3.18c1 .2 1.925.678 2.668 1.381.508.631.76 1.432.705 2.243.041.93-.28 1.838-.894 2.533a3.942 3.942 0 01-2.517 1.267v1.533h-1.183v-1.634a3.765 3.765 0 01-2.278-1.052 4.257 4.257 0 01-1.12-2.47l2.152-.177c.08.407.248.792.491 1.127.217.259.488.467.793.608zM38.25 23.233H13.497a.627.627 0 01-.616-.634.615.615 0 01.617-.62H38.25a.611.611 0 01.581.38.636.636 0 01-.136.689.627.627 0 01-.445.185zm0 8.69H13.497a.615.615 0 01-.616-.62.635.635 0 01.616-.634h24.755a.636.636 0 01.581.874.62.62 0 01-.581.38zm0 8.704H13.497a.627.627 0 01-.444-.186.636.636 0 01.444-1.081h24.755a.63.63 0 01.445.185.636.636 0 01-.445 1.082zm0 8.691H13.497a.627.627 0 01-.444-.186.636.636 0 01.444-1.081h24.755c.167 0 .327.066.445.185a.636.636 0 01-.445 1.082zm0 8.69H13.497a.615.615 0 01-.616-.62.635.635 0 01.616-.634h24.755a.636.636 0 01.581.874.62.62 0 01-.581.38z" fill="#0B7578" stroke="#0B7578" stroke-miterlimit="10"/></svg>