<svg width="80" height="80" fill="none" xmlns="http://www.w3.org/2000/svg"><path d="M74.416 75H5.584A.57.57 0 015 74.416V5.584A.572.572 0 015.583 5h68.834a.572.572 0 01.583.583v68.834a.57.57 0 01-.584.583zM6.144 73.833H73.81V6.167H6.143v67.666z" fill="#0B7578" stroke="#0B7578" stroke-miterlimit="10"/><path d="M67.825 68.397h-55.65a.572.572 0 01-.571-.572v-55.65a.572.572 0 01.571-.572h55.65a.573.573 0 01.584.572v55.65a.573.573 0 01-.584.572zM12.747 67.23h54.507V12.747H12.747V67.23z" fill="#0B7578" stroke="#0B7578" stroke-miterlimit="10"/><path d="M40 49.263A9.263 9.263 0 1149.263 40 9.275 9.275 0 0140 49.263zm0-17.371a8.167 8.167 0 100 16.334 8.167 8.167 0 000-16.334z" fill="#0B7578" stroke="#0B7578" stroke-miterlimit="10"/><path d="M40 31.892a.569.569 0 01-.571-.584V20.4a.572.572 0 111.143 0v10.908a.583.583 0 01-.583.584H40zm19.6 8.691H48.75a.584.584 0 010-1.166H59.6a.583.583 0 010 1.166zM40 60.172a.572.572 0 01-.583-.572V48.75a.571.571 0 01.572-.583.57.57 0 01.595.583V59.6a.57.57 0 01-.584.572zm-8.68-19.589H20.4a.584.584 0 010-1.166h10.92a.583.583 0 010 1.166zm14.828-6.148a.55.55 0 01-.408-.175.574.574 0 010-.817l5.343-5.32a.56.56 0 01.817 0 .572.572 0 010 .805l-5.343 5.332a.536.536 0 01-.409.175zm5.332 17.617a.606.606 0 01-.408-.164l-5.332-5.331a.571.571 0 01-.006-.811.574.574 0 01.811-.006l5.343 5.343a.584.584 0 01-.408.98v-.011zm-22.948 0a.607.607 0 01-.409-.164.584.584 0 010-.816l5.332-5.332a.571.571 0 01.805 0 .56.56 0 010 .817l-5.343 5.32a.572.572 0 01-.385.175zm5.332-17.617a.583.583 0 01-.409-.175l-5.331-5.343a.571.571 0 010-.805.56.56 0 01.816 0l5.332 5.32a.583.583 0 010 .816.57.57 0 01-.408.187zM40 44.527a4.527 4.527 0 110-9.053 4.527 4.527 0 010 9.053zm0-7.899a3.372 3.372 0 10.023 6.744A3.372 3.372 0 0040 36.628z" fill="#0B7578" stroke="#0B7578" stroke-miterlimit="10"/></svg>