<svg width="130" height="130" fill="none" xmlns="http://www.w3.org/2000/svg"><path d="M83.641 116.213a4.619 4.619 0 00-1.357-3.202 4.562 4.562 0 00-3.197-1.332H51.703a4.565 4.565 0 00-3.217 1.353 4.62 4.62 0 00-1.337 3.241 4.62 4.62 0 001.341 3.233 4.567 4.567 0 003.213 1.349h27.384a4.572 4.572 0 004.218-2.874 4.613 4.613 0 00.336-1.768v0zm-6.076-4.582a3.053 3.053 0 003.044-3.062 3.053 3.053 0 00-3.044-3.063H53.237a3.053 3.053 0 00-3.044 3.063 3.053 3.053 0 003.044 3.062h24.328zm27.986-83.505v-.012c0-1.882-1.516-3.407-3.386-3.407H28.638c-1.87 0-3.386 1.525-3.386 3.407v.012c0 1.881 1.516 3.406 3.386 3.406h73.527c1.87 0 3.386-1.525 3.386-3.406zM61.744 13.692a3.702 3.702 0 01.61-2.048 3.658 3.658 0 011.64-1.36 3.637 3.637 0 013.99.79 3.7 3.7 0 01.798 4.011 3.675 3.675 0 01-1.347 1.653 3.644 3.644 0 01-2.034.621 3.626 3.626 0 01-2.585-1.07 3.67 3.67 0 01-1.072-2.597v0zm-40.15 18.351c2.014 0 3.646-1.642 3.646-3.668 0-2.026-1.632-3.668-3.646-3.668-2.013 0-3.645 1.642-3.645 3.668 0 2.026 1.632 3.668 3.645 3.668zm87.602 0c2.014 0 3.646-1.642 3.646-3.668 0-2.026-1.632-3.668-3.646-3.668-2.013 0-3.645 1.642-3.645 3.668 0 2.026 1.632 3.668 3.645 3.668zM21.594 87.132a14.55 14.55 0 0010.307-4.276 14.728 14.728 0 004.3-10.348H7a14.728 14.728 0 004.295 10.344 14.55 14.55 0 0010.3 4.28zm87.626 0a14.546 14.546 0 0010.291-4.284 14.73 14.73 0 004.292-10.34h-29.2a14.728 14.728 0 004.303 10.353 14.55 14.55 0 0010.314 4.27z" stroke="#0B7578" stroke-width="2.71" stroke-linecap="round" stroke-linejoin="round"/><path d="M22.562 31.307l-.968-2.932-.967 2.932" stroke="#0B7578" stroke-width="2.71" stroke-linecap="round" stroke-linejoin="round"/><path d="M18.822 36.767L8.864 66.798" stroke="#0B7578" stroke-width="2.71" stroke-linecap="round" stroke-linejoin="round" stroke-dasharray="4.85 4.85"/><path d="M7.967 69.528L7 72.448h3.056" stroke="#0B7578" stroke-width="2.71" stroke-linecap="round" stroke-linejoin="round"/><path d="M17.748 72.448h11.539" stroke="#0B7578" stroke-width="2.71" stroke-linecap="round" stroke-linejoin="round" stroke-dasharray="6.52 6.52"/><path d="M33.133 72.448h3.068l-.968-2.92" stroke="#0B7578" stroke-width="2.71" stroke-linecap="round" stroke-linejoin="round"/><path d="M33.416 64.068l-9.945-30.031" stroke="#0B7578" stroke-width="2.71" stroke-linecap="round" stroke-linejoin="round" stroke-dasharray="4.85 4.85"/><path d="M110.164 31.307l-.968-2.932-.967 2.932" stroke="#0B7578" stroke-width="2.71" stroke-linecap="round" stroke-linejoin="round"/><path d="M106.424 36.767l-9.958 30.031" stroke="#0B7578" stroke-width="2.71" stroke-linecap="round" stroke-linejoin="round" stroke-dasharray="4.85 4.85"/><path d="M95.57 69.528l-.968 2.92h3.056" stroke="#0B7578" stroke-width="2.71" stroke-linecap="round" stroke-linejoin="round"/><path d="M105.35 72.448h11.539" stroke="#0B7578" stroke-width="2.71" stroke-linecap="round" stroke-linejoin="round" stroke-dasharray="6.52 6.52"/><path d="M120.735 72.448h3.068l-.98-2.92" stroke="#0B7578" stroke-width="2.71" stroke-linecap="round" stroke-linejoin="round"/><path d="M121.018 64.068l-9.945-30.031" stroke="#0B7578" stroke-width="2.71" stroke-linecap="round" stroke-linejoin="round" stroke-dasharray="4.85 4.85"/><path d="M72.704 72.448H58.098v33.046h14.606V72.448zM69.047 17.36h-7.303v7.347h7.303v-7.348z" stroke="#0B7578" stroke-width="2.71" stroke-linecap="round" stroke-linejoin="round"/><path d="M69.047 32.054h-7.303v40.394h7.303V32.054z" stroke="#0B7578" stroke-width="2.71" stroke-linecap="round" stroke-linejoin="round"/></svg>