<svg width="130" height="130" fill="none" xmlns="http://www.w3.org/2000/svg"><path d="M95.029 69.57c2.057 0 3.724-1.64 3.724-3.664 0-2.023-1.667-3.663-3.724-3.663H34.724c-2.057 0-3.724 1.64-3.724 3.663 0 2.023 1.667 3.663 3.724 3.663H95.03zM64.876 30.353c6.771 0 12.26-5.228 12.26-11.676C77.136 12.227 71.647 7 64.876 7c-6.77 0-12.259 5.228-12.259 11.677 0 6.448 5.489 11.676 12.26 11.676zM43.7 61.503V40.807c0-5.75 5.11-10.454 11.364-10.454h19.672c6.243 0 11.364 4.704 11.364 10.454v20.696M52.164 38.702v22.53m25.413-22.53v22.53" stroke="#0B7578" stroke-width="2.71" stroke-linecap="round" stroke-linejoin="round"/><path d="M93.107 69.57h-59.29v54.232h59.29V69.569z" stroke="#0B7578" stroke-width="2.71" stroke-linecap="round" stroke-linejoin="round"/><path d="M86.757 73.744h-46.59v45.895h46.59V73.744z" stroke="#0B7578" stroke-width="2.71" stroke-linecap="round" stroke-linejoin="round"/></svg>