<svg width="130" height="130" fill="none" xmlns="http://www.w3.org/2000/svg"><path d="M113.598 118.701c-.003-1.347-.571-2.638-1.579-3.59a5.55 5.55 0 00-3.799-1.492H21.378a5.55 5.55 0 00-3.8 1.492c-1.007.952-1.575 2.243-1.578 3.59v0c.003 1.347.571 2.638 1.579 3.59a5.55 5.55 0 003.8 1.492h86.841a5.55 5.55 0 003.799-1.492c1.008-.952 1.576-2.243 1.579-3.59v0z" stroke="#0B7578" stroke-width="2.71" stroke-linecap="round" stroke-linejoin="round"/><path d="M109.158 110.238a3.3 3.3 0 00-1.038-2.386 3.702 3.702 0 00-2.515-1.006H24.017a3.713 3.713 0 00-2.534.997 3.314 3.314 0 00-1.055 2.395v0a3.3 3.3 0 001.056 2.391c.672.634 1.584.99 2.533.99h81.588a3.702 3.702 0 002.51-1.002 3.303 3.303 0 001.043-2.379v0zm-77.636-57.89v50.303" stroke="#0B7578" stroke-width="2.71" stroke-linecap="round" stroke-linejoin="round"/><path d="M35.95 48.152h-8.868v58.694h8.868V48.152zm17.76 4.196v50.303m0-50.303v50.303m4.429-54.499H49.27v58.694h8.868V48.152zm22.188 4.196v50.303m-4.44-50.303v50.303m4.428-54.499h-8.868v58.694h8.868V48.152zm17.761 4.196v50.303m4.427-54.499h-8.868v58.694h8.868V48.152z" stroke="#0B7578" stroke-width="2.71" stroke-linecap="round" stroke-linejoin="round"/><path d="M113.598 43.968c0-1.113-.468-2.18-1.301-2.967a4.573 4.573 0 00-3.139-1.228h-88.73a4.573 4.573 0 00-3.132 1.233A4.082 4.082 0 0016 43.968v0a4.083 4.083 0 001.3 2.955 4.574 4.574 0 003.128 1.23h88.73a4.576 4.576 0 003.135-1.225 4.083 4.083 0 001.305-2.96zM68.32 8.369A5.156 5.156 0 0064.799 7a5.156 5.156 0 00-3.521 1.369l-36.41 27.184h79.862L68.32 8.369z" stroke="#0B7578" stroke-width="2.71" stroke-linecap="round" stroke-linejoin="round"/><path d="M70.57 29.358c3.718-3.013 4.146-8.303.958-11.816-3.189-3.513-8.787-3.918-12.505-.905-3.717 3.013-4.146 8.303-.958 11.816 3.189 3.513 8.788 3.918 12.505.905zm-47.916 6.219h84.29a2.293 2.293 0 011.566.62c.415.394.648.927.648 1.483v0c0 .555-.234 1.087-.649 1.48a2.28 2.28 0 01-1.565.613h-84.29c-.588 0-1.153-.22-1.57-.613a2.048 2.048 0 01-.656-1.48v0c0-.557.234-1.093.652-1.487a2.294 2.294 0 011.574-.616v0z" stroke="#0B7578" stroke-width="2.71" stroke-linecap="round" stroke-linejoin="round"/></svg>