<svg width="192" height="73" fill="none" xmlns="http://www.w3.org/2000/svg"><path d="M24.788 5.84h-3.781c-5.672 0-10.924 3.754-10.924 14.391 0 10.22 5.042 13.558 10.924 13.558h3.78V5.84zm-5.672 33.789L7.982 64.03H0l12.184-26.28c-5.672-2.92-9.453-8.134-9.453-17.728C2.52 6.674 11.133 0 21.427 0H31.72v64.031h-6.932V39.63h-5.672z" fill="#EE322D"/><path d="M167.002 41.506c0-14.183 5.462-23.152 16.175-23.152 3.991 0 6.512 1.043 8.403 2.295l-1.051 6.674c-1.89-1.669-4.621-3.129-7.562-3.129-5.042 0-8.613 5.632-8.613 17.103 0 11.263 2.731 17.729 8.403 17.729 3.361 0 6.092-1.252 7.772-2.712l1.681 5.215c-2.521 2.085-5.252 3.337-9.453 3.337-9.873-.209-15.755-7.926-15.755-23.36zm-20.587.208V64.24h-7.142V18.98h7.142v20.857l10.924-20.857h7.142l-11.343 21.274 12.814 23.777h-7.773l-11.764-22.317zm-33.19-4.38h11.554c0-7.717-1.261-13.348-5.252-13.348-4.411 0-5.882 5.423-6.302 13.348zm7.773 27.323c-9.453 0-15.125-7.508-15.125-21.274 0-14.6 3.991-25.029 13.654-25.029 7.562 0 12.604 5.632 12.604 21.066v3.754h-18.906c0 10.22 2.941 15.643 8.403 15.643 3.991 0 7.142-1.877 9.033-3.128l1.68 5.422c-3.151 2.295-6.932 3.546-11.343 3.546zm-30.04-40.045h-7.772v.834c0 9.594-.42 23.36-4.202 32.954h12.184V24.612h-.21zM101.461 73h-6.302v-8.969H75.623v8.97h-6.302V58.4h2.731c4.201-9.595 4.622-23.57 4.622-35.667V18.98H97.89V58.4h3.571V73zm-36.13-54.02v45.26h-6.933V43.8H47.895v20.231h-7.143v-45.05h7.143v19.188h10.503V18.98h6.932z" fill="#333"/></svg>