<svg width="192" height="63" fill="none" xmlns="http://www.w3.org/2000/svg"><path d="M23.642 0h1.791c5.91.18 11.82 2.52 15.94 6.84l-4.656 4.68c-2.329-2.16-5.194-3.78-8.24-4.32-4.656-.9-9.492-.18-13.253 2.52-4.12 2.7-6.985 7.38-7.701 12.42-.717 4.86.537 9.9 3.76 13.86 3.046 3.78 7.702 6.12 12.538 6.3 4.478.18 9.134-1.08 12.537-4.32 2.508-2.16 3.762-5.58 4.12-9h-16.12v-6.66h22.568c1.074 7.2-.538 15.3-5.91 20.34-3.583 3.6-8.598 5.76-13.613 6.12-5.015.54-10.03-.54-14.328-2.88-5.194-2.88-9.493-7.56-11.463-13.14-1.97-5.22-1.97-10.98-.179-16.2 1.612-4.68 4.836-8.82 8.776-11.88C14.15 1.8 18.806.36 23.642 0z" fill="#3780FF"/><path d="M152.776 1.62h6.806v46.26h-6.806c.179-15.3 0-30.78 0-46.26z" fill="#38B137"/><path d="M62.328 17.64c4.299-.72 8.776.18 12.359 2.7 3.224 2.34 5.373 5.76 6.09 9.72.895 4.5-.18 9.36-3.046 12.96-3.044 3.96-8.238 6.12-13.253 5.76a15.002 15.002 0 01-11.642-6.3c-3.045-4.14-3.761-9.9-2.15-14.76 1.612-5.04 6.27-9 11.642-10.08zm1.075 6.3c-1.791.54-3.403 1.44-4.478 2.88-3.044 3.78-2.865 9.9.538 13.32 1.97 1.98 5.015 2.88 7.701 2.34 2.508-.54 4.836-2.16 5.91-4.5 2.15-3.78 1.433-9.18-1.79-12.24-2.15-1.8-5.194-2.52-7.881-1.8z" fill="#FA3913"/><path d="M96.537 17.64c4.836-.9 10.209.36 13.791 3.78 5.911 5.4 6.627 15.3 1.433 21.42-3.045 3.96-8.059 5.94-12.895 5.76-4.657-.18-9.314-2.52-12-6.3-3.045-4.32-3.761-10.08-1.97-14.94 1.79-4.86 6.447-8.82 11.641-9.72zm.896 6.3c-1.791.54-3.403 1.44-4.478 2.88-3.044 3.78-3.044 9.72.358 13.32 1.97 2.16 5.015 3.06 7.881 2.52 2.508-.54 4.836-2.16 5.91-4.5 2.15-3.96 1.433-9.18-1.791-12.24-1.97-1.98-5.014-2.7-7.88-1.98z" fill="#FCBD06"/><path d="M125.553 19.62c3.761-2.34 8.597-3.06 12.716-.9 1.254.54 2.328 1.44 3.224 2.34v-2.7h6.448v28.62c0 4.32-1.075 8.82-4.299 12.06-3.403 3.42-8.597 4.5-13.253 3.78-5.015-.72-9.314-4.32-11.284-9 1.97-.9 3.94-1.62 5.91-2.52 1.075 2.7 3.403 4.86 6.269 5.4s6.269-.18 8.06-2.52c1.97-2.52 1.97-5.76 1.97-8.82-1.433 1.44-3.224 2.7-5.194 3.24-4.478 1.26-9.493-.36-12.896-3.42-3.403-3.06-5.552-7.74-5.373-12.42.179-5.4 3.224-10.44 7.702-13.14zm6.627 4.14c-1.971.36-3.762 1.44-5.015 2.88-3.045 3.6-3.045 9.36 0 12.96a8.548 8.548 0 007.164 3.06c2.507-.18 4.836-1.8 6.089-4.14 2.15-3.78 1.791-9-1.074-12.24-1.612-1.98-4.478-3.06-7.164-2.52z" fill="#3780FF"/><path d="M168 21.24c3.94-3.6 9.85-4.86 14.865-2.88 4.657 1.8 7.702 6.3 9.135 10.98l-20.955 8.64c.895 1.8 2.507 3.6 4.477 4.14 2.866 1.08 6.09.72 8.418-1.26.896-.72 1.612-1.62 2.328-2.52 1.791 1.26 3.582 2.34 5.374 3.6-2.508 3.78-6.806 6.48-11.284 6.84-5.015.54-10.388-1.26-13.612-5.22-5.194-6.3-4.657-16.74 1.254-22.32zm3.403 5.94c-1.075 1.62-1.612 3.6-1.433 5.4l13.97-5.94c-.716-1.8-2.687-2.88-4.478-3.24-3.044-.36-6.268 1.26-8.059 3.78z" fill="#FA3913"/></svg>