<svg width="178" height="73" fill="none" xmlns="http://www.w3.org/2000/svg"><g clip-path="url(#clip0)"><path d="M75.954 36.5c0-4.489-.883-8.771-2.428-12.746-.411 13.074-14.237 23.2-22.356 29.901h20.322c2.842-5.118 4.462-10.953 4.462-17.155zM61.263 7.71C54.83 2.893 46.763 0 37.975 0 17.002 0 0 16.341 0 36.5S17.002 73 37.975 73c9.608 0 18.354-3.451 25.038-9.104H35.518l-.082-7.763C52.002 42.293 62.16 32.931 62.16 23.89c0-3.36-1.332-7.6-7.324-7.6-4.745 0-9.324 2.641-8.494 13.68h-9.654C34.27 17.17 41.514 7.006 55.333 7.006c2.138 0 4.124.248 5.93.705z" fill="#AFCA0B"/><path d="M111.179 25.228h8.984c.305-6.568-1.996-16.973-16.814-16.973-10.903 0-18.815 6.273-18.815 19.334 0 1.771.078 10.922.078 16.605 0 14.167 10.214 17.268 18.812 17.268 5.146 0 12.591-1.108 16.049-4.724V34.157h-16.892v8.193h7.525v9.96c-5.684 1.844-16.048 2.584-16.048-9.96V27.589c0-8.78 4.223-11.808 8.904-11.808 4.84 0 8.217 2.363 8.217 9.447zm66.816 21.919c.388-20.22-23.721-13.506-23.491-24.798.075-3.984 2.764-6.568 7.14-6.568 4.681 0 7.447 2.657 7.368 9.596h8.831C178.075 19.1 176.541 8.4 161.954 8.4c-9.061 0-16.511 4.283-16.664 13.801-.385 19.407 23.877 13.063 23.491 24.794-.152 4.797-3.76 6.936-7.83 6.936-4.758 0-8.598-2.656-7.83-10.625h-8.909c-.996 10.552 3.842 18.082 16.664 18.082 10.825 0 16.966-5.759 17.119-14.242zm-40.558 13.575h-9.061V9.066h9.061v51.656zm0 0h-9.061V9.066h9.061v51.656z" fill="#3C3C3B"/></g><defs><clipPath id="clip0"><path fill="#fff" d="M0 0h178v73H0z"/></clipPath></defs></svg>