<svg width="244" height="96" fill="none" xmlns="http://www.w3.org/2000/svg"><path d="M97.266 73.137c9.689-1.096 18.247 4.055 18.247 4.055s-7.481 11.662-16.72 9.02a78.798 78.798 0 00-18.851-3.189c-.11-.822 7.646-8.757 17.324-9.886zm-22.96-9.677c9.678-1.097 18.236 4.055 18.236 4.055s-7.48 11.65-16.742 9.02a78.754 78.754 0 00-18.84-3.19c-.099-.855 7.657-8.768 17.346-9.886zm-21.487-7.42c8.04-.932 15.17 3.55 15.17 3.55s-6.173 10.018-13.863 7.672a63.766 63.766 0 00-15.677-2.772c-.099-.735 6.317-7.497 14.37-8.45zM34.77 46.438c7.513-.866 14.17 3.288 14.17 3.288s-5.778 9.382-12.951 7.267a59.24 59.24 0 00-14.633-2.63c-.088-.658 5.9-7.048 13.413-7.925zm-11.041-9.031c6.404-.066 11.645 4.066 11.645 4.066s-5.713 7.355-11.557 4.9a50.876 50.876 0 00-12.084-3.53c-.033-.58 5.591-5.381 11.996-5.436zm-7.866-10.379a17.587 17.587 0 019.118 5.107s-5.844 5.305-10.37 2.4a42.61 42.61 0 00-9.569-4.712c.066-.494 5.46-3.683 10.821-2.795zM9.162 16.846a14.388 14.388 0 017.756 4.384s-4.922 4.866-8.789 2.356A34.704 34.704 0 000 19.553c.055-.439 4.614-3.398 9.162-2.707z" fill="#0B7578"/><path d="M100.639 68.172c6.042 7.672 15.753 10.029 15.753 10.029s2.999-13.514-5.383-18.183a78.62 78.62 0 01-15.567-11.07c-.692.515-.834 11.585 5.197 19.224zm-24.333-9.71c6.92 6.839 16.862 8.033 16.862 8.033s1.308-13.777-7.58-17.394a78.7 78.7 0 01-16.807-9.085c-.616.591.593 11.595 7.525 18.446zm-20.159-7.826c3.658 6.379 10.799 9.163 10.799 9.163s3.999-9.864-1.835-14.249a57.808 57.808 0 01-10.513-9.918c-.593.284-2.11 8.636 1.55 15.004zM39.614 38.941c1.56 7.377 7.69 12.352 7.69 12.352s7.052-8.428 2.735-14.533a58.768 58.768 0 01-7.195-13.01c-.66.121-4.779 7.804-3.23 15.191z" fill="#0B7578"/><path d="M29.276 30.688c.385 6.368 4.78 11.322 4.78 11.322s7.008-6.137 4.185-11.804a49.983 49.983 0 01-4.274-11.826c-.582.022-5.031 5.908-4.69 12.308zm-8.854-7.672a17.412 17.412 0 003.296 9.864s6.305-4.745 4.284-9.721A42.489 42.489 0 0125.124 12.9c-.45-.066-4.592 4.636-4.702 10.116zm-6.295-9.732a13.73 13.73 0 002.01 8.275s5.78-3.288 4.472-7.442a33.305 33.305 0 01-1.582-8.538c-.418-.099-4.34 3.354-4.9 7.705zM5.13 9.437a17.572 17.572 0 007.295 5.622S12.15 7.672 8.272 5.01C3.692 1.84 2.592 0 2.592 0c-.318.208-.285 5.48 2.538 9.437z" fill="#0B7578"/><path d="M10.216 10.303a97.078 97.078 0 004.867 8.428 85.342 85.342 0 005.724 7.847 82.655 82.655 0 0013.787 13.558 85.807 85.807 0 007.92 5.48c8.151 5.009 17.357 8.768 26.453 11.837 6.141 2.104 12.392 3.946 18.676 5.94l2.329.768a134.174 134.174 0 0116.071 6.368c2.978 1.446 5.944 2.98 8.789 4.69a78.652 78.652 0 018.195 5.634l1.934 1.567a53.99 53.99 0 0111.37 13.021c-.154.23-1.099.647-1.297.45-3.691-4.078-7.25-8.188-11.688-11.432l-2-1.337a92.938 92.938 0 00-8.261-4.856c-2.856-1.468-5.745-2.926-8.711-4.164-2.966-1.239-5.922-2.488-8.932-3.64l-2.263-.876-2.274-.844-4.57-1.666c-6.097-2.192-12.27-4.384-18.422-6.653-4.603-1.71-9.206-3.562-13.655-5.666l-1.099-.526a100.167 100.167 0 01-9.766-5.327l-2.087-1.348a90.687 90.687 0 01-7.954-5.907 88.967 88.967 0 01-18.972-22.48 95.905 95.905 0 01-4.493-8.691l.33-.175zm136.518 62.9c-9.689-1.096-18.247 4.055-18.247 4.055s7.492 11.65 16.72 9.02a78.877 78.877 0 0118.851-3.19c.11-.887-7.646-8.767-17.324-9.885zm22.971-9.634c-9.689-1.096-18.247 4.055-18.247 4.055s7.481 11.65 16.72 9.02a78.751 78.751 0 0118.84-3.21c.121-.878-7.635-8.77-17.313-9.865zm21.444-7.464c-8.042-.932-15.171 3.551-15.171 3.551s6.173 10.007 13.863 7.672a63.857 63.857 0 0115.677-2.817c.132-.69-6.284-7.518-14.369-8.406zm18.082-9.601c-7.503-.866-14.172 3.288-14.172 3.288s5.779 9.393 12.952 7.2a59.333 59.333 0 0114.633-2.63c.088-.657-5.899-6.992-13.413-7.858zm11.04-9.042c-6.404 0-11.634 4.077-11.634 4.077s5.702 7.354 11.557 4.9a50.104 50.104 0 0112.084-3.53c.022-.592-5.602-5.381-12.007-5.447zm7.866-10.369a17.586 17.586 0 00-9.118 5.108s5.844 5.305 10.37 2.4a42.526 42.526 0 019.58-4.713c-.077-.493-5.471-3.682-10.832-2.795zm6.701-10.193a14.444 14.444 0 00-7.756 4.385s4.933 4.866 8.789 2.356a34.693 34.693 0 018.14-4.022c-.066-.439-4.625-3.398-9.173-2.718z" fill="#0B7578"/><path d="M143.361 68.238c-6.042 7.672-15.753 10.028-15.753 10.028s-2.999-13.513 5.383-18.182a79.17 79.17 0 0015.567-11.07c.692.515.845 11.585-5.197 19.224zm24.333-9.711c-6.921 6.84-16.862 8.034-16.862 8.034s-1.319-13.777 7.58-17.394a78.686 78.686 0 0016.807-9.086c.616.592-.549 11.596-7.525 18.446zm20.159-7.825c-3.658 6.379-10.799 9.162-10.799 9.162s-3.999-9.864 1.835-14.248a58.174 58.174 0 0010.524-9.919c.637.285 2.098 8.637-1.56 15.005zm16.533-11.695c-1.56 7.376-7.69 12.341-7.69 12.341s-7.052-8.417-2.735-14.522a59.416 59.416 0 007.151-13.01c.704.121 4.823 7.804 3.274 15.191z" fill="#0B7578"/><path d="M214.723 30.743c-.329 6.38-4.789 11.333-4.789 11.333s-6.998-6.138-4.186-11.815a50.223 50.223 0 004.285-11.815c.582.01 5.031 5.907 4.69 12.297zm8.855-7.727a17.419 17.419 0 01-3.296 9.864s-6.305-4.745-4.273-9.721a42.635 42.635 0 002.867-10.259c.45 0 4.592 4.702 4.702 10.116zm6.295-9.666c.221 2.9-.482 5.797-2.011 8.274 0 0-5.778-3.288-4.471-7.452a33.19 33.19 0 001.582-8.528c.417-.065 4.339 3.343 4.9 7.706zm8.997-3.858a17.496 17.496 0 01-7.295 5.633s.275-7.376 4.153-10.05c4.581-3.168 5.69-5.01 5.69-5.01.264.209.264 5.47-2.548 9.427z" fill="#0B7578"/><path d="M233.783 10.368a91.646 91.646 0 01-4.866 8.429 85.234 85.234 0 01-5.724 7.847 82.638 82.638 0 01-13.787 13.558 85.765 85.765 0 01-7.92 5.48c-8.151 5.009-17.346 8.713-26.453 11.837-6.141 2.104-12.392 3.946-18.676 5.94l-2.34.767a134.256 134.256 0 00-16.072 6.368c-2.977 1.436-5.932 2.97-8.788 4.691a77.705 77.705 0 00-8.206 5.634l-1.934 1.556a54.042 54.042 0 00-11.359 13.032c.154.23 1.099.646 1.297.438 3.691-4.077 7.261-8.187 11.688-11.42l2-1.348a95.572 95.572 0 018.261-4.856c2.856-1.468 5.745-2.915 8.711-4.154 2.966-1.238 5.932-2.488 8.943-3.65l2.197-.865 2.274-.844 4.57-1.666c6.097-2.192 12.27-4.384 18.422-6.653 4.614-1.71 9.206-3.573 13.655-5.666l1.099-.526a104.05 104.05 0 009.777-5.327l2.076-1.348a86.976 86.976 0 007.932-5.919 88.607 88.607 0 0019.038-22.479 92.925 92.925 0 004.515-8.691l-.33-.165z" fill="#0B7578"/></svg>