<svg width="34" height="34" fill="none" xmlns="http://www.w3.org/2000/svg"><path fill-rule="evenodd" clip-rule="evenodd" d="M16.976 22.645c-.077.07-.169.14-.24.179a.445.445 0 01-.218.06c-.106.01-.268.02-.437.014a2.926 2.926 0 01-.525-.06 3.14 3.14 0 01-.455-.137c-.145-.056-.282-.113-.423-.162a3.972 3.972 0 00-.416-.13c-.127-.028-.233-.042-.364-.063-.126-.017-.278-.038-.42-.042a2.074 2.074 0 00-.397.025c-.127.017-.24.042-.335.09a.753.753 0 00-.293.285c-.01.029-.01.053-.018.07-.007.022-.017.032-.06.036-.045.003-.127 0-.215.01-.084.007-.18.032-.268.064a1.27 1.27 0 00-.264.119.902.902 0 00-.219.186c-.053.063-.067.116-.084.18a1.212 1.212 0 00-.043.214c-.01.073-.01.15-.014.217-.003.067-.01.12-.014.165a.475.475 0 000 .102c.007.018.018.014.036-.003a1.357 1.357 0 01.208-.158c.042-.025.08-.046.112-.06l.096-.028c.035-.007.074-.014.116-.018a.607.607 0 01.113 0c.038.004.08.008.123.014a.642.642 0 01.113.022c.025.01.032.024.05.031.017.01.045.018.07.028.028.007.056.018.077.025.025.003.043.007.06.01.018 0 .032.004.046.007a.13.13 0 01.042.008c.011.003.018.01.011.017a.165.165 0 01-.07.021c-.036.004-.082.004-.156.007-.07 0-.169.004-.25.007a.971.971 0 00-.197.021.563.563 0 00-.134.053c-.029.014-.043.024-.067.035-.025.01-.057.021-.082.032-.024.007-.045.014-.07.017a.96.96 0 01-.07.018c-.018.003-.022.003-.015.007.008.003.022.014.05.028l.095.05c.028.013.046.024.07.027.022.007.053.01.096.018l.151.01a.993.993 0 00.145 0c.046-.003.088-.01.137-.014a.731.731 0 01.17.007c.07.01.155.032.25.06a1.549 1.549 0 01.67.358c.137.116.292.274.437.425.145.151.279.295.374.39.095.095.158.14.187.176.031.035.031.056.007.095a.713.713 0 01-.113.133 1.432 1.432 0 01-.152.12l-.278.19c-.149.098-.36.245-.603.39-.243.147-.511.287-.734.414-.225.126-.405.239-.63.383-.226.147-.505.326-.882.583-.374.253-.853.583-1.276.871-.423.292-.794.541-1.196.787-.402.246-.832.488-1.195.667-.366.18-.666.299-.924.404-.257.102-.468.187-.655.25-.194.067-.674.207-.808.362-.017.017-.02.038-.017.063 0 .02.01.042.031.06.092.07.74-.004.875-.032.024-.007.039-.007.042.01.004.015-.003.05-.05.088a.81.81 0 01-.207.116c-.081.035-.159.056-.258.084a2.52 2.52 0 01-.338.092c-.124.017-.254.017-.406.024-3.197.155-3.642-1.52-4.385-1.795-.032-.014-.05-.007-.064 0-.014.01-.042.035-.028.064.888 1.752 3.081 2.74 4.301 2.827.067.004.106.007.138.007.031 0 .056 0 .07.014.014.011.014.032 0 .057a.22.22 0 01-.07.07c-.04.025-.088.05-.145.074l-.17.074c-.048.02-.084.035-.115.045-.032.01-.057.018-.067.032-.011.014-.008.031.02.049a.969.969 0 00.184.05c.095.02.233.048.391.059.163.01.346 0 .53-.018.183-.017.37-.042.535-.06.166-.02.314-.035.427-.052.113-.014.19-.032.278-.05a3.93 3.93 0 01.258-.041c.08-.011.14-.014.18-.014.038 0 .056 0 .045.035a.639.639 0 01-.215.288c-.056.038-.127.08-.18.116-.056.038-.095.073-.127.101a.225.225 0 00-.056.081c-.01.028-.01.06.018.085.028.024.084.038.18.031a2.33 2.33 0 00.341-.052c.117-.025.216-.05.31-.092.096-.038.188-.098.297-.15.11-.05.24-.096.37-.152.134-.06.268-.133.36-.176.095-.042.144-.052.176-.06.028-.006.035-.006.032.015a.402.402 0 01-.053.102c-.028.038-.07.073-.102.123a.415.415 0 00-.057.168.48.48 0 00.004.176c.007.042.024.06.07.056.05 0 .124-.021.219-.042a2.589 2.589 0 00.751-.243c.13-.063.243-.14.363-.203.116-.067.24-.123.328-.176.088-.056.14-.105.187-.116.049-.01.088.021.134.06a1.139 1.139 0 00.391.232c.081.024.17.031.257.038.088.007.177.014.268.025.092.007.18.014.279.01.095-.003.197-.02.38-.063.188-.042.452-.112.653-.168a7.199 7.199 0 00.776-.27c.088-.043.151-.089.204-.12.056-.035.102-.06.148-.081a.309.309 0 01.127-.046.335.335 0 01.137.025c.05.017.106.038.202.056.095.018.229.028.384.039.155.007.328.014.49 0 .159-.01.31-.035.448-.067.134-.028.26-.06.486-.14.226-.081.554-.208.829-.341a8.37 8.37 0 00.708-.4c.212-.127.413-.25.794-.457.377-.204.93-.496 1.473-.805a33.38 33.38 0 001.4-.85c.328-.21.448-.299.55-.376.102-.08.183-.15.25-.197a.46.46 0 01.163-.08c.042-.014.084-.014.137-.018.056 0 .13 0 .198.007.067.007.123.021.253.042.13.018.332.042.54.056.204.011.42.011.57.022.152.007.24.024.308.042a.357.357 0 01.183.109c.074.07.176.193.585.621a71.21 71.21 0 001.52 1.529c.391.368.455.358.54.382 1.135.31 2.478.278 3.553.028a.846.846 0 00.247-.09.261.261 0 00.127-.141.58.58 0 00.01-.236c-.01-.08-.035-.15-.049-.207-.018-.056-.032-.095-.007-.112.028-.022.092-.022.17-.022.341 0 1.265-.052 1.015-.66-.04-.095 1.487-.372.542-1.092-.056-.106.374-.292.47-.39a.465.465 0 00.116-.197c.014-.074-.004-.14-.081-.21a1.17 1.17 0 00-.296-.187c-.096-.042-.16-.056-.226-.074a1.481 1.481 0 01-.197-.07c-.064-.025-.117-.05-.089-.084.081-.099 1.248-.636.963-.984-.282-.34-1.382-.13-1.368-.218.007-.031.078-.102.173-.224.197-.26.45-.647.585-.942.056-.123.07-.204.053-.281-.018-.08-.07-.155-.215-.197-.141-.042-.381-.049-.66-.017-1.371.158-2.676.442-4.09.481-.183.003-.408.01-.62.01-.215 0-.416-.007-.6-.02a5.705 5.705 0 01-.5-.07c-.151-.029-.292-.053-.388-.078a.712.712 0 01-.183-.07.268.268 0 01-.078-.064c-.01-.017.004-.028.103-.13l.465-.505c.183-.204.377-.415.673-.738.3-.327.706-.766 1.069-1.163a62.43 62.43 0 001.043-1.142c.353-.396.73-.836 1.026-1.219.296-.382.508-.71.642-.92.13-.21.176-.302.19-.386a.3.3 0 00-.046-.218.395.395 0 00-.155-.14c-.06-.032-.12-.05-.123-.088-.007-.035.046-.095.173-.204.13-.105.335-.26.504-.436a3.33 3.33 0 00.426-.555 3.07 3.07 0 00.297-.555c.063-.168.08-.316.091-.435.01-.12.014-.215-.028-.292a.48.48 0 00-.2-.169c-.068-.031-.103-.038-.085-.077.014-.039.08-.105.211-.267a8.051 8.051 0 00.99-1.609 4.04 4.04 0 00.283-.794c.05-.22.05-.386.028-.537-.018-.151-.053-.288-.141-.386a.707.707 0 00-.349-.187.908.908 0 00-.275-.02c-.067.003-.113.006-.088-.029.024-.038.116-.112.236-.21.12-.099.268-.218.409-.37a3.21 3.21 0 00.402-.544c.123-.207.233-.436.331-.664.103-.228.187-.453.24-.685.05-.228.06-.464.06-.618 0-.158-.018-.239-.067-.313a.526.526 0 00-.226-.175.34.34 0 00-.268.01c-.102.042-.222.123-.289.165-.067.046-.08.053-.098.053-.014-.004-.029-.014.053-.123.077-.109.25-.32.39-.527.142-.21.251-.418.346-.64.096-.217.184-.442.23-.607.045-.165.053-.27.031-.358a.281.281 0 00-.165-.208c-.1-.045-.247-.06-.374-.045a.99.99 0 00-.32.088c-.09.038-.16.073-.198.091-.04.021-.05.021-.032-.018.017-.038.063-.112.204-.291.141-.18.381-.464.554-.689.173-.225.282-.393.384-.54.099-.148.194-.278.247-.384.05-.101.053-.179.032-.235-.018-.053-.067-.084-.166-.08-.102.003-.26.045-.416.115-.159.07-.317.172-.44.25-.124.073-.212.13-.28.165a.61.61 0 01-.15.063.214.214 0 01-.103.007c-.025-.01-.032-.032-.032-.074a.52.52 0 01.046-.197c.039-.094.106-.228.194-.446.088-.217.197-.523.264-.755.067-.235.092-.397.117-.548.02-.15.042-.291.042-.383.004-.091-.014-.133-.042-.154-.029-.025-.067-.025-.134.024a3.016 3.016 0 00-.318.295c-.155.158-.377.383-.557.573-.176.186-.306.34-.42.453a2.505 2.505 0 01-.267.239c-.067.053-.106.084-.138.098-.031.01-.049.004-.06-.031a.39.39 0 01.011-.187c.018-.09.056-.203.113-.34.053-.134.12-.292.18-.482a4.8 4.8 0 00.13-.604c.028-.182.039-.326.053-.495.018-.169.039-.362.042-.523a1.841 1.841 0 00-.028-.387c-.018-.088-.035-.126-.06-.147-.025-.021-.056-.021-.102.038-.05.06-.113.18-.222.362-.113.183-.265.429-.395.629-.134.2-.24.358-.35.513a9.815 9.815 0 01-.31.418 1.9 1.9 0 01-.183.218c-.042.038-.067.049-.084.049-.021 0-.036-.007-.064-.092a2.621 2.621 0 01-.077-.421c-.021-.172-.021-.355-.032-.625-.01-.274-.032-.633-.06-.942a7.671 7.671 0 00-.095-.72A.856.856 0 0029.5.12c-.036-.06-.078-.108-.113-.119-.035-.007-.064.021-.113.126-.046.11-.11.3-.176.478-.07.183-.148.359-.25.689-.107.333-.237.822-.353 1.215-.117.394-.215.689-.279.868-.063.175-.088.239-.113.27-.024.035-.053.035-.084-.028a2.331 2.331 0 01-.106-.41 23.214 23.214 0 01-.145-.816c-.042-.28-.077-.527-.105-.723-.029-.2-.053-.352-.078-.482A1.22 1.22 0 0027.5.883c-.035-.063-.077-.085-.123-.085s-.095.018-.151.144a3.117 3.117 0 00-.16.622c-.038.26-.063.545-.108.931-.046.387-.117.875-.173 1.223-.06.347-.102.558-.145.716-.042.162-.08.27-.12.327-.038.056-.077.056-.116-.01-.042-.067-.085-.204-.137-.394-.057-.19-.124-.432-.194-.64a3.173 3.173 0 00-.205-.474.393.393 0 00-.155-.165.816.816 0 00-.159-.077c-.045-.014-.074-.014-.095 0-.021.014-.032.039-.042.169-.01.13-.018.361-.021.628-.007.27-.01.576-.014.938-.008.366-.018.784-.029 1.174-.007.386-.017.744-.042 1.11-.021.361-.06.734-.12 1.082-.06.35-.14.685-.229.966a4.461 4.461 0 01-.363.867c-.19.359-.476.84-.797 1.395-.324.551-.684 1.18-1.093 1.925-.405.745-.864 1.609-1.206 2.245-.338.639-.564 1.046-.867 1.619-.303.57-.68 1.296-.959 1.816-.275.524-.451.836-.649 1.149-.194.309-.409.615-.634.913-.226.299-.459.59-.667.826-.204.239-.38.425-.497.551-.116.127-.176.2-.254.27zm-4.103.172c-.018.067.042.102.091.116.032.007.06.007.092.007.028 0 .053-.004.08 0 .03.003.057.014.09.024.027.01.059.01.09.01.025 0 .103-.01.135-.034a.191.191 0 00-.074-.05c-.145-.063-.124-.165-.356-.175-.064 0-.134.039-.149.102z" fill="#333"/></svg>