<svg width="132" height="52" fill="none" xmlns="http://www.w3.org/2000/svg"><path fill-rule="evenodd" clip-rule="evenodd" d="M76.279 24.279a6.73 6.73 0 006.727-6.733 6.725 6.725 0 00-6.727-6.728 6.725 6.725 0 00-6.727 6.728 6.73 6.73 0 006.727 6.733zM61.865 18.58l2.782 5.318h4.905l-3.254-6.213 3.254-6.218h-4.905l-2.782 5.318v-5.179h-.156v-.07h-4.063v12.298h.15v.064h4.069V18.58zm65.97-7.135v5.742l-3.334-5.742h-4.503v12.453h4.155v-5.891l3.43 5.891h4.412V11.445h-4.16zm-17.303 11h3.983l-1.185-3.077h-1.624l-1.174 3.078zm1.174-3.077l.809-2.122-2.224-5.78-4.744 12.432h4.427l.558-1.453 1.174-3.077zm-1.415-7.901l2.224 5.778 2.203-5.778h-4.427zm3.039 7.901l1.185 3.078.562 1.452h4.428l-4.787-12.431-2.203 5.778.815 2.123zm-11.503 4.412h3.307v-6.706h-4.047v2.686c-.617.44-1.4.546-2.112.546a2.622 2.622 0 01-2.621-2.62 2.623 2.623 0 014.899-1.303l3.366-2.36a6.712 6.712 0 00-5.644-3.071 6.734 6.734 0 00-6.733 6.733 6.733 6.733 0 009.585 6.095zm-10.003.08v-3.108h-4.186v-9.414h-4.031v12.523h8.217zM78.9 17.547a2.623 2.623 0 01-2.621 2.627 2.623 2.623 0 01-2.621-2.627 2.622 2.622 0 015.242 0z" fill="#333"/><path fill-rule="evenodd" clip-rule="evenodd" d="M123.591 31.897v11.608h-.513V31.897h.513zm-2.432 9.877a6.014 6.014 0 01-4.192 1.67 6.04 6.04 0 01-4.193-1.67c-1.068-1.038-1.731-2.462-1.731-4.037 0-1.574.663-2.998 1.731-4.036a6.04 6.04 0 014.193-1.67 6.014 6.014 0 014.723 2.25l.356-.254a5.851 5.851 0 00-.579-.645 6.466 6.466 0 00-4.5-1.792 6.467 6.467 0 00-4.501 1.792 6.055 6.055 0 00-1.864 4.355c0 1.696.712 3.24 1.864 4.356a6.467 6.467 0 004.501 1.792 6.466 6.466 0 004.5-1.792c.223-.217.428-.446.615-.693l-.362-.254a5.036 5.036 0 01-.561.628zm-4.192-.82a3.38 3.38 0 002.346-.948c.115-.109.218-.223.314-.344l-.362-.253a2.935 2.935 0 01-2.298 1.098 2.931 2.931 0 01-2.039-.815 2.712 2.712 0 01-.839-1.955 2.7 2.7 0 01.839-1.954 2.931 2.931 0 012.039-.815 2.934 2.934 0 012.262 1.056l.362-.253a3.372 3.372 0 00-.278-.308 3.376 3.376 0 00-2.346-.941c-.911 0-1.744.362-2.341.941a3.16 3.16 0 00-.977 2.274c0 .887.374 1.69.977 2.269.597.58 1.43.947 2.341.947zm0 .97a4.374 4.374 0 003.474-1.689l-.361-.253a4.59 4.59 0 01-.356.398 3.953 3.953 0 01-2.757 1.104 3.937 3.937 0 01-2.751-1.104 3.646 3.646 0 01-1.14-2.643c0-1.031.434-1.966 1.14-2.642a3.91 3.91 0 012.751-1.104 3.927 3.927 0 013.076 1.454l.362-.254a4.374 4.374 0 00-3.438-1.641 4.375 4.375 0 00-3.059 1.225 4.113 4.113 0 00-1.273 2.962c0 1.159.489 2.203 1.273 2.963a4.375 4.375 0 003.059 1.224zm0 .984c1.478 0 2.811-.58 3.782-1.508.181-.181.356-.374.513-.58l-.362-.259c-.139.181-.29.362-.459.519a4.987 4.987 0 01-3.474 1.387 5 5 0 01-3.475-1.387 4.64 4.64 0 01-1.43-3.343 4.63 4.63 0 011.43-3.342 5 5 0 013.475-1.388c1.357 0 2.588.531 3.474 1.388.151.145.296.308.423.47l.362-.259a5.675 5.675 0 00-.477-.53 5.453 5.453 0 00-3.782-1.509c-1.472 0-2.812.58-3.777 1.508a5.078 5.078 0 00-1.568 3.662c0 1.424.597 2.721 1.568 3.663a5.441 5.441 0 003.777 1.508zm-32.064.597L89.27 32.58l.254-.633h-.477l-.012.036-4.609 11.523h.477L89.27 32.58l.284.712.247.628.326.82.248.634.271.687.26.652.186.47.954 2.414.21.525.176.44.229.585.163.416.217.55.549 1.393h.513l-.55-1.394-.222-.548-.163-.417-.23-.585-.175-.44-.205-.525-1.212-3.06-.254.646.254-.645-.187-.47-.254-.646-.271-.688-.253-.64-.32-.814-.254-.634-.277-.7h-.006l-4.621 11.56zm6.581-8.253l.188.47 1.532 3.874.211.525.175.44.23.585.162.416.217.55.55 1.393h.458l-1.165-2.944-.174-.44-.212-.525-1.755-4.44-.187-.471-.254-.652-.277-.694-.247-.633-.302-.76h-.453l.206.519.32.814.253.633.271.688.254.652zm.773-1.93l-.543-1.376h-.495l.266.657.271.688.253.646.187.47 2.052 5.189 1.55 3.91h.489l-3.843-9.714-.187-.47zm.072-1.376l4.579 11.56h.483l-4.58-11.56h-.482zm.133 9.616h-3.125l-.217.55h3.559l-.217-.55zm-.398-1.001h-2.329l-.23.585h2.788l-.23-.585zm-.38-.965h-1.557l-.217.525h1.985l-.211-.525zm-2.999 0l1.508-3.765-.253-.634-1.761 4.399-1.563 3.91h.507l1.176-2.945.175-.44.211-.525zm1.062 0l.971-2.432-.253-.645-1.23 3.077-.212.525-.18.44-.23.585-.163.416-.223.55-.555 1.393h.513l.555-1.394.223-.548.169-.417.229-.585.175-.44.211-.525zm-.38-5.852l-3.897 9.761h.5l3.65-9.128-.253-.633zm12.446 9.761v-5.098l-.513-.832v5.93h.513zm-2.058-11.252l.549.9.471.76.525.868.513.827 4.186 6.83.519.85.139.217h.332v-.265l-.471-.76-.519-.845-4.186-6.83-.513-.838-.525-.863-.471-.76-.295-.477h-.494l.24.386zm-1.043-.386h-.441v11.638h.44V32.513l.49.79.554.9.549.904.471.76.525.863.513.833 3.643 5.942h.525l-4.168-6.8-.513-.826-.525-.862-.471-.767-.549-.899-.555-.898-.356-.586h-.132zm2.588.006v-.006h-.525v.181l.525.863.513.833 4.186 6.829.519.85.471.76.494.815.314.507h.609l-.519-.85-.404-.664-.494-.815-.471-.766-.519-.85-4.186-6.854-.513-.833zm5.689-.006v6.781l.494.815v-7.596h-.494zm-.99 5.177l.519.844v-6.02h-.519v5.176zm0 .73l-3.607-5.907h-.549l4.156 6.8.519.85.471.76.494.82.404.665.586.953.482.79h.501V31.867h-.41v10.89l-.573-.941-.586-.953-.404-.664-.494-.814-.471-.76-.519-.851zm1.888 2.347l.586.953v-9.207h-.586v8.254zm-8.132 3.384v-8.452l-.555-.905v9.357h.555zm1.02 0v-6.793l-.471-.76v7.553h.471zm-24.945 0v-5.098l-.513-.832v5.93h.513zm-2.057-11.252l.549.9.464.76.53.868.514.827 4.186 6.83.52.85.132.217h.338v-.265l-.47-.76-.52-.845-4.186-6.83-.513-.838-.531-.863-.465-.76-.295-.477h-.495l.242.386zm-1.044-.386h-.447v11.638h.447V32.513l.489.79.555.9.549.904.464.76.53.863.514.833 3.643 5.942h.525l-4.168-6.8-.513-.826-.531-.862-.465-.767-.548-.899-.555-.898-.362-.586h-.127zm2.588.006l-.006-.006h-.525v.181l.53.863.514.833 4.186 6.829.52.85.47.76.494.815.314.507h.61l-.52-.85-.404-.664-.494-.815-.47-.766-.52-.85-4.186-6.854-.513-.833zm5.689-.006v6.781l.494.815v-7.596h-.494zm-.99 5.177l.52.844v-6.02h-.52v5.176zm0 .73l-3.607-5.907h-.55l4.157 6.8.52.85.47.76.494.82.405.665.585.953.482.79h.501V31.867h-.41v10.89l-.573-.941-.585-.953-.405-.664-.494-.814-.47-.76-.52-.851zm1.889 2.347l.585.953v-9.207h-.585v8.254zm-8.132 3.384v-8.452l-.555-.905v9.357h.555zm1.013 0v-6.793l-.465-.76v7.553h.465zm-3.879-11.608v11.608h-.513V31.897h.513zm-1.044 0v11.608h-.506V31.897h.506zm-1.037 0v11.608h-.507V31.897h.507zm-1.038 0v11.608h-.513V31.897h.513zm-9.743 0v11.608h-.506V31.897h.506zm3.12 4.936h4.807v.506h-4.808v.52h4.808v.506h-4.808v.489h4.808v.512h-4.808v4.121h-.513V31.879h5.508v.513h-4.995v.513h4.995v.513h-4.995v.489h4.995v.506h-4.995v2.42zM60.12 31.89V43.5h-.507V31.891h.507zm-1.038-.012v11.608h-.507V31.879h.507zm67.626 4.567h2.594v.507h-2.594v.519h2.594v.513h-2.594v.483h2.594v.512h-2.594v1.991h5.285v.507h-5.285v.519h5.285v.507h-5.285v.488h5.285v.513h-5.291v-.018h-.506V31.879h5.798v.513h-5.285v.513h5.285v.513h-5.285v.489h5.285v.506h-5.285v2.033zm-1.043-4.555V43.5h-.507V31.891h.507zm-1.038-.012v11.608h-.507V31.879h.507z" fill="#1B1918"/><path fill-rule="evenodd" clip-rule="evenodd" d="M25.81 34.56a2.14 2.14 0 01-.364.274c-.107.065-.177.075-.332.091a4.88 4.88 0 01-.665.022 4.441 4.441 0 01-.799-.091 4.768 4.768 0 01-.691-.21c-.22-.085-.429-.17-.643-.246-.215-.08-.44-.15-.633-.198-.193-.043-.354-.065-.552-.097-.193-.026-.423-.059-.638-.064-.214-.01-.418.01-.605.038a1.573 1.573 0 00-.51.139 1.143 1.143 0 00-.327.262.747.747 0 00-.118.172c-.016.043-.016.08-.026.107-.011.032-.027.048-.092.054-.07.005-.193 0-.327.016-.128.01-.273.048-.407.096-.14.049-.273.102-.402.183-.134.08-.257.193-.332.284-.08.096-.102.177-.129.273a1.857 1.857 0 00-.064.327c-.016.113-.016.23-.022.333-.005.101-.016.182-.021.252a.729.729 0 000 .155c.01.027.027.022.053-.005.033-.027.08-.07.14-.118a1.877 1.877 0 01.348-.215l.145-.043c.054-.01.113-.021.177-.026a.928.928 0 01.171 0c.06.005.124.01.188.021a.981.981 0 01.172.032c.037.016.048.038.075.048.026.017.07.027.107.043.043.011.085.027.118.038a.95.95 0 01.09.016.27.27 0 01.07.01c.022 0 .049.006.065.011.016.006.027.017.016.027a.253.253 0 01-.107.032c-.054.006-.124.006-.236.011-.107 0-.257.006-.38.01-.124.006-.22.012-.3.033a.842.842 0 00-.205.08c-.043.022-.064.038-.101.054-.038.016-.086.032-.124.048-.037.011-.07.022-.107.027-.038.01-.08.022-.107.027-.027.005-.032.005-.022.01.011.006.033.022.075.044.043.02.102.053.145.075.043.021.07.037.107.042.033.011.08.017.145.027.064.006.15.01.23.016.081.006.156.006.22 0 .07-.005.134-.016.21-.021a1.1 1.1 0 01.257.01c.107.017.236.049.38.092.14.037.3.085.467.171.166.08.343.193.552.375.209.177.445.419.665.65.22.23.423.45.568.594.144.145.24.215.284.268.048.054.048.086.01.145-.032.054-.101.14-.171.204a2.18 2.18 0 01-.23.182l-.424.29c-.225.15-.547.375-.917.594-.37.226-.777.44-1.115.633-.343.193-.616.365-.96.584-.342.225-.766.499-1.34.89-.567.386-1.296.89-1.94 1.33-.643.445-1.206.825-1.817 1.2-.61.376-1.265.746-1.817 1.02-.558.273-1.013.455-1.404.616-.392.155-.713.284-.997.38-.295.102-1.024.316-1.228.552-.027.027-.032.06-.027.097a.12.12 0 00.048.091c.14.107 1.126-.005 1.33-.048.037-.011.059-.011.064.016.006.021-.005.075-.075.134a1.23 1.23 0 01-.316.177c-.123.053-.241.086-.391.128-.15.049-.327.108-.515.14-.188.027-.386.027-.616.037-4.862.236-5.538-2.32-6.669-2.74-.048-.02-.075-.01-.096 0-.022.017-.065.054-.043.097 1.35 2.675 4.685 4.182 6.54 4.316.101.005.16.01.209.01.048 0 .085 0 .107.022.021.016.021.048 0 .086a.334.334 0 01-.107.107 1.67 1.67 0 01-.22.113l-.258.112a2.304 2.304 0 01-.176.07c-.049.016-.086.027-.102.048-.016.022-.011.048.032.075.043.022.129.043.279.075.144.032.353.075.595.091.246.016.525 0 .804-.026.278-.027.563-.065.814-.092.252-.032.478-.053.65-.08.17-.021.289-.048.423-.075.128-.027.273-.048.39-.064.124-.017.215-.022.274-.022.06 0 .086 0 .07.054a.974.974 0 01-.129.241.87.87 0 01-.198.198c-.086.06-.193.124-.273.177-.086.06-.145.113-.193.156a.344.344 0 00-.086.123c-.016.043-.016.091.027.129.043.037.128.059.273.048.14-.005.343-.043.52-.08a2.32 2.32 0 00.472-.14c.144-.059.284-.15.45-.23.166-.075.364-.145.563-.23.204-.092.407-.205.547-.269.144-.064.22-.08.268-.091.043-.01.053-.01.048.021a.613.613 0 01-.08.156c-.043.059-.108.112-.156.187a.635.635 0 00-.086.258.734.734 0 00.006.268c.01.064.037.09.107.086.075 0 .187-.033.332-.065a4.75 4.75 0 00.525-.123c.199-.059.418-.145.617-.247.198-.096.37-.214.552-.31.177-.102.364-.188.498-.269.135-.085.215-.16.285-.176.075-.017.134.032.203.09.065.06.145.124.247.188.096.065.22.129.348.166.124.038.258.049.392.06.134.01.268.02.407.037.14.01.273.021.424.016.144-.005.3-.032.578-.096.284-.065.686-.172.992-.258.3-.086.504-.155.686-.22.188-.064.36-.128.493-.193.134-.064.23-.134.311-.182.086-.053.156-.091.225-.123a.468.468 0 01.193-.07.508.508 0 01.21.038c.075.026.16.059.305.086.145.026.348.042.584.058.236.011.499.022.745 0 .242-.016.472-.053.681-.101.204-.043.397-.092.74-.215.343-.123.841-.316 1.26-.52.412-.204.755-.413 1.077-.611.322-.193.627-.38 1.206-.697.574-.31 1.415-.756 2.24-1.227a50.797 50.797 0 002.129-1.298c.498-.321.68-.456.836-.573.155-.124.279-.23.38-.3a.7.7 0 01.247-.124c.065-.021.129-.021.21-.027.085 0 .198 0 .3.011.101.01.187.032.385.064.199.027.504.065.82.086.311.016.638.016.869.032.23.011.364.038.466.065a.557.557 0 01.279.166c.113.107.268.295.89.949.627.648 1.72 1.769 2.31 2.332.595.563.692.546.82.584 1.726.472 3.769.423 5.404.043.166-.038.284-.086.375-.14a.398.398 0 00.193-.214.889.889 0 00.016-.36c-.016-.123-.054-.23-.075-.316-.027-.085-.048-.144-.011-.171.043-.032.14-.032.257-.032.52 0 1.925-.08 1.544-1.008-.059-.145 2.262-.568.826-1.667-.086-.161.568-.445.713-.595a.71.71 0 00.176-.3c.022-.113-.005-.215-.123-.322a1.777 1.777 0 00-.45-.284c-.145-.065-.241-.086-.343-.113a2.236 2.236 0 01-.3-.107c-.097-.038-.177-.075-.134-.129.123-.15 1.897-.97 1.463-1.5-.429-.52-2.101-.199-2.08-.333.01-.048.118-.155.263-.343.3-.397.686-.986.89-1.437.085-.187.107-.31.08-.429-.027-.123-.107-.236-.327-.3-.214-.064-.579-.075-1.002-.027-2.085.242-4.069.676-6.218.735-.28.005-.622.016-.944.016-.327 0-.632-.01-.911-.032a8.713 8.713 0 01-.761-.108c-.23-.042-.445-.08-.59-.117a1.075 1.075 0 01-.279-.108.405.405 0 01-.117-.096c-.017-.027.005-.043.155-.198.15-.161.423-.462.708-.773.278-.31.573-.632 1.023-1.125.456-.499 1.072-1.169 1.624-1.775a91.17 91.17 0 001.587-1.742 37.878 37.878 0 001.56-1.86c.45-.584.772-1.083.976-1.405.198-.321.268-.46.29-.59a.46.46 0 00-.07-.332.601.601 0 00-.236-.214c-.092-.048-.183-.075-.188-.134-.01-.054.07-.145.263-.311.198-.16.509-.397.766-.665.257-.262.461-.552.649-.847.187-.29.354-.59.45-.847.096-.257.123-.482.14-.665.016-.182.02-.326-.044-.444s-.209-.21-.305-.258c-.102-.048-.156-.059-.129-.118.022-.059.124-.16.322-.407a12.31 12.31 0 001.506-2.455c.204-.456.36-.874.429-1.212a2.21 2.21 0 00.043-.82c-.027-.23-.08-.44-.215-.59-.133-.15-.353-.241-.53-.284a1.373 1.373 0 00-.418-.032c-.102.005-.172.01-.134-.043.037-.059.177-.171.359-.322.182-.15.407-.332.622-.562.214-.23.423-.515.61-.831.188-.317.355-.665.505-1.014a5.62 5.62 0 00.364-1.045c.075-.348.091-.707.091-.943 0-.242-.027-.365-.102-.478a.802.802 0 00-.343-.268.516.516 0 00-.407.017c-.155.064-.338.187-.44.252-.101.07-.123.08-.15.08-.021-.005-.043-.021.08-.188.119-.166.381-.487.596-.804.214-.321.38-.638.525-.975a7.75 7.75 0 00.349-.928c.07-.252.08-.413.048-.547a.43.43 0 00-.252-.316c-.15-.07-.375-.091-.568-.07a1.5 1.5 0 00-.488.134c-.134.06-.241.113-.3.14-.06.032-.076.032-.049-.027.027-.059.097-.172.311-.445.215-.273.58-.708.842-1.05.262-.344.429-.601.584-.826.15-.225.295-.424.375-.585.075-.155.08-.273.049-.359-.027-.08-.102-.128-.252-.123-.156.005-.397.07-.633.177-.241.107-.482.263-.67.38-.188.113-.322.199-.423.252a.926.926 0 01-.23.097.324.324 0 01-.156.01c-.038-.015-.049-.048-.049-.112 0-.059.011-.155.07-.3.06-.145.16-.349.295-.68.134-.333.3-.8.402-1.153.102-.36.14-.606.177-.837.032-.23.064-.445.064-.584.005-.14-.021-.204-.064-.236-.043-.037-.102-.037-.204.038-.102.07-.241.209-.482.45-.236.241-.574.584-.847.874-.268.284-.467.52-.638.691a3.833 3.833 0 01-.407.365c-.102.08-.161.128-.21.15-.048.016-.075.005-.09-.048a.598.598 0 01.015-.285c.027-.139.086-.31.172-.52.08-.203.182-.444.273-.734.086-.29.156-.638.199-.922.042-.279.059-.499.08-.756.027-.257.059-.552.064-.799a2.818 2.818 0 00-.042-.59c-.027-.133-.054-.192-.092-.224-.037-.033-.085-.033-.155.059-.075.09-.172.273-.338.552-.171.278-.402.654-.6.96-.204.305-.365.546-.53.782-.167.236-.339.466-.473.638a3.055 3.055 0 01-.278.332c-.065.06-.102.075-.129.075-.032 0-.053-.01-.096-.14a4.013 4.013 0 01-.118-.642c-.032-.263-.032-.542-.049-.955a29.558 29.558 0 00-.09-1.436 11.77 11.77 0 00-.145-1.1c-.049-.246-.092-.353-.145-.444-.054-.091-.118-.166-.172-.182-.053-.011-.096.032-.171.193-.07.166-.166.455-.268.729-.108.278-.225.546-.38 1.05-.162.51-.36 1.255-.537 1.855-.177.6-.327 1.05-.423 1.324-.097.268-.134.365-.172.413-.037.054-.08.054-.129-.043a3.659 3.659 0 01-.16-.627c-.07-.338-.15-.82-.22-1.244a96.622 96.622 0 01-.16-1.104 16.343 16.343 0 00-.119-.735c-.037-.198-.075-.364-.128-.466-.054-.096-.118-.129-.188-.129s-.145.027-.23.22a4.751 4.751 0 00-.242.95c-.059.396-.096.83-.166 1.42s-.177 1.335-.263 1.865c-.09.53-.155.853-.22 1.094-.064.246-.123.413-.182.498-.059.086-.118.086-.177-.016-.064-.102-.128-.31-.209-.6-.085-.29-.187-.66-.294-.976a4.864 4.864 0 00-.311-.723.599.599 0 00-.236-.252 1.24 1.24 0 00-.242-.118c-.07-.022-.112-.022-.144 0-.032.021-.048.059-.064.257-.017.198-.027.552-.033.96-.01.412-.016.879-.021 1.43-.01.558-.027 1.196-.043 1.791-.01.59-.027 1.137-.064 1.694-.032.553-.091 1.12-.183 1.651a11.502 11.502 0 01-.348 1.475 6.82 6.82 0 01-.552 1.324c-.29.546-.724 1.281-1.212 2.128a113.9 113.9 0 00-1.661 2.938c-.617 1.136-1.314 2.455-1.834 3.425-.514.976-.857 1.598-1.318 2.471-.461.869-1.035 1.979-1.458 2.772a24.165 24.165 0 01-.987 1.753 19.63 19.63 0 01-.964 1.394 22.6 22.6 0 01-1.014 1.26c-.31.364-.578.648-.755.841-.177.193-.268.306-.386.413zm-6.239.264c-.027.102.065.155.14.177.048.01.09.01.139.01.043 0 .08-.005.123 0 .043.006.086.022.134.038.043.016.091.016.14.016a.444.444 0 00.203-.054.291.291 0 00-.112-.075c-.22-.096-.188-.252-.542-.268-.096 0-.203.06-.225.156z" fill="#333"/></svg>