<svg width="40" height="40" fill="none" xmlns="http://www.w3.org/2000/svg"><path d="M20 40a20 20 0 100-40A20 20 0 000 20a20 20 0 0020 20z" fill="#0B7578"/><path d="M19.92 20.58a5.62 5.62 0 100-11.24 5.62 5.62 0 000 11.24zm0-7.95a2.33 2.33 0 110 4.66 2.33 2.33 0 010-4.66zm2.28 12.54a10.529 10.529 0 003.26-1.35 1.65 1.65 0 00.54-2.27 1.63 1.63 0 00-2.29-.55 7.13 7.13 0 01-7.57 0 1.651 1.651 0 10-1.76 2.79 10.477 10.477 0 003.27 1.35l-3.15 3.17a1.65 1.65 0 102.33 2.33l3.09-3.09L23 30.64a1.638 1.638 0 002.33 0 1.65 1.65 0 000-2.33l-3.13-3.14z" fill="#fff"/></svg>