<svg width="60" height="60" fill="none" xmlns="http://www.w3.org/2000/svg"><path d="M55.58 48H3.437a.44.44 0 01-.442-.444.445.445 0 01.442-.444H55.58a.44.44 0 01.442.444.445.445 0 01-.442.444z" fill="#0B7578" stroke="#0B7578" stroke-width="1.5" stroke-miterlimit="10"/><path d="M13.794 48H7.37a.43.43 0 01-.402-.275.437.437 0 01-.03-.169v-13.02a.437.437 0 01.432-.444h6.425a.432.432 0 01.434.444v13.002a.436.436 0 01-.434.462zm-5.992-.888h5.56v-12.14h-5.56v12.14zM26.415 48H19.99a.44.44 0 01-.442-.444V27.36a.436.436 0 01.442-.435h6.425a.43.43 0 01.408.267c.022.053.034.11.034.168v20.178a.445.445 0 01-.442.462zm-5.983-.888h5.541V27.804h-5.55l.009 19.308zM39.026 48h-6.425a.431.431 0 01-.433-.444V20.202a.436.436 0 01.433-.435h6.425a.432.432 0 01.433.435v27.336a.438.438 0 01-.26.427.43.43 0 01-.172.035zm-5.992-.888h5.56V20.637h-5.56v26.475zM51.647 48h-6.425a.432.432 0 01-.433-.444v-35.08a.435.435 0 01.433-.445h6.425a.432.432 0 01.398.444v35.063a.437.437 0 01-.398.462zm-5.992-.888h5.55V12.91h-5.55v34.2z" fill="#0B7578" stroke="#0B7578" stroke-width="1.5" stroke-miterlimit="10"/></svg>