<svg width="60" height="60" fill="none" xmlns="http://www.w3.org/2000/svg"><path d="M29.794 58.672c-2.328 0-4.605-.692-6.54-1.989a11.79 11.79 0 01-1.761-18.134 11.76 11.76 0 0112.836-2.523 11.767 11.767 0 015.27 4.359 11.787 11.787 0 011.959 6.556 11.794 11.794 0 01-3.465 8.295 11.767 11.767 0 01-8.299 3.436zm0-22.617a10.83 10.83 0 00-6.016 1.825 10.86 10.86 0 00-1.66 16.68 10.832 10.832 0 0011.797 2.377 10.859 10.859 0 003.555-17.691 10.835 10.835 0 00-7.676-3.191z" fill="#0B7578" stroke="#0B7578" stroke-miterlimit="10"/><path d="M29.841 54.87c-.89.01-1.77-.19-2.568-.58a3.752 3.752 0 01-1.434-1.39 4.696 4.696 0 01-.685-2.252.46.46 0 01.422-.498.468.468 0 01.497.432c.03.645.216 1.273.544 1.83.258.456.633.836 1.087 1.098 1.406.723 3.693.713 4.902-.563a3.295 3.295 0 00.938-2.374c0-.407-.073-.811-.216-1.192a2.656 2.656 0 00-.6-.939 3.357 3.357 0 00-1.03-.685 11.385 11.385 0 00-1.82-.581 10.512 10.512 0 01-2.69-.995 3.264 3.264 0 01-1.321-1.323 3.833 3.833 0 01-.46-1.877 3.89 3.89 0 011.322-3.022 4.683 4.683 0 013.018-.939 4.617 4.617 0 012.962.939 4.008 4.008 0 011.378 2.618.473.473 0 11-.937.122 3.042 3.042 0 00-1.06-2.027 3.69 3.69 0 00-2.37-.723 3.747 3.747 0 00-2.4.76 2.92 2.92 0 00-.985 2.225c-.01.505.107 1.005.338 1.454.217.396.542.721.937.939a10.3 10.3 0 002.475.938 12.34 12.34 0 011.95.629 4.06 4.06 0 011.321.873c.352.352.627.774.806 1.238a4.39 4.39 0 01.272 1.53 4.245 4.245 0 01-1.153 2.975 4.687 4.687 0 01-3.44 1.36z" fill="#0B7578" stroke="#0B7578" stroke-miterlimit="10"/><path d="M29.785 56.429a.459.459 0 01-.46-.46V37.894a.47.47 0 11.938 0v18.075a.458.458 0 01-.478.46zm.009-30.519c-2.327 0-4.602-.691-6.536-1.986a11.775 11.775 0 01-4.333-5.287A11.791 11.791 0 0121.48 5.801a11.76 11.76 0 0112.824-2.547 11.767 11.767 0 015.277 4.342 11.788 11.788 0 011.978 6.546 11.795 11.795 0 01-3.452 8.319 11.766 11.766 0 01-8.312 3.449zm0-22.617c-2.143 0-4.238.636-6.02 1.828a10.86 10.86 0 00-1.642 16.691 10.831 10.831 0 0011.809 2.353 10.839 10.839 0 004.863-3.996 10.858 10.858 0 001.826-6.027 10.865 10.865 0 00-3.176-7.669 10.839 10.839 0 00-7.66-3.18z" fill="#0B7578" stroke="#0B7578" stroke-miterlimit="10"/><path d="M34.443 13.438H23.195a.468.468 0 010-.939h11.248a.468.468 0 110 .939zm0 2.534H23.195a.468.468 0 010-.939h11.248a.468.468 0 110 .939z" fill="#0B7578" stroke="#0B7578" stroke-miterlimit="10"/><path d="M33.019 21.058h-1.997a6.82 6.82 0 01-4.66-2.087 6.836 6.836 0 010-9.48 6.82 6.82 0 014.66-2.088h2.034a.468.468 0 010 .939h-2.034a5.892 5.892 0 00-4.169 1.729 5.907 5.907 0 000 8.348 5.892 5.892 0 004.17 1.729h2.033a.459.459 0 01.46.46.47.47 0 01-.497.45z" fill="#0B7578" stroke="#0B7578" stroke-miterlimit="10"/><path d="M18.509 47.88a.45.45 0 01-.244-.066 21.306 21.306 0 01-3.178-2.384.442.442 0 010-.648.45.45 0 01.647 0c.948.84 1.97 1.591 3.056 2.243a.46.46 0 01.16.63.45.45 0 01-.441.224zm-5.296-4.59a.46.46 0 01-.357-.169 20.377 20.377 0 01-1.471-1.999.463.463 0 01.778-.497c.428.65.89 1.277 1.387 1.877a.458.458 0 01-.056.657.487.487 0 01-.281.131zM10.4 38.908a.47.47 0 01-.412-.263 21.93 21.93 0 01-1.012-2.6.49.49 0 01.937-.272c.257.846.57 1.674.937 2.478a.452.452 0 01-.225.61.506.506 0 01-.225.047zm-1.537-4.871a.45.45 0 01-.45-.375 20.499 20.499 0 01-.28-2.093.46.46 0 01.393-.497.459.459 0 01.497.422c.056.666.15 1.314.271 1.999a.451.451 0 01-.375.535l-.056.009zm-.347-3.754a.459.459 0 01-.459-.469c-.002-.743.04-1.486.122-2.224a.47.47 0 01.506-.413.458.458 0 01.413.507 20.134 20.134 0 00-.113 2.13.47.47 0 01-.46.46l-.009.01zm.6-4.927h-.112a.478.478 0 01-.338-.563c.232-.923.526-1.83.881-2.712a.46.46 0 11.853.338 20.962 20.962 0 00-.834 2.6.46.46 0 01-.45.337zm1.931-4.927a.498.498 0 01-.225-.056.47.47 0 01-.178-.648c.416-.744.873-1.465 1.369-2.158a.463.463 0 11.75.544 19.84 19.84 0 00-1.313 2.065.469.469 0 01-.403.235v.018zm2.962-4.082a.469.469 0 01-.318-.122.46.46 0 010-.657 20.194 20.194 0 011.63-1.567.468.468 0 01.657 0 .479.479 0 010 .657c-.549.475-1.071.98-1.566 1.51a.478.478 0 01-.403.16v.02zm3.093-2.712a.431.431 0 01-.374-.197.47.47 0 01.103-.648 23.12 23.12 0 011.603-1.032.461.461 0 01.681.515.462.462 0 01-.213.283c-.515.3-1.03.638-1.537.994a.44.44 0 01-.262.066v.019zM41.511 47.88a.44.44 0 01-.394-.226.45.45 0 01.16-.629 20.954 20.954 0 003.056-2.242.45.45 0 01.646 0 .46.46 0 010 .647 20.627 20.627 0 01-3.196 2.346.422.422 0 01-.272.103zm5.305-4.552a.44.44 0 01-.29-.113.46.46 0 01-.066-.647c.503-.597.97-1.224 1.397-1.877a.46.46 0 01.767-.016.464.464 0 01.011.513 20.202 20.202 0 01-1.462 2 .46.46 0 01-.357.102v.038zm2.813-4.383a.505.505 0 01-.197 0 .46.46 0 01-.225-.61c.37-.803.683-1.63.937-2.477a.469.469 0 01.89.272c-.277.884-.613 1.75-1.002 2.59a.48.48 0 01-.441.188l.038.037zm1.556-4.87H51.1a.45.45 0 01-.365-.535c.126-.66.214-1.328.262-2a.459.459 0 01.497-.421.468.468 0 01.431.497c-.056.685-.15 1.37-.281 2.093a.46.46 0 01-.497.328l.038.038zm.346-3.754a.459.459 0 01-.459-.47c0-.711-.038-1.422-.112-2.13a.461.461 0 01.412-.506.468.468 0 01.506.412c.075.751.122 1.502.122 2.225a.47.47 0 01-.506.422l.037.047zm-.637-4.965a.45.45 0 01-.44-.347 21.598 21.598 0 00-.835-2.6.46.46 0 01.611-.608.46.46 0 01.242.27 19.5 19.5 0 01.872 2.713.46.46 0 01-.338.563l-.112.01zm-1.922-4.927a.458.458 0 01-.412-.244 20.067 20.067 0 00-1.303-2.055.463.463 0 01.75-.544 22.97 22.97 0 011.369 2.14.47.47 0 01-.188.628.43.43 0 01-.216.057v.018zm-2.952-4.1a.46.46 0 01-.338-.141 20.127 20.127 0 00-1.537-1.511.462.462 0 01.61-.695c.6.526 1.133 1.042 1.63 1.567a.46.46 0 01-.168.762.43.43 0 01-.197.017zm-3.094-2.713a.44.44 0 01-.262-.084 19.27 19.27 0 00-1.537-.995.461.461 0 01.46-.798c.533.31 1.068.657 1.611 1.033a.47.47 0 01.103.647.43.43 0 01-.384.197h.01z" fill="#0B7578"/></svg>