<svg width="60" height="60" fill="none" xmlns="http://www.w3.org/2000/svg"><path d="M34.65 30.112v8.817h-9.3v-8.817h9.298z" stroke="#0B7578" stroke-width="2" stroke-linecap="round" stroke-linejoin="round"/><path d="M14.134 34.592L3.23 15.632h53.54l-10.985 18.96H34.65v-4.48h-9.298v4.48H14.135z" stroke="#0B7578" stroke-width="2" stroke-linecap="round" stroke-linejoin="round"/><path d="M3.23 54V15.632l10.905 18.96H25.35v4.337h9.298v-4.337h11.136l10.985-18.96V54H3.23z" stroke="#0B7578" stroke-width="2" stroke-linecap="round" stroke-linejoin="round"/><path d="M46.196 15.632H56.77V54H3.23V15.632h10.574" stroke="#0B7578" stroke-width="2" stroke-linecap="round" stroke-linejoin="round"/><path d="M34.65 34.592h11.135l10.985-18.96m-53.54 0l10.905 18.96H25.35m.001 0v-4.48h9.298v8.817h-9.298v-4.337zM9.521 48.463h3.873m8.486 0h3.882m8.477 0h3.881m8.477 0h3.882M46.196 6H13.804v9.632h32.392V6z" stroke="#0B7578" stroke-width="2" stroke-linecap="round" stroke-linejoin="round"/></svg>