<svg width="60" height="60" fill="none" xmlns="http://www.w3.org/2000/svg"><path d="M36.832 59.033h-23.35a.47.47 0 01-.482-.484V12.781a.476.476 0 01.472-.484h5.854a.47.47 0 01.472.484v4.942h10.88v-4.942a.476.476 0 01.473-.484h5.68a.47.47 0 01.473.484v45.768a.477.477 0 01-.29.447.47.47 0 01-.182.037zm-22.879-.968H36.36v-44.81h-4.737v4.942a.475.475 0 01-.472.474H19.326a.47.47 0 01-.471-.474v-4.942h-4.902v44.81z" fill="#0B7578" stroke="#0B7578" stroke-miterlimit="10"/><path d="M33.703 33.934H16.65a.47.47 0 01-.472-.474v-8.705a.475.475 0 01.472-.474h17.053a.47.47 0 01.481.474v8.705a.476.476 0 01-.481.474zm-16.534-.968h16.013V25.23h-16.06l.047 7.737zM31.15 18.671H19.327a.47.47 0 01-.471-.474V1.484a.476.476 0 01.47-.484h11.825a.47.47 0 01.472.474v16.723a.475.475 0 01-.472.474zm-11.352-.967H30.68V1.958H19.8v15.746z" fill="#0B7578" stroke="#0B7578" stroke-miterlimit="10"/><path d="M33.828 21.795H16.65a.47.47 0 01-.472-.474v-6.2a.475.475 0 01.472-.474h2.676a.47.47 0 01.472.474v2.602H30.68v-2.602a.475.475 0 01.472-.474h2.677a.47.47 0 01.471.474v6.161a.477.477 0 01-.281.474.469.469 0 01-.19.039zm-16.707-.967h16.235v-5.233h-1.733v2.602a.475.475 0 01-.472.474H19.326a.47.47 0 01-.471-.474v-2.602H17.12v5.233zm28.444 38.205h-8.733a.47.47 0 01-.472-.474V12.78a.476.476 0 01.472-.484h8.733a.47.47 0 01.472.484v45.768a.475.475 0 01-.472.484zm-8.261-.968h7.78v-44.81h-7.78v44.81z" fill="#0B7578" stroke="#0B7578" stroke-miterlimit="10"/><path d="M41.194 54.535a.47.47 0 01-.472-.474V17.307a.484.484 0 01.481-.483.48.48 0 01.482.483v36.754a.475.475 0 01-.491.474zm-21.328-7.999h-2.032a.48.48 0 01-.482-.483.485.485 0 01.482-.484h2.032a.48.48 0 01.481.484.485.485 0 01-.481.483zm6.307 0H24.14a.48.48 0 01-.482-.483.485.485 0 01.482-.484h2.032a.48.48 0 01.481.484.485.485 0 01-.481.483zm6.307 0h-2.032a.48.48 0 01-.482-.483.485.485 0 01.482-.484h2.032a.48.48 0 01.481.484.485.485 0 01-.481.483zM19.866 39.93h-2.032a.48.48 0 01-.482-.483.485.485 0 01.482-.484h2.032a.48.48 0 01.481.484.485.485 0 01-.481.483zm6.307 0H24.14a.48.48 0 01-.482-.483.485.485 0 01.482-.484h2.032a.48.48 0 01.481.484.485.485 0 01-.481.483zm6.307 0h-2.032a.48.48 0 01-.482-.483.485.485 0 01.482-.484h2.032a.48.48 0 01.481.484.485.485 0 01-.481.483zM19.866 53.142h-2.032a.48.48 0 01-.482-.483.485.485 0 01.482-.484h2.032a.48.48 0 01.481.484.485.485 0 01-.481.483zm6.307 0H24.14a.48.48 0 01-.482-.483.485.485 0 01.482-.484h2.032a.48.48 0 01.481.484.485.485 0 01-.481.483zm6.307 0h-2.032a.48.48 0 01-.482-.483.485.485 0 01.482-.484h2.032a.48.48 0 01.481.484.485.485 0 01-.481.483zM28.108 5.614h-5.777a.48.48 0 01-.482-.484.485.485 0 01.482-.484h5.777a.48.48 0 01.481.484.485.485 0 01-.481.484zm0 4.7h-5.777a.48.48 0 01-.482-.483.485.485 0 01.482-.484h5.777a.48.48 0 01.481.484.485.485 0 01-.481.483zm0 4.711h-5.777a.48.48 0 01-.482-.484.485.485 0 01.482-.484h5.777a.48.48 0 01.481.484.485.485 0 01-.481.484z" fill="#0B7578" stroke="#0B7578" stroke-miterlimit="10"/></svg>