<svg width="60" height="60" fill="none" xmlns="http://www.w3.org/2000/svg"><g clip-path="url(#clip0)" fill="#0B7578"><path d="M57.246 48.515h-46.86a2.28 2.28 0 01-1.599-.653 2.213 2.213 0 01-.662-1.576V21.082a2.201 2.201 0 01.662-1.577 2.263 2.263 0 011.6-.653h46.859a2.29 2.29 0 011.6.653 2.227 2.227 0 01.662 1.577v25.204a2.21 2.21 0 01-.663 1.576 2.28 2.28 0 01-1.6.653zm-46.86-28.694c-.342 0-.67.134-.914.372a1.27 1.27 0 00-.384.898v25.204c0 .34.137.665.38.905.244.24.575.375.919.375h46.859c.343-.003.67-.139.912-.378a1.27 1.27 0 00.376-.902V21.091c0-.337-.135-.66-.377-.898a1.298 1.298 0 00-.911-.372h-46.86z" stroke="#0B7578" stroke-width="1.5" stroke-miterlimit="10"/><path d="M59.016 29.312H8.606a.485.485 0 01-.34-.14.472.472 0 01-.141-.335v-3.878c0-.127.05-.248.14-.34a.495.495 0 01.341-.145h50.41a.495.495 0 01.342.146c.09.09.14.212.14.34v3.877a.47.47 0 01-.297.439.49.49 0 01-.185.036zm-49.937-.97h49.455v-2.908H9.088l-.01 2.908z"/><path d="M45.492 42.175a3.617 3.617 0 01-2.539-1.036 3.513 3.513 0 01-1.051-2.502c0-.938.378-1.838 1.051-2.502a3.617 3.617 0 012.539-1.036 3.579 3.579 0 012.479.97.49.49 0 010 .697c-.255.241-.458.53-.596.85a2.545 2.545 0 00.596 2.873.475.475 0 010 .688 3.578 3.578 0 01-2.48.998zm0-6.126a2.661 2.661 0 00-1.96.698 2.557 2.557 0 000 3.77 2.634 2.634 0 001.96.699 2.605 2.605 0 001.446-.427 3.466 3.466 0 01-.709-2.152c.001-.78.26-1.54.738-2.162a2.685 2.685 0 00-1.475-.426z" stroke="#0B7578" stroke-width="1.5" stroke-miterlimit="10"/><path d="M49.79 42.175c-.71 0-1.404-.207-1.995-.596a3.55 3.55 0 01-1.322-1.588 3.491 3.491 0 01-.204-2.044c.139-.686.48-1.317.983-1.812a3.607 3.607 0 011.838-.968 3.64 3.64 0 012.074.201 3.58 3.58 0 011.611 1.303 3.502 3.502 0 01-.446 4.468 3.617 3.617 0 01-2.539 1.036zm0-6.126a2.654 2.654 0 00-1.462.431 2.597 2.597 0 00-.971 1.16 2.554 2.554 0 00.563 2.824c.367.363.835.61 1.344.711.51.1 1.039.05 1.519-.146.48-.195.891-.527 1.18-.953.29-.426.444-.926.444-1.439a2.58 2.58 0 00-.77-1.824 2.656 2.656 0 00-1.847-.764zm-15.347-.911H13.492a.495.495 0 01-.342-.146.471.471 0 010-.675.49.49 0 01.342-.139h20.95c.128 0 .251.05.341.14a.472.472 0 01.001.674.495.495 0 01-.341.146zm0 5.768H13.492a.496.496 0 01-.348-.142.481.481 0 010-.686.496.496 0 01.348-.142h20.95c.131 0 .256.051.348.142a.481.481 0 010 .686.496.496 0 01-.347.142z" stroke="#0B7578" stroke-width="1.5" stroke-miterlimit="10"/><path d="M14.592 23h-2.184a.374.374 0 01-.289-.146A.563.563 0 0112 22.5a.56.56 0 01.12-.354.374.374 0 01.288-.146h2.184c.108 0 .212.053.289.146A.566.566 0 0115 22.5a.56.56 0 01-.12.354.374.374 0 01-.288.146zm5.866 0h-2.916a.567.567 0 01-.383-.146A.481.481 0 0117 22.5a.48.48 0 01.159-.354.567.567 0 01.383-.146h2.916c.144 0 .282.053.383.146A.481.481 0 0121 22.5a.48.48 0 01-.159.354.566.566 0 01-.383.146zm5.002 0h-2.92a.564.564 0 01-.382-.146A.482.482 0 0122 22.5c0-.133.057-.26.158-.354a.564.564 0 01.383-.146h2.918c.144 0 .281.053.383.146A.482.482 0 0126 22.5c0 .133-.057.26-.158.354a.564.564 0 01-.383.146z"/><path d="M8.606 41.129H2.754c-.6 0-1.175-.235-1.6-.654A2.213 2.213 0 01.492 38.9V13.714c0-.591.238-1.158.662-1.576a2.28 2.28 0 011.6-.653h46.859a2.279 2.279 0 011.593.656c.422.418.66.984.66 1.573v5.632a.47.47 0 01-.298.44.489.489 0 01-.184.035H10.386c-.343 0-.672.134-.915.372a1.27 1.27 0 00-.384.898v19.553a.469.469 0 01-.137.342.482.482 0 01-.345.143zM2.754 12.444a1.294 1.294 0 00-.914.37 1.26 1.26 0 00-.375.9v25.204c.006.334.144.652.385.886.24.234.566.365.904.365h5.37V21.09c0-.591.239-1.158.663-1.576a2.28 2.28 0 011.6-.653H50.9v-5.148c0-.337-.135-.66-.377-.898a1.298 1.298 0 00-.911-.372H2.754z" stroke="#0B7578" stroke-width="1.5" stroke-miterlimit="10"/></g><defs><clipPath id="clip0"><path fill="#fff" d="M0 0h60v60H0z"/></clipPath></defs></svg>