<svg width="60" height="60" fill="none" xmlns="http://www.w3.org/2000/svg"><g clip-path="url(#clip0)"><path d="M58.525 40.811a.495.495 0 01-.443-.273L47.41 17.536H20.164a.476.476 0 01-.482-.478v-9.57a.475.475 0 01.295-.45.485.485 0 01.187-.038h10.033a.495.495 0 01.413.224l2.184 3.376h25.73a.485.485 0 01.446.295c.024.058.037.12.037.183v29.265a.476.476 0 01-.384.468h-.098zM20.695 16.58h27.01a.494.494 0 01.443.274l9.836 21.285V11.565H32.528a.495.495 0 01-.413-.175L29.93 7.966h-9.236v8.613z" fill="#0B7578" stroke="#0B7578" stroke-miterlimit="10"/><path d="M58.525 40.811h-6.276a.486.486 0 01-.445-.295.475.475 0 01-.037-.183v-6a.408.408 0 00-.413-.409H39.836a.425.425 0 00-.423.41v6a.484.484 0 01-.482.478H20.164a.485.485 0 01-.433-.274l-4.75-10.301a.495.495 0 010-.469.471.471 0 01.403-.214h9.147l4.23-1.951-4.23-2.04h-11.42a.474.474 0 01-.432-.282L8.96 17.243a.494.494 0 010-.468.49.49 0 01.413-.215h38.33a.495.495 0 01.444.273l10.82 23.276a.495.495 0 010 .468.47.47 0 01-.443.234zm-5.804-.975h5.046l-10.357-22.3H10.16l3.266 7.033H24.68a.536.536 0 01.216 0l5.243 2.527a.48.48 0 010 .868l-5.253 2.507a.486.486 0 01-.206 0h-8.45l4.338 9.345H38.46v-5.482a1.37 1.37 0 01.406-.963c.258-.256.607-.4.971-.403h11.518c.365 0 .716.144.974.4s.403.603.403.966l-.01 5.502z" fill="#0B7578" stroke="#0B7578" stroke-miterlimit="10"/><path d="M51.354 53.025H39.836a1.395 1.395 0 01-.983-.396 1.375 1.375 0 01-.413-.97V34.334a1.364 1.364 0 01.413-.97 1.387 1.387 0 01.983-.396h11.518c.365 0 .716.144.974.4s.403.604.403.966v17.325c0 .362-.145.71-.403.965a1.38 1.38 0 01-.974.4zm-11.518-19.1a.425.425 0 00-.423.409v17.325a.427.427 0 00.423.41h11.518a.424.424 0 00.413-.41V34.334a.415.415 0 00-.413-.41H39.836z" fill="#0B7578" stroke="#0B7578" stroke-miterlimit="10"/><path d="M49.908 39.563h-8.616a.484.484 0 01-.482-.479v-3.306a.484.484 0 01.482-.478h8.616a.484.484 0 01.482.478v3.277a.473.473 0 01-.29.469.485.485 0 01-.192.038zm-8.105-.957h7.643v-2.311h-7.643v2.311zm1.23 4.693h-1.76a.483.483 0 01-.483-.478v-1.834a.486.486 0 01.482-.488h1.76a.494.494 0 01.483.488v1.834a.484.484 0 01-.482.478zm-1.27-.976h.788v-.878h-.748l-.04.878zm4.712.976h-1.72a.493.493 0 01-.493-.478v-1.834a.496.496 0 01.492-.488h1.75c.131 0 .256.051.349.143a.486.486 0 01.144.345v1.834a.474.474 0 01-.325.453.485.485 0 01-.197.025zm-1.269-.976h.787v-.878h-.787v.878zm4.722.976h-1.76a.484.484 0 01-.446-.295.475.475 0 01-.037-.183v-1.834a.486.486 0 01.482-.488h1.76a.486.486 0 01.482.488v1.834c0 .127-.05.248-.14.338a.483.483 0 01-.341.14zm-1.269-.976h.787v-.878h-.758l-.029.878zm-5.626 4.741h-1.76a.485.485 0 01-.446-.295.475.475 0 01-.037-.183v-1.834a.486.486 0 01.482-.488h1.76a.493.493 0 01.483.488v1.834a.476.476 0 01-.482.478zm-1.27-.975h.788v-.878h-.748l-.04.878zm4.712.975h-1.72a.494.494 0 01-.493-.478v-1.834a.495.495 0 01.492-.488h1.75a.486.486 0 01.492.488v1.834a.474.474 0 01-.324.454.485.485 0 01-.197.024zm-1.269-.975h.787v-.878h-.787v.878zm4.722.975h-1.76a.486.486 0 01-.446-.295.475.475 0 01-.037-.183v-1.834a.486.486 0 01.482-.488h1.76a.494.494 0 01.483.488v1.834a.476.476 0 01-.482.478zm-1.269-.975h.787v-.878h-.758l-.029.878zm-5.626 4.741h-1.76a.483.483 0 01-.483-.478v-1.825a.473.473 0 01.295-.45.484.484 0 01.187-.037h1.76a.484.484 0 01.449.302.49.49 0 01.034.185v1.825a.473.473 0 01-.298.441.484.484 0 01-.184.037zm-1.27-.976h.788v-.868h-.748l-.04.868zm4.712.976h-1.72a.493.493 0 01-.493-.478v-1.825a.486.486 0 01.492-.487h1.75a.486.486 0 01.492.488v1.824a.474.474 0 01-.324.453.485.485 0 01-.197.025zm-1.269-.976h.787v-.868h-.787v.868zm4.722.976h-1.76a.484.484 0 01-.446-.295.475.475 0 01-.037-.183v-1.825a.475.475 0 01.295-.45.485.485 0 01.187-.037h1.76a.484.484 0 01.449.302.47.47 0 01.034.185v1.825a.475.475 0 01-.298.441.484.484 0 01-.184.037zm-1.269-.976h.787v-.868h-.758l-.029.868z" fill="#0B7578"/><path d="M43.033 43.299h-1.76a.483.483 0 01-.483-.478v-1.834a.486.486 0 01.482-.488h1.76a.494.494 0 01.483.488v1.834a.484.484 0 01-.482.478zm-1.27-.976h.788v-.878h-.748l-.04.878zm4.712.976h-1.72a.493.493 0 01-.493-.478v-1.834a.496.496 0 01.492-.488h1.75c.131 0 .256.051.349.143a.486.486 0 01.144.345v1.834a.474.474 0 01-.325.453.485.485 0 01-.197.025zm-1.269-.976h.787v-.878h-.787v.878zm4.722.976h-1.76a.484.484 0 01-.446-.295.475.475 0 01-.037-.183v-1.834a.486.486 0 01.482-.488h1.76a.486.486 0 01.482.488v1.834c0 .127-.05.248-.14.338a.483.483 0 01-.341.14zm-1.269-.976h.787v-.878h-.758l-.029.878zm-5.626 4.741h-1.76a.485.485 0 01-.446-.295.475.475 0 01-.037-.183v-1.834a.486.486 0 01.482-.488h1.76a.493.493 0 01.483.488v1.834a.476.476 0 01-.482.478zm-1.27-.975h.788v-.878h-.748l-.04.878zm4.712.975h-1.72a.494.494 0 01-.493-.478v-1.834a.495.495 0 01.492-.488h1.75a.486.486 0 01.492.488v1.834a.474.474 0 01-.324.454.485.485 0 01-.197.024zm-1.269-.975h.787v-.878h-.787v.878zm4.722.975h-1.76a.486.486 0 01-.446-.295.475.475 0 01-.037-.183v-1.834a.486.486 0 01.482-.488h1.76a.494.494 0 01.483.488v1.834a.476.476 0 01-.482.478zm-1.269-.975h.787v-.878h-.758l-.029.878zm-5.626 4.741h-1.76a.483.483 0 01-.483-.478v-1.825a.473.473 0 01.295-.45.484.484 0 01.187-.037h1.76a.484.484 0 01.449.302.49.49 0 01.034.185v1.825a.473.473 0 01-.298.441.484.484 0 01-.184.037zm-1.27-.976h.788v-.868h-.748l-.04.868zm4.712.976h-1.72a.493.493 0 01-.493-.478v-1.825a.486.486 0 01.492-.487h1.75a.486.486 0 01.492.488v1.824a.474.474 0 01-.324.453.485.485 0 01-.197.025zm-1.269-.976h.787v-.868h-.787v.868zm4.722.976h-1.76a.484.484 0 01-.446-.295.475.475 0 01-.037-.183v-1.825a.475.475 0 01.295-.45.485.485 0 01.187-.037h1.76a.484.484 0 01.449.302.47.47 0 01.034.185v1.825a.475.475 0 01-.298.441.484.484 0 01-.184.037zm-1.269-.976h.787v-.868h-.758l-.029.868z" stroke="#0B7578" stroke-width=".5" stroke-miterlimit="10"/><path d="M24.679 30.51H3.246a.484.484 0 01-.482-.478v-4.985a.474.474 0 01.295-.45.486.486 0 01.187-.038h21.433a.536.536 0 01.216 0l5.243 2.527a.481.481 0 01.275.429.485.485 0 01-.275.439l-5.253 2.517a.484.484 0 01-.206.039zm-20.951-.976H24.57l4.23-1.95-4.23-2.04H3.728v3.99z" fill="#0B7578" stroke="#0B7578" stroke-miterlimit="10"/><path d="M24.679 30.51a.476.476 0 01-.482-.478v-4.985a.494.494 0 01.984 0v4.975a.473.473 0 01-.31.456.485.485 0 01-.192.032zm-21.433 0h-1.77a1.48 1.48 0 01-1.044-.429A1.457 1.457 0 010 29.047v-3.024a1.47 1.47 0 01.438-1.026 1.491 1.491 0 011.037-.428h1.77a.484.484 0 01.449.302.472.472 0 01.034.186v4.975a.474.474 0 01-.298.441.484.484 0 01-.184.037zm-1.77-4.975a.514.514 0 00-.502.507v3.005a.494.494 0 00.307.468.506.506 0 00.194.039h1.289v-4.02H1.475zm4.701 4.975a.484.484 0 01-.34-.14.476.476 0 01-.142-.338v-4.985a.494.494 0 01.984 0v4.975a.474.474 0 01-.31.456.484.484 0 01-.192.032z" fill="#0B7578" stroke="#0B7578" stroke-miterlimit="10"/></g><defs><clipPath id="clip0"><path fill="#fff" d="M0 0h60v60H0z"/></clipPath></defs></svg>