<svg width="60" height="60" fill="none" xmlns="http://www.w3.org/2000/svg"><g clip-path="url(#clip0)" fill="#0B7578"><path d="M54.11 40.934H4.93a.485.485 0 01-.482-.49V13.49A.48.48 0 014.91 13h49.18a.484.484 0 01.502.49v26.983a.48.48 0 01-.482.46zm-48.699-.98h48.197V13.97H5.411v25.983z" stroke="#0B7578" stroke-miterlimit="10"/><path d="M55.487 47.02H3.523a3.538 3.538 0 01-2.49-1.034 3.512 3.512 0 01-1.031-2.484v-3.029a.479.479 0 01.491-.52h58.033a.483.483 0 01.482.48v3.03a3.508 3.508 0 01-1.017 2.51 3.53 3.53 0 01-2.504 1.047zM.975 40.934v2.538a2.53 2.53 0 00.743 1.802 2.55 2.55 0 001.805.747h51.964a2.556 2.556 0 001.811-.744 2.538 2.538 0 00.746-1.805v-2.538H.975z" stroke="#0B7578" stroke-miterlimit="10"/><path d="M36.887 43.992H22.133a1.97 1.97 0 01-1.391-.575 1.957 1.957 0 01-.576-1.386v-1.558a.48.48 0 01.482-.48H38.43a.483.483 0 01.482.48v1.52a1.955 1.955 0 01-1.246 1.863 1.974 1.974 0 01-.78.136zM21.07 40.934v.98a1.038 1.038 0 001.063 1.107h14.754a.99.99 0 00.713-.304.981.981 0 00.27-.725v-1.058h-16.8z" stroke="#0B7578" stroke-miterlimit="10"/><path d="M52.015 40.934H7.005a.493.493 0 01-.492-.49V15.45a.479.479 0 01.492-.48h45.01a.485.485 0 01.454.294.48.48 0 01.038.186v24.993a.49.49 0 01-.492.49zm-44.528-.98h44.046V15.96H7.487v23.994z"/><path d="M29.51 38.68a10.797 10.797 0 01-5.988-1.805 10.74 10.74 0 01-3.97-4.816 10.697 10.697 0 01-.616-6.203 10.72 10.72 0 012.948-5.498 10.783 10.783 0 015.517-2.937c2.09-.414 4.257-.2 6.225.613 1.969.813 3.65 2.19 4.833 3.957a10.706 10.706 0 011.811 5.966 10.762 10.762 0 01-3.168 7.565 10.838 10.838 0 01-7.592 3.157zm0-20.485a9.86 9.86 0 00-5.465 1.652 9.808 9.808 0 00-3.623 4.398 9.768 9.768 0 00-.56 5.663 9.79 9.79 0 002.693 5.019 9.869 9.869 0 0010.72 2.125 9.83 9.83 0 004.413-3.61 9.777 9.777 0 00-1.223-12.376 9.854 9.854 0 00-6.955-2.87z" stroke="#0B7578" stroke-miterlimit="10"/><path d="M29.559 35.23a5.197 5.197 0 01-2.36-.54 3.466 3.466 0 01-1.329-1.264 4.458 4.458 0 01-.639-2.078.489.489 0 01.452-.52.503.503 0 01.522.452 3.53 3.53 0 00.482 1.627c.23.411.57.75.983.98a3.946 3.946 0 004.387-.5c.533-.567.82-1.321.797-2.098a2.93 2.93 0 00-.197-1.068 2.37 2.37 0 00-.521-.804 2.952 2.952 0 00-.925-.607 10.668 10.668 0 00-1.642-.52 9.8 9.8 0 01-2.518-.96 3.113 3.113 0 01-1.22-1.225 3.518 3.518 0 01-.423-1.735 3.558 3.558 0 011.25-2.794 4.21 4.21 0 012.783-.901 4.328 4.328 0 012.734.852 3.7 3.7 0 011.27 2.412.493.493 0 01-.424.558.498.498 0 01-.56-.421 2.79 2.79 0 00-.984-1.813 3.313 3.313 0 00-2.075-.628 3.29 3.29 0 00-2.145.667 2.59 2.59 0 00-.905 2.068c-.01.444.095.883.305 1.274.195.356.489.648.846.843a8.749 8.749 0 002.243.813c.607.148 1.202.342 1.78.579.456.184.87.458 1.22.803.326.327.58.717.747 1.147.176.45.262.929.256 1.411a3.85 3.85 0 01-1.062 2.764 4.311 4.311 0 01-3.128 1.226z" stroke="#0B7578" stroke-miterlimit="10"/><path d="M29.51 36.64a.483.483 0 01-.482-.48V19.794a.49.49 0 01.492-.49.493.493 0 01.491.49V36.16a.479.479 0 01-.501.48z" stroke="#0B7578" stroke-miterlimit="10"/></g><defs><clipPath id="clip0"><path fill="#fff" d="M0 0h60v60H0z"/></clipPath></defs></svg>