<svg width="60" height="60" fill="none" xmlns="http://www.w3.org/2000/svg"><path d="M30.115 53.222A23.117 23.117 0 018.76 38.955a23.108 23.108 0 0116.845-31.51 23.118 23.118 0 0123.729 9.826 23.108 23.108 0 01-2.875 29.182 23.117 23.117 0 01-16.344 6.769zm0-45.452A22.347 22.347 0 009.47 21.562a22.337 22.337 0 0016.285 30.46 22.348 22.348 0 0022.937-9.5 22.338 22.338 0 003.766-12.411 22.336 22.336 0 00-13.79-20.654 22.347 22.347 0 00-8.554-1.702v.015z" fill="#0B7578" stroke="#0B7578" stroke-width="2" stroke-miterlimit="10"/><path d="M30.693 32.553a9.416 9.416 0 01-9.485-9.321 9.482 9.482 0 019.485-9.484 9.485 9.485 0 019.484 9.484 9.413 9.413 0 01-9.484 9.321zm0-17.888a8.661 8.661 0 00-8.722 8.567 8.72 8.72 0 008.722 8.72 8.723 8.723 0 008.722-8.72 8.658 8.658 0 00-8.722-8.567zm-.578 38.557a22.948 22.948 0 01-14.085-4.784.393.393 0 01-.146-.3v-3.082A10.938 10.938 0 0126.809 34.11h7.767A10.942 10.942 0 0145.5 45.041v2.141a.399.399 0 01-.123.285 23.117 23.117 0 01-15.263 5.755zM16.63 47.945a22.347 22.347 0 0028.1-.94v-1.964a10.176 10.176 0 00-10.17-10.17h-7.752a10.17 10.17 0 00-10.178 10.17v2.904z" fill="#0B7578" stroke="#0B7578" stroke-width="2" stroke-miterlimit="10"/></svg>