<svg width="74" height="74" fill="none" xmlns="http://www.w3.org/2000/svg"><path d="M37 74c20.434 0 37-16.566 37-37S57.434 0 37 0 0 16.566 0 37s16.566 37 37 37z" fill="#fff"/><path d="M55.192 31.29L37.37 19.462a.678.678 0 00-.74 0L18.808 31.29a.678.678 0 00.37 1.233h35.644a.678.678 0 00.37-1.233z" fill="#0B7578"/><path d="M25.9 29.674l11.1-7.4a.148.148 0 01.173 0l11.1 7.4a.148.148 0 01-.087.284H25.9a.149.149 0 01-.106-.142.148.148 0 01.106-.142zm29.526 23.384H18.574v1.591h36.852v-1.591zM26.96 36.815h-4.489v11.963h4.49V36.815zm8.178 0h-4.49v11.963h4.49V36.815zm8.263 0h-4.49v11.963h4.49V36.815zm8.128 0h-4.49v11.963h4.49V36.815zm-23.952-2.639H21.88v1.59h5.698v-1.59zm8.165-.062h-5.698v1.591h5.698v-1.591zm8.263.062h-5.698v1.59h5.698v-1.59zm8.128-.062h-5.698v1.591h5.698v-1.591zM27.577 50.172H21.88v1.591h5.698v-1.591zm8.165-.062h-5.698v1.591h5.698v-1.59zm8.263.062h-5.698v1.591h5.698v-1.591zm8.128-.062h-5.698v1.591h5.698v-1.59z" fill="#0B7578"/></svg>