<svg width="74" height="74" fill="none" xmlns="http://www.w3.org/2000/svg"><path d="M37 74c20.434 0 37-16.566 37-37S57.434 0 37 0 0 16.566 0 37s16.566 37 37 37z" fill="#fff"/><path d="M50.567 27.343a1.234 1.234 0 00-.938 2.084 8.312 8.312 0 01-4.119-.888 32.727 32.727 0 00-4.415-1.64A14.69 14.69 0 0037 26.295c-1.399.003-2.79.207-4.132.604a32.74 32.74 0 00-4.501 1.64 8.312 8.312 0 01-4.12.888 1.232 1.232 0 00-.513-1.94 1.232 1.232 0 00-1.67 1.114 1.233 1.233 0 00.642 1.098h.11a7.4 7.4 0 005.81-.37A21.707 21.707 0 0137 27.824c2.834-.028 5.645.5 8.276 1.554a7.4 7.4 0 005.809.37h.11a1.233 1.233 0 00.642-1.098 1.233 1.233 0 00-1.27-1.307z" fill="#0B7578"/><path d="M37 25.11a1.838 1.838 0 00-1.838 1.838h3.7A1.838 1.838 0 0037 25.111zm.703 2.06h-1.48v19.931h1.48v-19.93z" fill="#0B7578"/><path d="M44.832 49.198c-2.513-.1-4.96-.83-7.117-2.122l-.505-.308-.21-.345-.259.345-.506.308a14.997 14.997 0 01-7.116 2.122.555.555 0 00-.518.555.543.543 0 00.543.542h15.663a.543.543 0 00.543-.542.555.555 0 00-.518-.555zM18.5 40.959a4.933 4.933 0 009.521 0H18.5z" fill="#0B7578"/><path d="M19.376 41.39l-.37-.197 4.255-7.733 4.255 7.733-.37.198-3.885-7.067-3.885 7.067z" fill="#0B7578"/><path d="M23.47 29.464h-.419v13.074h.42V29.464z" fill="#0B7578"/><path d="M23.285 35.323a.765.765 0 100-1.53.765.765 0 000 1.53zm22.694 5.636a4.934 4.934 0 009.521 0h-9.521z" fill="#0B7578"/><path d="M54.624 41.39l-3.885-7.066-3.885 7.067-.37-.198 4.255-7.733 4.255 7.733-.37.198z" fill="#0B7578"/><path d="M50.949 29.464h-.42v13.074h.42V29.464z" fill="#0B7578"/><path d="M50.752 35.323a.765.765 0 100-1.53.765.765 0 000 1.53zM37.765 25.234a.975.975 0 00-.666-1.53H36.9a.974.974 0 00-.678 1.518l.765 1.11.777-1.098z" fill="#0B7578"/></svg>