<svg width="60" height="60" fill="none" xmlns="http://www.w3.org/2000/svg"><path d="M30 60c16.569 0 30-13.431 30-30C60 13.431 46.569 0 30 0 13.431 0 0 13.431 0 30c0 16.569 13.431 30 30 30z" fill="#fff"/><path d="M46.267 39.457c0-4.108-3.37-4.96-3.37-4.96l-7.951-1.31-.83-1.741h-.342V29.39a8.59 8.59 0 002.533-4.283c.07.014.143.014.213 0a2.473 2.473 0 001.225-2.032c.183-1.248-.19-2.35-.844-2.495h-.076a6.004 6.004 0 00-.046-2.146 5.422 5.422 0 00-.472-1.415 1.651 1.651 0 00-1.521-.92 4.458 4.458 0 00-4.87-3.12 8.8 8.8 0 00-2.822.624c-1.522.624-4.406 3.12-3.538 5.835.105.192.177.4.213.617a3.42 3.42 0 010 .502.496.496 0 00-.183-.015c-.677.122-1.065 1.24-.875 2.503a2.808 2.808 0 001.027 1.948.952.952 0 00.297.114 8.521 8.521 0 002.595 4.382v1.948h-.35l-.837 1.735-2.39.403-5.554.92s-3.37.853-3.37 4.961v8.012h32.107l.03-8.012zm-9.58-18.914h-.136.137zm-12.294-.312v-.114c0-.038-.008.099 0 .137v-.023z" fill="gray" opacity=".7"/><path d="M33.348 28.851h-7.114v8.407h7.114v-8.407z" fill="#F2F2F2"/><path d="M29.75 32.754h-.009v-.007l.008.007z" fill="#E5E5E5"/><path d="M23.814 24.712a.76.76 0 01-.532-.114 2.755 2.755 0 01-1.027-1.948c-.19-1.263.198-2.381.867-2.503a.764.764 0 01.183 0 .245.245 0 01.106 0 .96.96 0 01.426.236c.479.493.777 1.134.845 1.818.19 1.271-.198 2.39-.868 2.511zm13.513-2.062c-.16 1.043-.67 1.864-1.217 2.032a.663.663 0 01-.343 0c-.67-.122-1.065-1.24-.867-2.496a3.127 3.127 0 01.76-1.765c.12-.123.266-.217.427-.274a.76.76 0 01.35 0c.7.152 1.073 1.256.89 2.503z" fill="#F2F2F2"/><path d="M29.787 43.946v3.105H13.733v-8.02a4.87 4.87 0 013.378-4.96l7.898-1.301h.046l.814-1.75h.342l1.202 1.772.327.487 1.393 2.945.114 1.057.54 6.665z" fill="#0B7578"/><path d="M29.787 43.946l-1.126-6.688-.16-.966-2.267.13-.183.007.183-.441 1.065-2.58-.22-.365-.845-1.438-.343-.585h.343l1.202 1.772.327.48 1.392 2.952.092 1.034.54 6.688z" fill="#727172"/><path d="M18.116 47.05v-7.623l.821 7.623h-.821z" fill="#A1A6A7"/><path d="M45.84 39.031v8.02H29.788v-3.105l.548-6.665.099-1.057 1.392-2.945 1.522-2.282h.35l.829 1.742 7.95 1.309a4.869 4.869 0 013.364 4.983z" fill="#0B7578"/><path d="M33.348 35.995l.175.434-.175-.008-2.268-.129-.167.966-1.126 6.688.548-6.688.083-1.034 1.393-2.952 1.529-2.252h.35l-.342.578-1.073 1.81 1.073 2.587z" fill="#727172"/><path d="M41.466 47.05v-7.623l-.83 7.623h.83z" fill="#A1A6A7"/><path d="M33.34 31.02l-1.53 2.252-1.391 2.952-.084 1.034-.548 6.688-.54-6.688-.091-1.034-1.393-2.952-.327-.48-1.202-1.773 1.75 1.4 1.05.837.753 4.002.753-4.002 2.8-2.236z" fill="#fff"/><path d="M33.348 28.851l-5.456 3.63-.456.311-.137.617-1.278 1.103-3.508-.137-5.402-.304 2.496-.411 3.043-.502 2.405-.396.814-1.742h.342v-2.2l7.137.031z" fill="#D5BFAE" opacity=".74"/><path d="M36.262 21.867c.002.767-.077 1.532-.236 2.282-.753 3.591-3.31 6.285-6.292 6.285-2.983 0-5.585-2.709-6.323-6.369a11.149 11.149 0 01-.213-2.168c-.001-.767.08-1.533.244-2.282.011-.072.026-.143.045-.213 0 .076.038.152.061.228a.96.96 0 01.426.236c-.205-.807.396-2.237.86-2.937.639-.982 1.72-1.172 2.792-1.408 1.36-.256 2.74-.396 4.124-.418a3.104 3.104 0 012.191.7c-.35 1.255.677 3.18 1.659 4.116.12-.122.265-.215.426-.274.04.152.067.308.083.464.1.58.151 1.169.153 1.758z" fill="#F2F2F2"/><path d="M36.399 20.162a.76.76 0 00-.35 0c-.16.057-.303.151-.419.274-.989-.936-1.978-2.67-1.765-4.093a2.892 2.892 0 00-2.092-.761 24.46 24.46 0 00-4.124.426c-1.073.236-2.146.426-2.792 1.408-.465.7-1.066 2.13-.86 2.929a2.083 2.083 0 00-.632-.244c0-.068.054-.38 0-.525a1.942 1.942 0 00-.213-.616c-.86-2.716 1.994-5.212 3.538-5.836a9.27 9.27 0 012.823-.623 4.474 4.474 0 014.877 3.119 1.674 1.674 0 011.522.92c.22.45.381.925.479 1.416.133.73.135 1.476.008 2.206z" fill="#0B7578"/><path d="M28.433 38.346a.684.684 0 11-.677-.684.677.677 0 01.677.684z" fill="#D5D5D5"/><path d="M27.756 38.126a.22.22 0 11-.441 0 .22.22 0 01.44 0z" fill="#fff"/><path d="M32.495 38.346a.685.685 0 11-1.37 0 .685.685 0 011.37 0z" fill="#D5D5D5"/><path d="M31.81 38.126a.22.22 0 11-.44 0 .22.22 0 01.44 0z" fill="#fff"/></svg>