<svg width="60" height="60" fill="none" xmlns="http://www.w3.org/2000/svg"><path d="M30 60c16.569 0 30-13.431 30-30C60 13.431 46.569 0 30 0 13.431 0 0 13.431 0 30c0 16.569 13.431 30 30 30z" fill="#fff"/><path d="M43.322 24.552l-1.339-2.488h.046a.237.237 0 00.144.038.282.282 0 00.282-.289.275.275 0 00-.29-.274.29.29 0 00-.28.282.1.1 0 000 .045 1.848 1.848 0 01-.8.198 1.788 1.788 0 01-.996-.357 4.233 4.233 0 00-1.012-.404.631.631 0 00-.274-.304v-.6a.981.981 0 000-1.949v-.258h-.609v.304l-4.032.57-3.804-1.59.053-.403-.122-.06-.51-.275-.205-.09a1.623 1.623 0 01-.236.326 1.351 1.351 0 00-.22-.053 2.463 2.463 0 00-.35 0 1.433 1.433 0 01-.26 0h-.06a1.014 1.014 0 01-.213-.076h-.053a.857.857 0 01-.16-.114 1.132 1.132 0 01-.13-.137v-.046a1.915 1.915 0 01-.098-.167v-.061l-.069-.16v-.06l-.046-.168a.239.239 0 010-.06v-.191a2.506 2.506 0 000 .32h.282l.898-.411.448-.761-.19-2.443-1.339-1.521-.791-.213-.586.266-.586-.266-.646.106-1.31 1.522-.128 2.45.471.76.898.389h.29a2.01 2.01 0 000-.206.541.541 0 000-.106h.037l-.045.266v.205a1.515 1.515 0 01-.061.168v.038a1.666 1.666 0 01-.114.198v.045c-.037.05-.078.095-.122.137v.038c-.21.187-.48.29-.761.29a1.446 1.446 0 00-.807.19l-.197-.175a3.804 3.804 0 00-.662.6l.076.533-2.16 3.683a.575.575 0 00-.07.068l-2.662 2.96-.267-.373-.677.48.373.54a.981.981 0 001.058 1.521l.357.495-1.11.677.25.358.875-.617 4.398 6.034 1.522 8.643-.48 2.04-2.761.037v2.42h-.7l.038 2.8 12.759-.122v-2.8h-1.08v-2.42h-2.663l-.335-3.043 1.133-7.205.343-2.176-.168-1.636-.312-3.18-.867-1.91v-.76l.267-.191.418-1.385.198-1.696.121-.96-.152-.372-.213-.533.966.411 2.443 1.027a.989.989 0 00.297.107h.365l3.987-.563v.525a.67.67 0 00-.267.297 4.03 4.03 0 00-.966.456 1.796 1.796 0 01-.99.38 1.826 1.826 0 01-.813-.212v-.054a.281.281 0 10-.563.008.282.282 0 00.281.281.24.24 0 00.13-.038l.053.038-1.263 2.48h-.152v.244h.19a1.452 1.452 0 001.37.913 1.439 1.439 0 001.339-.943h.19v-.244h-.145l-1.24-2.282c.204.098.422.162.647.19.34.016.676-.063.974-.228.306-.183.63-.335.966-.457a.616.616 0 001.11 0c.344.108.676.25.99.426.3.156.636.227.974.206.239-.035.47-.11.684-.22l-1.202 2.35h-.137v.236h.19a1.453 1.453 0 002.71 0h.19v-.236l-.153-.023zM28.105 14.7zM23.26 27.771l-.312 4.397-3.355-4.884.95-.655-.25-.357-1.02.76-.373-.517 2.96-3.294v-.038a.927.927 0 00.228-.259l.305-.517.669-1.142.616 2.055v.989l.685.433v.761l-1.103 2.268zm11.915-3.12h-1.248l1.225-2.396.023 2.396zm1.354 0h-1.255v-2.389l1.255 2.39zm5.326-.068h-1.248l1.24-2.397.008 2.397zm.099 0V22.2l1.278 2.366-1.278.016z" fill="gray" opacity=".7"/><path d="M42.957 24.202l-1.331-2.457h.045a.282.282 0 00.419-.251.28.28 0 00-.244-.343.28.28 0 00-.281.29v.038a1.818 1.818 0 01-.837.243 1.795 1.795 0 01-.997-.35 3.806 3.806 0 00-.981-.434.563.563 0 00-.274-.289v-2.807h-.578l.038 2.807a.563.563 0 00-.267.297c-.344.107-.671.26-.974.456a1.788 1.788 0 01-.989.373 1.84 1.84 0 01-.814-.205.149.149 0 000-.053.28.28 0 00-.289-.282.281.281 0 10.008.563.251.251 0 00.13 0h.052l-1.316 2.496h-.144v.236h.197a1.446 1.446 0 002.701 0h.198v-.236h-.144l-1.248-2.283c.205.1.427.162.654.183.337.015.672-.064.966-.228.309-.183.635-.334.974-.45a.609.609 0 001.111 0c.34.112.669.254.982.427.297.162.636.233.974.205.24-.031.471-.106.684-.22l-1.194 2.358h-.145v.244h.198a1.446 1.446 0 002.7 0h.199v-.335l-.183.007zm-8.14.092H33.56l1.225-2.397.03 2.397zm1.346 0h-1.248v-2.382l1.248 2.382zm5.326-.061h-1.256l1.225-2.397.03 2.397zm.099 0v-2.39l1.278 2.375-1.278.015zm-7.008-4.116a.99.99 0 01-1.286.525l-4.336-1.834a.974.974 0 01-.525-1.309.982.982 0 011.285-.517l4.337 1.826a.982.982 0 01.525 1.286v.023z" fill="#0B7578"/><path d="M39.282 18.93a.981.981 0 01-.83 1.11l-4.663.67a.989.989 0 01-1.073-.837.983.983 0 01.837-1.11l4.656-.663a.981.981 0 011.111.83h-.038z" fill="#0B7578"/><path opacity=".6" d="M29.134 24.299l-5.127.061.009.746 5.127-.062-.009-.745z" fill="#0B7578"/><path d="M24.02 25.108l-1.12 2.305-.357 5.06 1.681 9.761-.555 2.397 1.08.502 1.537-.631 1.69.593 1.4-.578-.366-3.37 1.476-9.374-.48-4.824-.867-1.902-5.12.06z" fill="#0B7578"/><path d="M24.773 34.999l.746 1.78-1.415-1.3-5.79-7.952.897-.631 5.562 8.103z" fill="#EDEDED"/><path d="M19.158 27.162l5.448 7.928.395.951-.015-.008-6.11-8.666.282-.205z" fill="#fff"/><path d="M19.897 25.93l-2.685 1.895.25.354 2.685-1.896-.25-.354z" fill="#C7C7C7"/><path d="M17.085 24.123l-.684.483 1.791 2.536.684-.483-1.791-2.536z" fill="#949494"/><path d="M21.395 21.456a.973.973 0 01.076 1.384l-3.15 3.5a.975.975 0 01-1.385.069.974.974 0 01-.068-1.385l3.142-3.5a.973.973 0 011.385-.068zm8.742-1.385l-.32 2.648-.418 1.384-.266.19-5.12.054-.686-.434v-.981l-.654-2.199-.494-3.492c.198-.224.42-.426.661-.601l.198.175c1.065.92 2.42 1.628 3.804 1.225a4.208 4.208 0 001.842-1.073l.296-.32c.09-.1.17-.21.236-.327l.198.091.662.312-.304 2.443.365.905z" fill="#0B7578"/><path d="M30.746 19.569l-.974-.403.25-2.024.533.22.19 2.207z" fill="#D3D3D3" opacity=".53"/><path d="M29.011 41.146l.373 3.37-1.332.549-.464-5.159 1.522-8.194-.015-1.058-.868 1.75-1.643 5.143.822-5.774 1.666-3.272-.008-.959-1.118-1.993-2.313-.456 3.515-.046.86 1.91.479 4.808-1.476 9.381zm1.126-21.075l-.32 2.648-.418 1.384-.266.19h-.936l-.715-.425 1.179-.343-1.819-.616 2.07-.548.472-.122.205-1.833-.22-.48-.274-.6.867-2.671.122.053-.305 2.442.358.921z" fill="#949494" opacity=".47"/><path d="M28.98 16.647l-.296.32c-.522.518-1.17.89-1.88 1.08-1.361.403-2.716-.304-3.804-1.225.245-.14.525-.208.807-.198.928 0 1.194-.814 1.263-1.422a1.724 1.724 0 000-.19v-.107a1.522 1.522 0 001.97 0c0 .586.229 1.697 1.324 1.681a1.71 1.71 0 01.616.061z" fill="#0B7578"/><path opacity=".7" d="M27.968 13.216a2.88 2.88 0 01-.068.647v.167l-.068.213a1.761 1.761 0 01-.137.297l-.046.099-.114.175a.575.575 0 00-.061.083l-.069.076-.068.076-.068.069-.076.068a1.583 1.583 0 01-2.1 0 1.897 1.897 0 01-.373-.403.275.275 0 01-.053-.076 2.596 2.596 0 01-.198-.35l-.122-.144v-.198a.495.495 0 010-.1 3.046 3.046 0 01-.084-.646 2.191 2.191 0 011.811-2.389h.114a2.184 2.184 0 011.78 2.336z" fill="#F2F2F2"/><path d="M28.124 12.443l-4.07.049.014 1.148 4.07-.049-.014-1.148z" fill="#0B7578"/><path d="M24.263 13.916a.495.495 0 000 .099v.198l.069.175c.056.121.123.238.197.35a.273.273 0 00.054.076 1.9 1.9 0 00.373.403v.319h-.29l-.905-.388-.472-.76.137-2.45 1.301-1.522.647-.107.594.26v.844l-1.035 1.095-.624.236-.046 1.172z" fill="#0B7578"/><path d="M28.98 16.647c-.083.1-.167.183-.243.259a7.236 7.236 0 01-1.864.25 4.564 4.564 0 01-2.457-.676 1.575 1.575 0 00.692-1.263c.29.229.65.355 1.02.357.368-.01.722-.143 1.004-.38.091.593.388 1.354 1.293 1.347.19.004.378.04.556.106z" fill="#D3D3D3" opacity=".53"/><path d="M32.007 44.181l-11.024.133.029 2.42 11.024-.133-.03-2.42z" fill="#E5E5E5"/><path d="M33.063 46.588l-12.743.153.033 2.8 12.743-.153-.033-2.8z" fill="#727172"/><path d="M22.704 20.878l-.678 1.148-.289-3.378.503-.867.418 2.96.046.137z" fill="#0B7578"/><path d="M23.753 17.134a.974.974 0 01.35 1.34l-2.373 4.062a.98.98 0 01-1.798-.247.982.982 0 01.101-.742l2.381-4.048a.981.981 0 011.34-.35v-.015zM27.9 13.87a2.37 2.37 0 01-.76 1.324v.312h.288l.89-.41.457-.762-.198-2.442-1.339-1.522-.608-.114-.586.274v.883l1.065 1.072.624.213.167 1.172z" fill="#0B7578"/></svg>