<svg width="60" height="60" fill="none" xmlns="http://www.w3.org/2000/svg"><path d="M30 60c16.569 0 30-13.431 30-30C60 13.431 46.569 0 30 0 13.431 0 0 13.431 0 30c0 16.569 13.431 30 30 30z" fill="#fff"/><path d="M42.28 15.217h4.42s-.083-2.45-.684-3.44a1.903 1.903 0 00-1.811-.813H16.472a4.498 4.498 0 00-1.978 2.967c-1.187 6.345 4.253 12.425 4.565 26.18a21.165 21.165 0 01-.76 6.848h-4.444l.19.365a3.986 3.986 0 001.08 1.522 4.786 4.786 0 001.743.76l-.069.062h27.878a2.023 2.023 0 001.521-1.119c.898-1.575.366-4.443.175-7.783-.776-13.254-4.336-19.53-4.093-25.55z" fill="gray" opacity=".7"/><path d="M43.65 10.378a1.903 1.903 0 011.81.814c.601.99.685 3.439.685 3.439H31.613l12.037-4.253z" fill="#CDCCCA"/><path d="M43.825 49.074H16.259s2.412-1.902 2.237-9.51c-.304-13.756-5.744-19.835-4.565-26.18a4.496 4.496 0 011.978-2.968h27.74a3.91 3.91 0 00-1.803 2.883c-.913 6.483 3.135 12.684 3.957 26.873.19 3.34.723 6.24-.152 7.761a1.856 1.856 0 01-1.827 1.141z" fill="#F2F2F2"/><path d="M44.25 49.082a3.744 3.744 0 01-2.19-.76 4.078 4.078 0 01-1.332-1.91h-27.39a4.71 4.71 0 001.24 1.848c.636.457 1.381.74 2.16.822h27.513z" fill="#E0E0E0"/><path d="M36.97 16.328h-18.9v.41h18.9v-.41zm1.095 4.519h-18.9v.282h18.9v-.282zm.533 2.511h-18.9v.281h18.9v-.281zm.532 2.518h-18.9v.282h18.9v-.282zm.533 2.579h-18.9v.282h18.9v-.282zm.532 2.709h-18.9v.282h18.9v-.282z" fill="#0B7578"/><path d="M13.49 46.739h27.375l-.137-.366H13.3l.19.366z" fill="#fff"/><path d="M42.371 38.582a4.649 4.649 0 11-9.297.016 4.649 4.649 0 019.297-.016z" fill="#0B7578"/><path d="M41.474 38.582a3.751 3.751 0 11-7.502 0 3.751 3.751 0 017.502 0z" fill="#727172"/><path d="M37.723 41.679a3.097 3.097 0 100-6.193 3.097 3.097 0 000 6.193z" fill="#0B7578"/></svg>