<svg width="40" height="40" fill="none" xmlns="http://www.w3.org/2000/svg"><path d="M20 40a20 20 0 100-40A20 20 0 000 20a20 20 0 0020 20z" fill="#0B7578"/><path fill-rule="evenodd" clip-rule="evenodd" d="M19.26 27.87h1.51a1.27 1.27 0 00.69-.3 1.07 1.07 0 00.21-.66s0-2 .92-2.34c.92-.34 2.12 2 3.39 2.84a2.36 2.36 0 001.68.51l3.39-.05s1.77-.1.93-1.5a11.18 11.18 0 00-2.51-2.91c-2.13-2-1.84-1.65.71-5.07 1.56-2.07 2.19-3.34 2-3.88-.19-.54-1.33-.38-1.33-.38h-3.81a.86.86 0 00-.5.09 1.051 1.051 0 00-.33.41 23.21 23.21 0 01-1.41 3c-1.7 2.88-2.38 3-2.66 2.86-.64-.42-.48-1.68-.48-2.57 0-2.8.42-4-.83-4.27a6.576 6.576 0 00-1.83-.18 8.083 8.083 0 00-3.16.32c-.44.21-.77.69-.57.71a1.77 1.77 0 011.13.57 3.72 3.72 0 01.38 1.73s.22 3.29-.53 3.69c-.51.28-1.22-.29-2.73-2.9a23.197 23.197 0 01-1.36-2.83 1.22 1.22 0 00-.32-.42 1.57 1.57 0 00-.58-.24H7.63s-.54 0-.74.25c-.2.25 0 .64 0 .64S9.75 21.66 13 25a8.69 8.69 0 006.3 2.86l-.04.01z" fill="#fff"/></svg>